<?xml version="1.0" encoding="utf-8" standalone="no"?>
<!DOCTYPE svg PUBLIC "-//W3C//DTD SVG 1.1//EN"
  "http://www.w3.org/Graphics/SVG/1.1/DTD/svg11.dtd">
<svg xmlns:xlink="http://www.w3.org/1999/xlink" width="1152pt" height="576pt" viewBox="0 0 1152 576" xmlns="http://www.w3.org/2000/svg" version="1.1">
 <metadata>
  <rdf:RDF xmlns:dc="http://purl.org/dc/elements/1.1/" xmlns:cc="http://creativecommons.org/ns#" xmlns:rdf="http://www.w3.org/1999/02/22-rdf-syntax-ns#">
   <cc:Work>
    <dc:type rdf:resource="http://purl.org/dc/dcmitype/StillImage"/>
    <dc:date>2023-06-28T16:42:29.585725</dc:date>
    <dc:format>image/svg+xml</dc:format>
    <dc:creator>
     <cc:Agent>
      <dc:title>Matplotlib v3.7.1, https://matplotlib.org/</dc:title>
     </cc:Agent>
    </dc:creator>
   </cc:Work>
  </rdf:RDF>
 </metadata>
 <defs>
  <style type="text/css">*{stroke-linejoin: round; stroke-linecap: butt}</style>
 </defs>
 <g id="figure_1">
  <g id="patch_1">
   <path d="M 0 576 
L 1152 576 
L 1152 0 
L 0 0 
z
" style="fill: #ffffff"/>
  </g>
  <g id="axes_1">
   <g id="patch_2">
    <path d="M 144 512.64 
L 1036.8 512.64 
L 1036.8 69.12 
L 144 69.12 
z
" style="fill: #eaeaf2"/>
   </g>
   <g id="matplotlib.axis_1">
    <g id="xtick_1">
     <g id="line2d_1">
      <path d="M 181.865242 512.64 
L 181.865242 69.12 
" clip-path="url(#p2cce2f2c75)" style="fill: none; stroke: #ffffff; stroke-linecap: round"/>
     </g>
     <g id="text_1">
      <!-- 0 -->
      <g style="fill: #262626" transform="translate(178.365867 530.498281) scale(0.11 -0.11)">
       <defs>
        <path id="DejaVuSans-30" d="M 2034 4250 
Q 1547 4250 1301 3770 
Q 1056 3291 1056 2328 
Q 1056 1369 1301 889 
Q 1547 409 2034 409 
Q 2525 409 2770 889 
Q 3016 1369 3016 2328 
Q 3016 3291 2770 3770 
Q 2525 4250 2034 4250 
z
M 2034 4750 
Q 2819 4750 3233 4129 
Q 3647 3509 3647 2328 
Q 3647 1150 3233 529 
Q 2819 -91 2034 -91 
Q 1250 -91 836 529 
Q 422 1150 422 2328 
Q 422 3509 836 4129 
Q 1250 4750 2034 4750 
z
" transform="scale(0.015625)"/>
       </defs>
       <use xlink:href="#DejaVuSans-30"/>
      </g>
     </g>
    </g>
    <g id="xtick_2">
     <g id="line2d_2">
      <path d="M 321.467091 512.64 
L 321.467091 69.12 
" clip-path="url(#p2cce2f2c75)" style="fill: none; stroke: #ffffff; stroke-linecap: round"/>
     </g>
     <g id="text_2">
      <!-- 10000 -->
      <g style="fill: #262626" transform="translate(303.970216 530.498281) scale(0.11 -0.11)">
       <defs>
        <path id="DejaVuSans-31" d="M 794 531 
L 1825 531 
L 1825 4091 
L 703 3866 
L 703 4441 
L 1819 4666 
L 2450 4666 
L 2450 531 
L 3481 531 
L 3481 0 
L 794 0 
L 794 531 
z
" transform="scale(0.015625)"/>
       </defs>
       <use xlink:href="#DejaVuSans-31"/>
       <use xlink:href="#DejaVuSans-30" x="63.623047"/>
       <use xlink:href="#DejaVuSans-30" x="127.246094"/>
       <use xlink:href="#DejaVuSans-30" x="190.869141"/>
       <use xlink:href="#DejaVuSans-30" x="254.492188"/>
      </g>
     </g>
    </g>
    <g id="xtick_3">
     <g id="line2d_3">
      <path d="M 461.06894 512.64 
L 461.06894 69.12 
" clip-path="url(#p2cce2f2c75)" style="fill: none; stroke: #ffffff; stroke-linecap: round"/>
     </g>
     <g id="text_3">
      <!-- 20000 -->
      <g style="fill: #262626" transform="translate(443.572065 530.498281) scale(0.11 -0.11)">
       <defs>
        <path id="DejaVuSans-32" d="M 1228 531 
L 3431 531 
L 3431 0 
L 469 0 
L 469 531 
Q 828 903 1448 1529 
Q 2069 2156 2228 2338 
Q 2531 2678 2651 2914 
Q 2772 3150 2772 3378 
Q 2772 3750 2511 3984 
Q 2250 4219 1831 4219 
Q 1534 4219 1204 4116 
Q 875 4013 500 3803 
L 500 4441 
Q 881 4594 1212 4672 
Q 1544 4750 1819 4750 
Q 2544 4750 2975 4387 
Q 3406 4025 3406 3419 
Q 3406 3131 3298 2873 
Q 3191 2616 2906 2266 
Q 2828 2175 2409 1742 
Q 1991 1309 1228 531 
z
" transform="scale(0.015625)"/>
       </defs>
       <use xlink:href="#DejaVuSans-32"/>
       <use xlink:href="#DejaVuSans-30" x="63.623047"/>
       <use xlink:href="#DejaVuSans-30" x="127.246094"/>
       <use xlink:href="#DejaVuSans-30" x="190.869141"/>
       <use xlink:href="#DejaVuSans-30" x="254.492188"/>
      </g>
     </g>
    </g>
    <g id="xtick_4">
     <g id="line2d_4">
      <path d="M 600.670789 512.64 
L 600.670789 69.12 
" clip-path="url(#p2cce2f2c75)" style="fill: none; stroke: #ffffff; stroke-linecap: round"/>
     </g>
     <g id="text_4">
      <!-- 30000 -->
      <g style="fill: #262626" transform="translate(583.173914 530.498281) scale(0.11 -0.11)">
       <defs>
        <path id="DejaVuSans-33" d="M 2597 2516 
Q 3050 2419 3304 2112 
Q 3559 1806 3559 1356 
Q 3559 666 3084 287 
Q 2609 -91 1734 -91 
Q 1441 -91 1130 -33 
Q 819 25 488 141 
L 488 750 
Q 750 597 1062 519 
Q 1375 441 1716 441 
Q 2309 441 2620 675 
Q 2931 909 2931 1356 
Q 2931 1769 2642 2001 
Q 2353 2234 1838 2234 
L 1294 2234 
L 1294 2753 
L 1863 2753 
Q 2328 2753 2575 2939 
Q 2822 3125 2822 3475 
Q 2822 3834 2567 4026 
Q 2313 4219 1838 4219 
Q 1578 4219 1281 4162 
Q 984 4106 628 3988 
L 628 4550 
Q 988 4650 1302 4700 
Q 1616 4750 1894 4750 
Q 2613 4750 3031 4423 
Q 3450 4097 3450 3541 
Q 3450 3153 3228 2886 
Q 3006 2619 2597 2516 
z
" transform="scale(0.015625)"/>
       </defs>
       <use xlink:href="#DejaVuSans-33"/>
       <use xlink:href="#DejaVuSans-30" x="63.623047"/>
       <use xlink:href="#DejaVuSans-30" x="127.246094"/>
       <use xlink:href="#DejaVuSans-30" x="190.869141"/>
       <use xlink:href="#DejaVuSans-30" x="254.492188"/>
      </g>
     </g>
    </g>
    <g id="xtick_5">
     <g id="line2d_5">
      <path d="M 740.272638 512.64 
L 740.272638 69.12 
" clip-path="url(#p2cce2f2c75)" style="fill: none; stroke: #ffffff; stroke-linecap: round"/>
     </g>
     <g id="text_5">
      <!-- 40000 -->
      <g style="fill: #262626" transform="translate(722.775763 530.498281) scale(0.11 -0.11)">
       <defs>
        <path id="DejaVuSans-34" d="M 2419 4116 
L 825 1625 
L 2419 1625 
L 2419 4116 
z
M 2253 4666 
L 3047 4666 
L 3047 1625 
L 3713 1625 
L 3713 1100 
L 3047 1100 
L 3047 0 
L 2419 0 
L 2419 1100 
L 313 1100 
L 313 1709 
L 2253 4666 
z
" transform="scale(0.015625)"/>
       </defs>
       <use xlink:href="#DejaVuSans-34"/>
       <use xlink:href="#DejaVuSans-30" x="63.623047"/>
       <use xlink:href="#DejaVuSans-30" x="127.246094"/>
       <use xlink:href="#DejaVuSans-30" x="190.869141"/>
       <use xlink:href="#DejaVuSans-30" x="254.492188"/>
      </g>
     </g>
    </g>
    <g id="xtick_6">
     <g id="line2d_6">
      <path d="M 879.874487 512.64 
L 879.874487 69.12 
" clip-path="url(#p2cce2f2c75)" style="fill: none; stroke: #ffffff; stroke-linecap: round"/>
     </g>
     <g id="text_6">
      <!-- 50000 -->
      <g style="fill: #262626" transform="translate(862.377612 530.498281) scale(0.11 -0.11)">
       <defs>
        <path id="DejaVuSans-35" d="M 691 4666 
L 3169 4666 
L 3169 4134 
L 1269 4134 
L 1269 2991 
Q 1406 3038 1543 3061 
Q 1681 3084 1819 3084 
Q 2600 3084 3056 2656 
Q 3513 2228 3513 1497 
Q 3513 744 3044 326 
Q 2575 -91 1722 -91 
Q 1428 -91 1123 -41 
Q 819 9 494 109 
L 494 744 
Q 775 591 1075 516 
Q 1375 441 1709 441 
Q 2250 441 2565 725 
Q 2881 1009 2881 1497 
Q 2881 1984 2565 2268 
Q 2250 2553 1709 2553 
Q 1456 2553 1204 2497 
Q 953 2441 691 2322 
L 691 4666 
z
" transform="scale(0.015625)"/>
       </defs>
       <use xlink:href="#DejaVuSans-35"/>
       <use xlink:href="#DejaVuSans-30" x="63.623047"/>
       <use xlink:href="#DejaVuSans-30" x="127.246094"/>
       <use xlink:href="#DejaVuSans-30" x="190.869141"/>
       <use xlink:href="#DejaVuSans-30" x="254.492188"/>
      </g>
     </g>
    </g>
    <g id="xtick_7">
     <g id="line2d_7">
      <path d="M 1019.476336 512.64 
L 1019.476336 69.12 
" clip-path="url(#p2cce2f2c75)" style="fill: none; stroke: #ffffff; stroke-linecap: round"/>
     </g>
     <g id="text_7">
      <!-- 60000 -->
      <g style="fill: #262626" transform="translate(1001.979461 530.498281) scale(0.11 -0.11)">
       <defs>
        <path id="DejaVuSans-36" d="M 2113 2584 
Q 1688 2584 1439 2293 
Q 1191 2003 1191 1497 
Q 1191 994 1439 701 
Q 1688 409 2113 409 
Q 2538 409 2786 701 
Q 3034 994 3034 1497 
Q 3034 2003 2786 2293 
Q 2538 2584 2113 2584 
z
M 3366 4563 
L 3366 3988 
Q 3128 4100 2886 4159 
Q 2644 4219 2406 4219 
Q 1781 4219 1451 3797 
Q 1122 3375 1075 2522 
Q 1259 2794 1537 2939 
Q 1816 3084 2150 3084 
Q 2853 3084 3261 2657 
Q 3669 2231 3669 1497 
Q 3669 778 3244 343 
Q 2819 -91 2113 -91 
Q 1303 -91 875 529 
Q 447 1150 447 2328 
Q 447 3434 972 4092 
Q 1497 4750 2381 4750 
Q 2619 4750 2861 4703 
Q 3103 4656 3366 4563 
z
" transform="scale(0.015625)"/>
       </defs>
       <use xlink:href="#DejaVuSans-36"/>
       <use xlink:href="#DejaVuSans-30" x="63.623047"/>
       <use xlink:href="#DejaVuSans-30" x="127.246094"/>
       <use xlink:href="#DejaVuSans-30" x="190.869141"/>
       <use xlink:href="#DejaVuSans-30" x="254.492188"/>
      </g>
     </g>
    </g>
    <g id="text_8">
     <!-- Time -->
     <g style="fill: #262626" transform="translate(575.719687 545.904063) scale(0.12 -0.12)">
      <defs>
       <path id="DejaVuSans-54" d="M -19 4666 
L 3928 4666 
L 3928 4134 
L 2272 4134 
L 2272 0 
L 1638 0 
L 1638 4134 
L -19 4134 
L -19 4666 
z
" transform="scale(0.015625)"/>
       <path id="DejaVuSans-69" d="M 603 3500 
L 1178 3500 
L 1178 0 
L 603 0 
L 603 3500 
z
M 603 4863 
L 1178 4863 
L 1178 4134 
L 603 4134 
L 603 4863 
z
" transform="scale(0.015625)"/>
       <path id="DejaVuSans-6d" d="M 3328 2828 
Q 3544 3216 3844 3400 
Q 4144 3584 4550 3584 
Q 5097 3584 5394 3201 
Q 5691 2819 5691 2113 
L 5691 0 
L 5113 0 
L 5113 2094 
Q 5113 2597 4934 2840 
Q 4756 3084 4391 3084 
Q 3944 3084 3684 2787 
Q 3425 2491 3425 1978 
L 3425 0 
L 2847 0 
L 2847 2094 
Q 2847 2600 2669 2842 
Q 2491 3084 2119 3084 
Q 1678 3084 1418 2786 
Q 1159 2488 1159 1978 
L 1159 0 
L 581 0 
L 581 3500 
L 1159 3500 
L 1159 2956 
Q 1356 3278 1631 3431 
Q 1906 3584 2284 3584 
Q 2666 3584 2933 3390 
Q 3200 3197 3328 2828 
z
" transform="scale(0.015625)"/>
       <path id="DejaVuSans-65" d="M 3597 1894 
L 3597 1613 
L 953 1613 
Q 991 1019 1311 708 
Q 1631 397 2203 397 
Q 2534 397 2845 478 
Q 3156 559 3463 722 
L 3463 178 
Q 3153 47 2828 -22 
Q 2503 -91 2169 -91 
Q 1331 -91 842 396 
Q 353 884 353 1716 
Q 353 2575 817 3079 
Q 1281 3584 2069 3584 
Q 2775 3584 3186 3129 
Q 3597 2675 3597 1894 
z
M 3022 2063 
Q 3016 2534 2758 2815 
Q 2500 3097 2075 3097 
Q 1594 3097 1305 2825 
Q 1016 2553 972 2059 
L 3022 2063 
z
" transform="scale(0.015625)"/>
      </defs>
      <use xlink:href="#DejaVuSans-54"/>
      <use xlink:href="#DejaVuSans-69" x="57.958984"/>
      <use xlink:href="#DejaVuSans-6d" x="85.742188"/>
      <use xlink:href="#DejaVuSans-65" x="183.154297"/>
     </g>
    </g>
   </g>
   <g id="matplotlib.axis_2">
    <g id="ytick_1">
     <g id="line2d_8">
      <path d="M 144 447.44377 
L 1036.8 447.44377 
" clip-path="url(#p2cce2f2c75)" style="fill: none; stroke: #ffffff; stroke-linecap: round"/>
     </g>
     <g id="text_9">
      <!-- 0.2 -->
      <g style="fill: #262626" transform="translate(117.006563 451.62291) scale(0.11 -0.11)">
       <defs>
        <path id="DejaVuSans-2e" d="M 684 794 
L 1344 794 
L 1344 0 
L 684 0 
L 684 794 
z
" transform="scale(0.015625)"/>
       </defs>
       <use xlink:href="#DejaVuSans-30"/>
       <use xlink:href="#DejaVuSans-2e" x="63.623047"/>
       <use xlink:href="#DejaVuSans-32" x="95.410156"/>
      </g>
     </g>
    </g>
    <g id="ytick_2">
     <g id="line2d_9">
      <path d="M 144 357.565447 
L 1036.8 357.565447 
" clip-path="url(#p2cce2f2c75)" style="fill: none; stroke: #ffffff; stroke-linecap: round"/>
     </g>
     <g id="text_10">
      <!-- 0.4 -->
      <g style="fill: #262626" transform="translate(117.006563 361.744587) scale(0.11 -0.11)">
       <use xlink:href="#DejaVuSans-30"/>
       <use xlink:href="#DejaVuSans-2e" x="63.623047"/>
       <use xlink:href="#DejaVuSans-34" x="95.410156"/>
      </g>
     </g>
    </g>
    <g id="ytick_3">
     <g id="line2d_10">
      <path d="M 144 267.687123 
L 1036.8 267.687123 
" clip-path="url(#p2cce2f2c75)" style="fill: none; stroke: #ffffff; stroke-linecap: round"/>
     </g>
     <g id="text_11">
      <!-- 0.6 -->
      <g style="fill: #262626" transform="translate(117.006563 271.866264) scale(0.11 -0.11)">
       <use xlink:href="#DejaVuSans-30"/>
       <use xlink:href="#DejaVuSans-2e" x="63.623047"/>
       <use xlink:href="#DejaVuSans-36" x="95.410156"/>
      </g>
     </g>
    </g>
    <g id="ytick_4">
     <g id="line2d_11">
      <path d="M 144 177.8088 
L 1036.8 177.8088 
" clip-path="url(#p2cce2f2c75)" style="fill: none; stroke: #ffffff; stroke-linecap: round"/>
     </g>
     <g id="text_12">
      <!-- 0.8 -->
      <g style="fill: #262626" transform="translate(117.006563 181.987941) scale(0.11 -0.11)">
       <defs>
        <path id="DejaVuSans-38" d="M 2034 2216 
Q 1584 2216 1326 1975 
Q 1069 1734 1069 1313 
Q 1069 891 1326 650 
Q 1584 409 2034 409 
Q 2484 409 2743 651 
Q 3003 894 3003 1313 
Q 3003 1734 2745 1975 
Q 2488 2216 2034 2216 
z
M 1403 2484 
Q 997 2584 770 2862 
Q 544 3141 544 3541 
Q 544 4100 942 4425 
Q 1341 4750 2034 4750 
Q 2731 4750 3128 4425 
Q 3525 4100 3525 3541 
Q 3525 3141 3298 2862 
Q 3072 2584 2669 2484 
Q 3125 2378 3379 2068 
Q 3634 1759 3634 1313 
Q 3634 634 3220 271 
Q 2806 -91 2034 -91 
Q 1263 -91 848 271 
Q 434 634 434 1313 
Q 434 1759 690 2068 
Q 947 2378 1403 2484 
z
M 1172 3481 
Q 1172 3119 1398 2916 
Q 1625 2713 2034 2713 
Q 2441 2713 2670 2916 
Q 2900 3119 2900 3481 
Q 2900 3844 2670 4047 
Q 2441 4250 2034 4250 
Q 1625 4250 1398 4047 
Q 1172 3844 1172 3481 
z
" transform="scale(0.015625)"/>
       </defs>
       <use xlink:href="#DejaVuSans-30"/>
       <use xlink:href="#DejaVuSans-2e" x="63.623047"/>
       <use xlink:href="#DejaVuSans-38" x="95.410156"/>
      </g>
     </g>
    </g>
    <g id="ytick_5">
     <g id="line2d_12">
      <path d="M 144 87.930477 
L 1036.8 87.930477 
" clip-path="url(#p2cce2f2c75)" style="fill: none; stroke: #ffffff; stroke-linecap: round"/>
     </g>
     <g id="text_13">
      <!-- 1.0 -->
      <g style="fill: #262626" transform="translate(117.006563 92.109618) scale(0.11 -0.11)">
       <use xlink:href="#DejaVuSans-31"/>
       <use xlink:href="#DejaVuSans-2e" x="63.623047"/>
       <use xlink:href="#DejaVuSans-30" x="95.410156"/>
      </g>
     </g>
    </g>
    <g id="text_14">
     <!-- Value -->
     <g style="fill: #262626" transform="translate(110.510937 307.3575) rotate(-90) scale(0.12 -0.12)">
      <defs>
       <path id="DejaVuSans-56" d="M 1831 0 
L 50 4666 
L 709 4666 
L 2188 738 
L 3669 4666 
L 4325 4666 
L 2547 0 
L 1831 0 
z
" transform="scale(0.015625)"/>
       <path id="DejaVuSans-61" d="M 2194 1759 
Q 1497 1759 1228 1600 
Q 959 1441 959 1056 
Q 959 750 1161 570 
Q 1363 391 1709 391 
Q 2188 391 2477 730 
Q 2766 1069 2766 1631 
L 2766 1759 
L 2194 1759 
z
M 3341 1997 
L 3341 0 
L 2766 0 
L 2766 531 
Q 2569 213 2275 61 
Q 1981 -91 1556 -91 
Q 1019 -91 701 211 
Q 384 513 384 1019 
Q 384 1609 779 1909 
Q 1175 2209 1959 2209 
L 2766 2209 
L 2766 2266 
Q 2766 2663 2505 2880 
Q 2244 3097 1772 3097 
Q 1472 3097 1187 3025 
Q 903 2953 641 2809 
L 641 3341 
Q 956 3463 1253 3523 
Q 1550 3584 1831 3584 
Q 2591 3584 2966 3190 
Q 3341 2797 3341 1997 
z
" transform="scale(0.015625)"/>
       <path id="DejaVuSans-6c" d="M 603 4863 
L 1178 4863 
L 1178 0 
L 603 0 
L 603 4863 
z
" transform="scale(0.015625)"/>
       <path id="DejaVuSans-75" d="M 544 1381 
L 544 3500 
L 1119 3500 
L 1119 1403 
Q 1119 906 1312 657 
Q 1506 409 1894 409 
Q 2359 409 2629 706 
Q 2900 1003 2900 1516 
L 2900 3500 
L 3475 3500 
L 3475 0 
L 2900 0 
L 2900 538 
Q 2691 219 2414 64 
Q 2138 -91 1772 -91 
Q 1169 -91 856 284 
Q 544 659 544 1381 
z
M 1991 3584 
L 1991 3584 
z
" transform="scale(0.015625)"/>
      </defs>
      <use xlink:href="#DejaVuSans-56"/>
      <use xlink:href="#DejaVuSans-61" x="60.658203"/>
      <use xlink:href="#DejaVuSans-6c" x="121.9375"/>
      <use xlink:href="#DejaVuSans-75" x="149.720703"/>
      <use xlink:href="#DejaVuSans-65" x="213.099609"/>
     </g>
    </g>
   </g>
   <g id="PolyCollection_1"/>
   <g id="PolyCollection_2"/>
   <g id="line2d_13">
    <path d="M 184.581818 447.44377 
L 187.905786 177.8088 
L 190.604223 447.44377 
L 193.905996 177.8088 
L 196.586414 447.44377 
L 199.866139 177.8088 
L 202.528659 447.44377 
L 205.786484 177.8088 
L 208.431225 447.44377 
L 211.667297 177.8088 
L 214.294377 447.44377 
L 217.50884 177.8088 
L 220.118379 447.44377 
L 223.311377 177.8088 
L 225.903491 447.44377 
L 229.075168 177.8088 
L 231.649973 447.44377 
L 234.800471 177.8088 
L 237.358083 447.44377 
L 240.487544 177.8088 
L 243.028078 447.44377 
L 246.136642 177.8088 
L 248.660212 447.44377 
L 251.748019 177.8088 
L 254.254737 447.44377 
L 257.321926 177.8088 
L 259.811905 447.44377 
L 262.858613 177.8088 
L 265.331966 447.44377 
L 268.35833 177.8088 
L 270.815167 447.44377 
L 273.821322 177.8088 
L 276.261754 447.44377 
L 279.247836 177.8088 
L 281.671972 447.44377 
L 284.638114 177.8088 
L 287.046064 447.44377 
L 289.9924 177.8088 
L 292.38427 447.44377 
L 295.310932 177.8088 
L 297.686831 447.44377 
L 300.59395 177.8088 
L 302.953984 447.44377 
L 305.841691 177.8088 
L 308.185966 447.44377 
L 311.054391 177.8088 
L 313.383012 447.44377 
L 316.232283 177.8088 
L 318.545355 447.44377 
L 321.3756 177.8088 
L 323.673227 447.44377 
L 326.484573 177.8088 
L 328.766857 447.44377 
L 331.559431 177.8088 
L 333.826476 447.44377 
L 336.600402 177.8088 
L 338.852308 447.44377 
L 341.607712 177.8088 
L 343.844582 447.44377 
L 346.581587 177.8088 
L 348.803519 447.44377 
L 351.522248 177.8088 
L 353.729344 447.44377 
L 356.429919 177.8088 
L 358.622277 447.44377 
L 361.304818 177.8088 
L 363.482537 447.44377 
L 366.147166 177.8088 
L 368.310344 447.44377 
L 370.95718 177.8088 
L 373.105913 447.44377 
L 375.735075 177.8088 
L 377.86946 447.44377 
L 380.481066 177.8088 
L 382.601198 447.44377 
L 385.195366 177.8088 
L 387.301341 447.44377 
L 389.878186 177.8088 
L 391.970099 447.44377 
L 394.529737 177.8088 
L 396.607681 447.44377 
L 399.150228 177.8088 
L 401.214297 447.44377 
L 403.739865 177.8088 
L 405.790152 447.44377 
L 408.298856 177.8088 
L 410.335451 447.44377 
L 412.827404 177.8088 
L 414.8504 447.44377 
L 417.325713 177.8088 
L 419.335201 447.44377 
L 421.793985 177.8088 
L 423.790055 447.44377 
L 426.23242 177.8088 
L 428.215161 447.44377 
L 430.641218 177.8088 
L 432.61072 447.44377 
L 435.020576 177.8088 
L 436.976927 447.44377 
L 439.370692 177.8088 
L 441.313979 447.44377 
L 443.69176 177.8088 
L 445.622071 447.44377 
L 447.983974 177.8088 
L 449.901395 447.44377 
L 452.247527 177.8088 
L 454.152145 447.44377 
L 456.482611 177.8088 
L 458.374511 447.44377 
L 460.689415 177.8088 
L 462.568682 447.44377 
L 464.868128 177.8088 
L 466.734846 447.44377 
L 469.018939 177.8088 
L 470.873192 447.44377 
L 473.142032 177.8088 
L 474.983904 447.44377 
L 477.237594 177.8088 
L 479.067166 447.44377 
L 481.305808 177.8088 
L 483.123164 447.44377 
L 485.346857 177.8088 
L 487.152077 447.44377 
L 489.360922 177.8088 
L 491.154088 447.44377 
L 493.348183 177.8088 
L 495.129375 447.44377 
L 497.308819 177.8088 
L 499.078118 447.44377 
L 501.243009 177.8088 
L 503.000493 447.44377 
L 505.150928 177.8088 
L 506.896677 447.44377 
L 509.032752 177.8088 
L 510.766844 447.44377 
L 512.888656 177.8088 
L 514.611168 447.44377 
L 516.718812 177.8088 
L 518.429822 447.44377 
L 520.523393 177.8088 
L 522.222978 447.44377 
L 524.302568 177.8088 
L 525.990805 447.44377 
L 528.056509 177.8088 
L 529.733472 447.44377 
L 531.785383 177.8088 
L 533.451148 447.44377 
L 535.489357 177.8088 
L 537.143999 447.44377 
L 539.168598 177.8088 
L 540.812192 447.44377 
L 542.823272 177.8088 
L 544.45589 447.44377 
L 546.453541 177.8088 
L 548.075258 447.44377 
L 550.05957 177.8088 
L 551.670458 447.44377 
L 553.64152 177.8088 
L 555.241651 447.44377 
L 557.199551 177.8088 
L 558.788998 447.44377 
L 560.733824 177.8088 
L 562.312657 447.44377 
L 564.244497 177.8088 
L 565.812787 447.44377 
L 567.731728 177.8088 
L 569.289546 447.44377 
L 571.195672 177.8088 
L 572.743089 447.44377 
L 574.636487 177.8088 
L 576.17357 447.44377 
L 578.054326 177.8088 
L 579.581145 447.44377 
L 581.449342 177.8088 
L 582.965966 447.44377 
L 584.821689 177.8088 
L 586.328186 447.44377 
L 588.171516 177.8088 
L 589.667954 447.44377 
L 591.498976 177.8088 
L 592.985421 447.44377 
L 594.804216 177.8088 
L 596.280736 447.44377 
L 598.087386 177.8088 
L 599.554046 447.44377 
L 601.348633 177.8088 
L 602.8055 447.44377 
L 604.588103 177.8088 
L 606.035242 447.44377 
L 607.805942 177.8088 
L 609.243417 447.44377 
L 611.002294 177.8088 
L 612.43017 447.44377 
L 614.177302 177.8088 
L 615.595644 447.44377 
L 617.331109 177.8088 
L 618.73998 447.44377 
L 620.463857 177.8088 
L 621.863321 447.44377 
L 623.575687 177.8088 
L 624.965805 447.44377 
L 626.666737 177.8088 
L 628.047573 447.44377 
L 629.737147 177.8088 
L 631.108763 447.44377 
L 632.787054 177.8088 
L 634.149511 447.44377 
L 635.816596 177.8088 
L 637.169955 447.44377 
L 638.825908 177.8088 
L 640.170231 447.44377 
L 641.815126 177.8088 
L 643.150472 447.44377 
L 644.784384 177.8088 
L 646.110813 447.44377 
L 647.733814 177.8088 
L 649.051386 447.44377 
L 650.66355 177.8088 
L 651.972324 447.44377 
L 653.573723 177.8088 
L 654.873757 447.44377 
L 656.464463 177.8088 
L 657.755817 447.44377 
L 659.3359 177.8088 
L 660.618631 447.44377 
L 662.188164 177.8088 
L 663.462329 447.44377 
L 665.021382 177.8088 
L 666.287039 447.44377 
L 667.835681 177.8088 
L 669.092887 447.44377 
L 670.631188 177.8088 
L 671.879999 447.44377 
L 673.408028 177.8088 
L 674.6485 447.44377 
L 676.166326 177.8088 
L 677.398514 447.44377 
L 678.906205 177.8088 
L 680.130166 447.44377 
L 681.627789 177.8088 
L 682.843577 447.44377 
L 684.3312 177.8088 
L 685.53887 447.44377 
L 687.016559 177.8088 
L 688.216165 447.44377 
L 689.683987 177.8088 
L 690.875582 447.44377 
L 692.333603 177.8088 
L 693.517241 447.44377 
L 694.965526 177.8088 
L 696.141261 447.44377 
L 697.579875 177.8088 
L 698.747759 447.44377 
L 700.176767 177.8088 
L 701.336852 447.44377 
L 702.756318 177.8088 
L 703.908657 447.44377 
L 705.318645 177.8088 
L 706.463289 447.44377 
L 707.863861 177.8088 
L 709.000862 447.44377 
L 710.392082 177.8088 
L 711.521491 447.44377 
L 712.903421 177.8088 
L 714.025289 447.44377 
L 715.397991 177.8088 
L 716.512367 447.44377 
L 717.875903 177.8088 
L 718.982838 447.44377 
L 720.33727 177.8088 
L 721.436813 447.44377 
L 722.7822 177.8088 
L 723.874402 447.44377 
L 725.210805 177.8088 
L 726.295713 447.44377 
L 727.623193 177.8088 
L 728.700857 447.44377 
L 730.019473 177.8088 
L 731.08994 447.44377 
L 732.399751 177.8088 
L 733.463071 447.44377 
L 734.764135 177.8088 
L 735.820355 447.44377 
L 737.112731 177.8088 
L 738.161898 447.44377 
L 739.445645 177.8088 
L 740.487806 447.44377 
L 741.76298 177.8088 
L 742.798182 447.44377 
L 744.064842 177.8088 
L 745.093132 447.44377 
L 746.351333 177.8088 
L 747.372757 447.44377 
L 748.622557 177.8088 
L 749.637159 447.44377 
L 750.878614 177.8088 
L 751.886442 447.44377 
L 753.119607 177.8088 
L 754.120705 447.44377 
L 755.345635 177.8088 
L 756.340049 447.44377 
L 757.5568 177.8088 
L 758.544573 447.44377 
L 759.753199 177.8088 
L 760.734377 447.44377 
L 761.934933 177.8088 
L 762.909558 447.44377 
L 764.102097 177.8088 
L 765.070215 447.44377 
L 766.254791 177.8088 
L 767.216444 447.44377 
L 768.39311 177.8088 
L 769.348342 447.44377 
L 770.517151 177.8088 
L 771.466004 447.44377 
L 772.627009 177.8088 
L 773.569526 447.44377 
L 774.722778 177.8088 
L 775.659001 447.44377 
L 776.804553 177.8088 
L 777.734525 447.44377 
L 778.872426 177.8088 
L 779.796189 447.44377 
L 780.926492 177.8088 
L 781.844086 447.44377 
L 782.966842 177.8088 
L 783.878309 447.44377 
L 784.993567 177.8088 
L 785.898948 447.44377 
L 787.00676 177.8088 
L 787.906094 447.44377 
L 789.006509 177.8088 
L 789.899838 447.44377 
L 790.992905 177.8088 
L 791.880269 447.44377 
L 792.966037 177.8088 
L 793.847476 447.44377 
L 794.925993 177.8088 
L 795.801547 447.44377 
L 796.872862 177.8088 
L 797.742569 447.44377 
L 798.806731 177.8088 
L 799.670631 447.44377 
L 800.727687 177.8088 
L 801.585818 447.44377 
L 802.635815 177.8088 
L 803.488216 447.44377 
L 804.531203 177.8088 
L 805.377911 447.44377 
L 806.413933 177.8088 
L 807.254988 447.44377 
L 808.284092 177.8088 
L 809.119531 447.44377 
L 810.141763 177.8088 
L 810.971624 447.44377 
L 811.98703 177.8088 
L 812.811349 447.44377 
L 813.819975 177.8088 
L 814.63879 447.44377 
L 815.640681 177.8088 
L 816.454028 447.44377 
L 817.449229 177.8088 
L 818.257144 447.44377 
L 819.2457 177.8088 
L 820.048221 447.44377 
L 821.030176 177.8088 
L 821.827338 447.44377 
L 822.802736 177.8088 
L 823.594575 447.44377 
L 824.563459 177.8088 
L 825.350011 447.44377 
L 826.312426 177.8088 
L 827.093726 447.44377 
L 828.049714 177.8088 
L 828.825797 447.44377 
L 829.775401 177.8088 
L 830.546302 447.44377 
L 831.489566 177.8088 
L 832.255318 447.44377 
L 833.192284 177.8088 
L 833.952923 447.44377 
L 834.883632 177.8088 
L 835.639192 447.44377 
L 836.563686 177.8088 
L 837.314201 447.44377 
L 838.232522 177.8088 
L 838.978026 447.44377 
L 839.890214 177.8088 
L 840.63074 447.44377 
L 841.536837 177.8088 
L 842.272418 447.44377 
L 843.172465 177.8088 
L 843.903134 447.44377 
L 844.797171 177.8088 
L 845.522961 447.44377 
L 846.411029 177.8088 
L 847.131972 447.44377 
L 848.01411 177.8088 
L 848.730239 447.44377 
L 849.606486 177.8088 
L 850.317833 447.44377 
L 851.188229 177.8088 
L 851.894827 447.44377 
L 852.759411 177.8088 
L 853.46129 447.44377 
L 854.3201 177.8088 
L 855.017293 447.44377 
L 855.870369 177.8088 
L 856.562906 447.44377 
L 857.410286 177.8088 
L 858.098198 447.44377 
L 858.93992 177.8088 
L 859.623239 447.44377 
L 860.459339 177.8088 
L 861.138096 447.44377 
L 861.968614 177.8088 
L 862.642838 447.44377 
L 863.46781 177.8088 
L 864.137532 447.44377 
L 864.956995 177.8088 
L 865.622245 447.44377 
L 866.436236 177.8088 
L 867.097044 447.44377 
L 867.9056 177.8088 
L 868.561995 447.44377 
L 869.365152 177.8088 
L 870.017164 447.44377 
L 870.814958 177.8088 
L 871.462616 447.44377 
L 872.255083 177.8088 
L 872.898417 447.44377 
L 873.685592 177.8088 
L 874.32463 447.44377 
L 875.106548 177.8088 
L 875.741319 447.44377 
L 876.518017 177.8088 
L 877.148549 447.44377 
L 877.92006 177.8088 
L 878.546382 447.44377 
L 879.312741 177.8088 
L 879.934881 447.44377 
L 880.696123 177.8088 
L 881.314108 447.44377 
L 882.070267 177.8088 
L 882.684126 447.44377 
L 883.435235 177.8088 
L 884.044995 447.44377 
L 884.791089 177.8088 
L 885.396777 447.44377 
L 886.137889 177.8088 
L 886.739533 447.44377 
L 887.475697 177.8088 
L 888.073323 447.44377 
L 888.804571 177.8088 
L 889.398206 447.44377 
L 890.124571 177.8088 
L 890.714243 447.44377 
L 891.435757 177.8088 
L 892.021492 447.44377 
L 892.738188 177.8088 
L 893.320011 447.44377 
L 894.031922 177.8088 
L 894.60986 447.44377 
L 895.317018 177.8088 
L 895.891096 447.44377 
L 896.593532 177.8088 
L 897.163777 447.44377 
L 897.861522 177.8088 
L 898.427959 447.44377 
L 899.121045 177.8088 
L 899.6837 447.44377 
L 900.372158 177.8088 
L 900.931056 447.44377 
L 901.614917 177.8088 
L 902.170083 447.44377 
L 902.849377 177.8088 
L 903.400836 447.44377 
L 904.075594 177.8088 
L 904.623371 447.44377 
L 905.293623 177.8088 
L 905.837742 447.44377 
L 906.503519 177.8088 
L 907.044005 447.44377 
L 907.705336 177.8088 
L 908.242213 447.44377 
L 908.899128 177.8088 
L 909.432419 447.44377 
L 910.084948 177.8088 
L 910.614679 447.44377 
L 911.26285 177.8088 
L 911.789044 447.44377 
L 912.432887 177.8088 
L 912.955567 447.44377 
L 913.595111 177.8088 
L 914.1143 447.44377 
L 914.749574 177.8088 
L 915.265297 447.44377 
L 915.896328 177.8088 
L 916.408607 447.44377 
L 917.035425 177.8088 
L 917.544284 447.44377 
L 918.166916 177.8088 
L 918.672377 447.44377 
L 919.290851 177.8088 
L 919.792937 447.44377 
L 920.407282 177.8088 
L 920.906014 447.44377 
L 921.516257 177.8088 
L 922.011659 447.44377 
L 922.617827 177.8088 
L 923.109922 447.44377 
L 923.712042 177.8088 
L 924.20085 447.44377 
L 924.79895 177.8088 
L 925.284494 447.44377 
L 925.8786 177.8088 
L 926.360902 447.44377 
L 926.951041 177.8088 
L 927.430123 447.44377 
L 928.016321 177.8088 
L 928.492203 447.44377 
L 929.074487 177.8088 
L 929.547192 447.44377 
L 930.125588 177.8088 
L 930.595136 447.44377 
L 931.16967 177.8088 
L 931.636083 447.44377 
L 932.20678 177.8088 
L 932.670079 447.44377 
L 933.236965 177.8088 
L 933.69717 447.44377 
L 934.260271 177.8088 
L 934.717403 447.44377 
L 935.276744 177.8088 
L 935.730823 447.44377 
L 936.286429 177.8088 
L 936.737477 447.44377 
L 937.289372 177.8088 
L 937.737408 447.44377 
L 938.285619 177.8088 
L 938.730662 447.44377 
L 939.275212 177.8088 
L 939.717285 447.44377 
L 940.258198 177.8088 
L 940.697319 447.44377 
L 941.23462 177.8088 
L 941.670808 447.44377 
L 942.204522 177.8088 
L 942.637798 447.44377 
L 943.167948 177.8088 
L 943.59833 447.44377 
L 944.12494 177.8088 
L 944.552449 447.44377 
L 945.075543 177.8088 
L 945.500196 447.44377 
L 946.019797 177.8088 
L 946.441615 447.44377 
L 946.957746 177.8088 
L 947.376748 447.44377 
L 947.889433 177.8088 
L 948.305636 447.44377 
L 948.814898 177.8088 
L 949.228322 447.44377 
L 949.734183 177.8088 
L 950.144847 447.44377 
L 950.64733 177.8088 
L 951.055251 447.44377 
L 951.554379 177.8088 
L 951.959577 447.44377 
L 952.455371 177.8088 
L 952.857863 447.44377 
L 953.350348 177.8088 
L 953.750152 447.44377 
L 954.239348 177.8088 
L 954.636482 447.44377 
L 955.122411 177.8088 
L 955.516894 447.44377 
L 955.999579 177.8088 
L 956.391427 447.44377 
L 956.870888 177.8088 
L 957.260121 447.44377 
L 957.73638 177.8088 
L 958.123013 447.44377 
L 958.596093 177.8088 
L 958.980144 447.44377 
L 959.450065 177.8088 
L 959.831552 447.44377 
L 960.298334 177.8088 
L 960.677274 447.44377 
L 961.14094 177.8088 
L 961.517349 447.44377 
L 961.977918 177.8088 
L 962.351814 447.44377 
L 962.809308 177.8088 
L 963.180708 447.44377 
L 963.635147 177.8088 
L 964.004066 447.44377 
L 964.455471 177.8088 
L 964.821926 447.44377 
L 965.270317 177.8088 
L 965.634326 447.44377 
L 966.079722 177.8088 
L 966.4413 447.44377 
L 966.883722 177.8088 
L 967.242886 447.44377 
L 967.682354 177.8088 
L 968.03912 447.44377 
L 968.475653 177.8088 
L 968.830036 447.44377 
L 969.263655 177.8088 
L 969.615672 447.44377 
L 970.046395 177.8088 
L 970.396061 447.44377 
L 970.823908 177.8088 
L 971.171239 447.44377 
L 971.596229 177.8088 
L 971.941241 447.44377 
L 972.363394 177.8088 
L 972.706102 447.44377 
L 973.125435 177.8088 
L 973.465855 447.44377 
L 973.882388 177.8088 
L 974.220535 447.44377 
L 974.634287 177.8088 
L 974.970176 447.44377 
L 975.381165 177.8088 
L 975.71481 447.44377 
L 976.123055 177.8088 
L 976.454473 447.44377 
L 976.859992 177.8088 
L 977.189197 447.44377 
L 977.592008 177.8088 
L 977.919014 447.44377 
L 978.319136 177.8088 
L 978.643959 447.44377 
L 979.041408 177.8088 
L 979.364062 447.44377 
L 979.758858 177.8088 
L 980.079357 447.44377 
L 980.471516 177.8088 
L 980.789876 447.44377 
L 981.179416 177.8088 
L 981.49565 447.44377 
L 981.88259 177.8088 
L 982.196712 447.44377 
L 982.581067 177.8088 
L 982.893092 447.44377 
L 983.274881 177.8088 
L 983.584822 447.44377 
L 983.964062 177.8088 
L 984.271933 447.44377 
L 984.648641 177.8088 
L 984.954456 447.44377 
L 985.328648 177.8088 
L 985.632422 447.44377 
L 986.004115 177.8088 
L 986.30586 447.44377 
L 986.675072 177.8088 
L 986.974802 447.44377 
L 987.341548 177.8088 
L 987.639276 447.44377 
L 988.003574 177.8088 
L 988.299314 447.44377 
L 988.661179 177.8088 
L 988.954945 447.44377 
L 989.314393 177.8088 
L 989.606197 447.44377 
L 989.963245 177.8088 
L 990.253101 447.44377 
L 990.607765 177.8088 
L 990.895685 447.44377 
L 991.247981 177.8088 
L 991.533978 447.44377 
L 991.883922 177.8088 
L 992.16801 447.44377 
L 992.515616 177.8088 
L 992.797807 447.44377 
L 993.143092 177.8088 
L 993.423399 447.44377 
L 993.766379 177.8088 
L 994.044814 447.44377 
L 994.385503 177.8088 
L 994.662079 447.44377 
L 995.000494 177.8088 
L 995.275222 447.44377 
L 995.611377 177.8088 
L 995.884272 447.44377 
L 996.218182 177.8088 
L 996.218182 177.8088 
" clip-path="url(#p2cce2f2c75)" style="fill: none; stroke: #4c72b0; stroke-width: 1.5; stroke-linecap: round"/>
   </g>
   <g id="line2d_14">
    <path d="M 184.581818 89.28 
L 996.218182 492.48 
L 996.218182 492.48 
" clip-path="url(#p2cce2f2c75)" style="fill: none; stroke: #dd8452; stroke-width: 1.5; stroke-linecap: round"/>
   </g>
   <g id="line2d_15"/>
   <g id="line2d_16"/>
   <g id="patch_3">
    <path d="M 144 512.64 
L 144 69.12 
" style="fill: none; stroke: #ffffff; stroke-width: 1.25; stroke-linejoin: miter; stroke-linecap: square"/>
   </g>
   <g id="patch_4">
    <path d="M 1036.8 512.64 
L 1036.8 69.12 
" style="fill: none; stroke: #ffffff; stroke-width: 1.25; stroke-linejoin: miter; stroke-linecap: square"/>
   </g>
   <g id="patch_5">
    <path d="M 144 512.64 
L 1036.8 512.64 
" style="fill: none; stroke: #ffffff; stroke-width: 1.25; stroke-linejoin: miter; stroke-linecap: square"/>
   </g>
   <g id="patch_6">
    <path d="M 144 69.12 
L 1036.8 69.12 
" style="fill: none; stroke: #ffffff; stroke-width: 1.25; stroke-linejoin: miter; stroke-linecap: square"/>
   </g>
   <g id="legend_1">
    <g id="patch_7">
     <path d="M 965.418125 127.325625 
L 1029.1 127.325625 
Q 1031.3 127.325625 1031.3 125.125625 
L 1031.3 76.82 
Q 1031.3 74.62 1029.1 74.62 
L 965.418125 74.62 
Q 963.218125 74.62 963.218125 76.82 
L 963.218125 125.125625 
Q 963.218125 127.325625 965.418125 127.325625 
z
" style="fill: #eaeaf2; opacity: 0.8; stroke: #cccccc; stroke-linejoin: miter"/>
    </g>
    <g id="text_15">
     <!-- SoC - SoH -->
     <g style="fill: #262626" transform="translate(967.618125 88.138125) scale(0.12 -0.12)">
      <defs>
       <path id="DejaVuSans-53" d="M 3425 4513 
L 3425 3897 
Q 3066 4069 2747 4153 
Q 2428 4238 2131 4238 
Q 1616 4238 1336 4038 
Q 1056 3838 1056 3469 
Q 1056 3159 1242 3001 
Q 1428 2844 1947 2747 
L 2328 2669 
Q 3034 2534 3370 2195 
Q 3706 1856 3706 1288 
Q 3706 609 3251 259 
Q 2797 -91 1919 -91 
Q 1588 -91 1214 -16 
Q 841 59 441 206 
L 441 856 
Q 825 641 1194 531 
Q 1563 422 1919 422 
Q 2459 422 2753 634 
Q 3047 847 3047 1241 
Q 3047 1584 2836 1778 
Q 2625 1972 2144 2069 
L 1759 2144 
Q 1053 2284 737 2584 
Q 422 2884 422 3419 
Q 422 4038 858 4394 
Q 1294 4750 2059 4750 
Q 2388 4750 2728 4690 
Q 3069 4631 3425 4513 
z
" transform="scale(0.015625)"/>
       <path id="DejaVuSans-6f" d="M 1959 3097 
Q 1497 3097 1228 2736 
Q 959 2375 959 1747 
Q 959 1119 1226 758 
Q 1494 397 1959 397 
Q 2419 397 2687 759 
Q 2956 1122 2956 1747 
Q 2956 2369 2687 2733 
Q 2419 3097 1959 3097 
z
M 1959 3584 
Q 2709 3584 3137 3096 
Q 3566 2609 3566 1747 
Q 3566 888 3137 398 
Q 2709 -91 1959 -91 
Q 1206 -91 779 398 
Q 353 888 353 1747 
Q 353 2609 779 3096 
Q 1206 3584 1959 3584 
z
" transform="scale(0.015625)"/>
       <path id="DejaVuSans-43" d="M 4122 4306 
L 4122 3641 
Q 3803 3938 3442 4084 
Q 3081 4231 2675 4231 
Q 1875 4231 1450 3742 
Q 1025 3253 1025 2328 
Q 1025 1406 1450 917 
Q 1875 428 2675 428 
Q 3081 428 3442 575 
Q 3803 722 4122 1019 
L 4122 359 
Q 3791 134 3420 21 
Q 3050 -91 2638 -91 
Q 1578 -91 968 557 
Q 359 1206 359 2328 
Q 359 3453 968 4101 
Q 1578 4750 2638 4750 
Q 3056 4750 3426 4639 
Q 3797 4528 4122 4306 
z
" transform="scale(0.015625)"/>
       <path id="DejaVuSans-20" transform="scale(0.015625)"/>
       <path id="DejaVuSans-2d" d="M 313 2009 
L 1997 2009 
L 1997 1497 
L 313 1497 
L 313 2009 
z
" transform="scale(0.015625)"/>
       <path id="DejaVuSans-48" d="M 628 4666 
L 1259 4666 
L 1259 2753 
L 3553 2753 
L 3553 4666 
L 4184 4666 
L 4184 0 
L 3553 0 
L 3553 2222 
L 1259 2222 
L 1259 0 
L 628 0 
L 628 4666 
z
" transform="scale(0.015625)"/>
      </defs>
      <use xlink:href="#DejaVuSans-53"/>
      <use xlink:href="#DejaVuSans-6f" x="63.476562"/>
      <use xlink:href="#DejaVuSans-43" x="124.658203"/>
      <use xlink:href="#DejaVuSans-20" x="194.482422"/>
      <use xlink:href="#DejaVuSans-2d" x="226.269531"/>
      <use xlink:href="#DejaVuSans-20" x="262.353516"/>
      <use xlink:href="#DejaVuSans-53" x="294.140625"/>
      <use xlink:href="#DejaVuSans-6f" x="357.617188"/>
      <use xlink:href="#DejaVuSans-48" x="418.798828"/>
     </g>
    </g>
    <g id="line2d_17">
     <path d="M 970.865937 100.642031 
L 981.865937 100.642031 
L 992.865937 100.642031 
" style="fill: none; stroke: #4c72b0; stroke-width: 1.5; stroke-linecap: round"/>
    </g>
    <g id="text_16">
     <!-- SoC -->
     <g style="fill: #262626" transform="translate(1001.665937 104.492031) scale(0.11 -0.11)">
      <use xlink:href="#DejaVuSans-53"/>
      <use xlink:href="#DejaVuSans-6f" x="63.476562"/>
      <use xlink:href="#DejaVuSans-43" x="124.658203"/>
     </g>
    </g>
    <g id="line2d_18">
     <path d="M 970.865937 116.787969 
L 981.865937 116.787969 
L 992.865937 116.787969 
" style="fill: none; stroke: #dd8452; stroke-width: 1.5; stroke-linecap: round"/>
    </g>
    <g id="text_17">
     <!-- SoH -->
     <g style="fill: #262626" transform="translate(1001.665937 120.637969) scale(0.11 -0.11)">
      <use xlink:href="#DejaVuSans-53"/>
      <use xlink:href="#DejaVuSans-6f" x="63.476562"/>
      <use xlink:href="#DejaVuSans-48" x="124.658203"/>
     </g>
    </g>
   </g>
  </g>
 </g>
 <defs>
  <clipPath id="p2cce2f2c75">
   <rect x="144" y="69.12" width="892.8" height="443.52"/>
  </clipPath>
 </defs>
</svg>
