<?xml version="1.0" encoding="utf-8" standalone="no"?>
<!DOCTYPE svg PUBLIC "-//W3C//DTD SVG 1.1//EN"
  "http://www.w3.org/Graphics/SVG/1.1/DTD/svg11.dtd">
<svg xmlns:xlink="http://www.w3.org/1999/xlink" width="1152pt" height="576pt" viewBox="0 0 1152 576" xmlns="http://www.w3.org/2000/svg" version="1.1">
 <metadata>
  <rdf:RDF xmlns:dc="http://purl.org/dc/elements/1.1/" xmlns:cc="http://creativecommons.org/ns#" xmlns:rdf="http://www.w3.org/1999/02/22-rdf-syntax-ns#">
   <cc:Work>
    <dc:type rdf:resource="http://purl.org/dc/dcmitype/StillImage"/>
    <dc:date>2023-03-30T14:42:09.493393</dc:date>
    <dc:format>image/svg+xml</dc:format>
    <dc:creator>
     <cc:Agent>
      <dc:title>Matplotlib v3.7.1, https://matplotlib.org/</dc:title>
     </cc:Agent>
    </dc:creator>
   </cc:Work>
  </rdf:RDF>
 </metadata>
 <defs>
  <style type="text/css">*{stroke-linejoin: round; stroke-linecap: butt}</style>
 </defs>
 <g id="figure_1">
  <g id="patch_1">
   <path d="M 0 576 
L 1152 576 
L 1152 0 
L 0 0 
z
" style="fill: #ffffff"/>
  </g>
  <g id="axes_1">
   <g id="patch_2">
    <path d="M 144 512.64 
L 1036.8 512.64 
L 1036.8 69.12 
L 144 69.12 
z
" style="fill: #eaeaf2"/>
   </g>
   <g id="matplotlib.axis_1">
    <g id="xtick_1">
     <g id="line2d_1">
      <path d="M 184.581818 512.64 
L 184.581818 69.12 
" clip-path="url(#pb647630257)" style="fill: none; stroke: #ffffff; stroke-linecap: round"/>
     </g>
     <g id="text_1">
      <!-- 0 -->
      <g style="fill: #262626" transform="translate(181.082443 530.498281) scale(0.11 -0.11)">
       <defs>
        <path id="DejaVuSans-30" d="M 2034 4250 
Q 1547 4250 1301 3770 
Q 1056 3291 1056 2328 
Q 1056 1369 1301 889 
Q 1547 409 2034 409 
Q 2525 409 2770 889 
Q 3016 1369 3016 2328 
Q 3016 3291 2770 3770 
Q 2525 4250 2034 4250 
z
M 2034 4750 
Q 2819 4750 3233 4129 
Q 3647 3509 3647 2328 
Q 3647 1150 3233 529 
Q 2819 -91 2034 -91 
Q 1250 -91 836 529 
Q 422 1150 422 2328 
Q 422 3509 836 4129 
Q 1250 4750 2034 4750 
z
" transform="scale(0.015625)"/>
       </defs>
       <use xlink:href="#DejaVuSans-30"/>
      </g>
     </g>
    </g>
    <g id="xtick_2">
     <g id="line2d_2">
      <path d="M 341.1509 512.64 
L 341.1509 69.12 
" clip-path="url(#pb647630257)" style="fill: none; stroke: #ffffff; stroke-linecap: round"/>
     </g>
     <g id="text_2">
      <!-- 10000 -->
      <g style="fill: #262626" transform="translate(323.654025 530.498281) scale(0.11 -0.11)">
       <defs>
        <path id="DejaVuSans-31" d="M 794 531 
L 1825 531 
L 1825 4091 
L 703 3866 
L 703 4441 
L 1819 4666 
L 2450 4666 
L 2450 531 
L 3481 531 
L 3481 0 
L 794 0 
L 794 531 
z
" transform="scale(0.015625)"/>
       </defs>
       <use xlink:href="#DejaVuSans-31"/>
       <use xlink:href="#DejaVuSans-30" x="63.623047"/>
       <use xlink:href="#DejaVuSans-30" x="127.246094"/>
       <use xlink:href="#DejaVuSans-30" x="190.869141"/>
       <use xlink:href="#DejaVuSans-30" x="254.492188"/>
      </g>
     </g>
    </g>
    <g id="xtick_3">
     <g id="line2d_3">
      <path d="M 497.719982 512.64 
L 497.719982 69.12 
" clip-path="url(#pb647630257)" style="fill: none; stroke: #ffffff; stroke-linecap: round"/>
     </g>
     <g id="text_3">
      <!-- 20000 -->
      <g style="fill: #262626" transform="translate(480.223107 530.498281) scale(0.11 -0.11)">
       <defs>
        <path id="DejaVuSans-32" d="M 1228 531 
L 3431 531 
L 3431 0 
L 469 0 
L 469 531 
Q 828 903 1448 1529 
Q 2069 2156 2228 2338 
Q 2531 2678 2651 2914 
Q 2772 3150 2772 3378 
Q 2772 3750 2511 3984 
Q 2250 4219 1831 4219 
Q 1534 4219 1204 4116 
Q 875 4013 500 3803 
L 500 4441 
Q 881 4594 1212 4672 
Q 1544 4750 1819 4750 
Q 2544 4750 2975 4387 
Q 3406 4025 3406 3419 
Q 3406 3131 3298 2873 
Q 3191 2616 2906 2266 
Q 2828 2175 2409 1742 
Q 1991 1309 1228 531 
z
" transform="scale(0.015625)"/>
       </defs>
       <use xlink:href="#DejaVuSans-32"/>
       <use xlink:href="#DejaVuSans-30" x="63.623047"/>
       <use xlink:href="#DejaVuSans-30" x="127.246094"/>
       <use xlink:href="#DejaVuSans-30" x="190.869141"/>
       <use xlink:href="#DejaVuSans-30" x="254.492188"/>
      </g>
     </g>
    </g>
    <g id="xtick_4">
     <g id="line2d_4">
      <path d="M 654.289063 512.64 
L 654.289063 69.12 
" clip-path="url(#pb647630257)" style="fill: none; stroke: #ffffff; stroke-linecap: round"/>
     </g>
     <g id="text_4">
      <!-- 30000 -->
      <g style="fill: #262626" transform="translate(636.792188 530.498281) scale(0.11 -0.11)">
       <defs>
        <path id="DejaVuSans-33" d="M 2597 2516 
Q 3050 2419 3304 2112 
Q 3559 1806 3559 1356 
Q 3559 666 3084 287 
Q 2609 -91 1734 -91 
Q 1441 -91 1130 -33 
Q 819 25 488 141 
L 488 750 
Q 750 597 1062 519 
Q 1375 441 1716 441 
Q 2309 441 2620 675 
Q 2931 909 2931 1356 
Q 2931 1769 2642 2001 
Q 2353 2234 1838 2234 
L 1294 2234 
L 1294 2753 
L 1863 2753 
Q 2328 2753 2575 2939 
Q 2822 3125 2822 3475 
Q 2822 3834 2567 4026 
Q 2313 4219 1838 4219 
Q 1578 4219 1281 4162 
Q 984 4106 628 3988 
L 628 4550 
Q 988 4650 1302 4700 
Q 1616 4750 1894 4750 
Q 2613 4750 3031 4423 
Q 3450 4097 3450 3541 
Q 3450 3153 3228 2886 
Q 3006 2619 2597 2516 
z
" transform="scale(0.015625)"/>
       </defs>
       <use xlink:href="#DejaVuSans-33"/>
       <use xlink:href="#DejaVuSans-30" x="63.623047"/>
       <use xlink:href="#DejaVuSans-30" x="127.246094"/>
       <use xlink:href="#DejaVuSans-30" x="190.869141"/>
       <use xlink:href="#DejaVuSans-30" x="254.492188"/>
      </g>
     </g>
    </g>
    <g id="xtick_5">
     <g id="line2d_5">
      <path d="M 810.858145 512.64 
L 810.858145 69.12 
" clip-path="url(#pb647630257)" style="fill: none; stroke: #ffffff; stroke-linecap: round"/>
     </g>
     <g id="text_5">
      <!-- 40000 -->
      <g style="fill: #262626" transform="translate(793.36127 530.498281) scale(0.11 -0.11)">
       <defs>
        <path id="DejaVuSans-34" d="M 2419 4116 
L 825 1625 
L 2419 1625 
L 2419 4116 
z
M 2253 4666 
L 3047 4666 
L 3047 1625 
L 3713 1625 
L 3713 1100 
L 3047 1100 
L 3047 0 
L 2419 0 
L 2419 1100 
L 313 1100 
L 313 1709 
L 2253 4666 
z
" transform="scale(0.015625)"/>
       </defs>
       <use xlink:href="#DejaVuSans-34"/>
       <use xlink:href="#DejaVuSans-30" x="63.623047"/>
       <use xlink:href="#DejaVuSans-30" x="127.246094"/>
       <use xlink:href="#DejaVuSans-30" x="190.869141"/>
       <use xlink:href="#DejaVuSans-30" x="254.492188"/>
      </g>
     </g>
    </g>
    <g id="xtick_6">
     <g id="line2d_6">
      <path d="M 967.427227 512.64 
L 967.427227 69.12 
" clip-path="url(#pb647630257)" style="fill: none; stroke: #ffffff; stroke-linecap: round"/>
     </g>
     <g id="text_6">
      <!-- 50000 -->
      <g style="fill: #262626" transform="translate(949.930352 530.498281) scale(0.11 -0.11)">
       <defs>
        <path id="DejaVuSans-35" d="M 691 4666 
L 3169 4666 
L 3169 4134 
L 1269 4134 
L 1269 2991 
Q 1406 3038 1543 3061 
Q 1681 3084 1819 3084 
Q 2600 3084 3056 2656 
Q 3513 2228 3513 1497 
Q 3513 744 3044 326 
Q 2575 -91 1722 -91 
Q 1428 -91 1123 -41 
Q 819 9 494 109 
L 494 744 
Q 775 591 1075 516 
Q 1375 441 1709 441 
Q 2250 441 2565 725 
Q 2881 1009 2881 1497 
Q 2881 1984 2565 2268 
Q 2250 2553 1709 2553 
Q 1456 2553 1204 2497 
Q 953 2441 691 2322 
L 691 4666 
z
" transform="scale(0.015625)"/>
       </defs>
       <use xlink:href="#DejaVuSans-35"/>
       <use xlink:href="#DejaVuSans-30" x="63.623047"/>
       <use xlink:href="#DejaVuSans-30" x="127.246094"/>
       <use xlink:href="#DejaVuSans-30" x="190.869141"/>
       <use xlink:href="#DejaVuSans-30" x="254.492188"/>
      </g>
     </g>
    </g>
    <g id="text_7">
     <!-- Time -->
     <g style="fill: #262626" transform="translate(575.719687 545.904063) scale(0.12 -0.12)">
      <defs>
       <path id="DejaVuSans-54" d="M -19 4666 
L 3928 4666 
L 3928 4134 
L 2272 4134 
L 2272 0 
L 1638 0 
L 1638 4134 
L -19 4134 
L -19 4666 
z
" transform="scale(0.015625)"/>
       <path id="DejaVuSans-69" d="M 603 3500 
L 1178 3500 
L 1178 0 
L 603 0 
L 603 3500 
z
M 603 4863 
L 1178 4863 
L 1178 4134 
L 603 4134 
L 603 4863 
z
" transform="scale(0.015625)"/>
       <path id="DejaVuSans-6d" d="M 3328 2828 
Q 3544 3216 3844 3400 
Q 4144 3584 4550 3584 
Q 5097 3584 5394 3201 
Q 5691 2819 5691 2113 
L 5691 0 
L 5113 0 
L 5113 2094 
Q 5113 2597 4934 2840 
Q 4756 3084 4391 3084 
Q 3944 3084 3684 2787 
Q 3425 2491 3425 1978 
L 3425 0 
L 2847 0 
L 2847 2094 
Q 2847 2600 2669 2842 
Q 2491 3084 2119 3084 
Q 1678 3084 1418 2786 
Q 1159 2488 1159 1978 
L 1159 0 
L 581 0 
L 581 3500 
L 1159 3500 
L 1159 2956 
Q 1356 3278 1631 3431 
Q 1906 3584 2284 3584 
Q 2666 3584 2933 3390 
Q 3200 3197 3328 2828 
z
" transform="scale(0.015625)"/>
       <path id="DejaVuSans-65" d="M 3597 1894 
L 3597 1613 
L 953 1613 
Q 991 1019 1311 708 
Q 1631 397 2203 397 
Q 2534 397 2845 478 
Q 3156 559 3463 722 
L 3463 178 
Q 3153 47 2828 -22 
Q 2503 -91 2169 -91 
Q 1331 -91 842 396 
Q 353 884 353 1716 
Q 353 2575 817 3079 
Q 1281 3584 2069 3584 
Q 2775 3584 3186 3129 
Q 3597 2675 3597 1894 
z
M 3022 2063 
Q 3016 2534 2758 2815 
Q 2500 3097 2075 3097 
Q 1594 3097 1305 2825 
Q 1016 2553 972 2059 
L 3022 2063 
z
" transform="scale(0.015625)"/>
      </defs>
      <use xlink:href="#DejaVuSans-54"/>
      <use xlink:href="#DejaVuSans-69" x="57.958984"/>
      <use xlink:href="#DejaVuSans-6d" x="85.742188"/>
      <use xlink:href="#DejaVuSans-65" x="183.154297"/>
     </g>
    </g>
   </g>
   <g id="matplotlib.axis_2">
    <g id="ytick_1">
     <g id="line2d_7">
      <path d="M 144 492.488871 
L 1036.8 492.488871 
" clip-path="url(#pb647630257)" style="fill: none; stroke: #ffffff; stroke-linecap: round"/>
     </g>
     <g id="text_8">
      <!-- 0.0 -->
      <g style="fill: #262626" transform="translate(117.006563 496.668011) scale(0.11 -0.11)">
       <defs>
        <path id="DejaVuSans-2e" d="M 684 794 
L 1344 794 
L 1344 0 
L 684 0 
L 684 794 
z
" transform="scale(0.015625)"/>
       </defs>
       <use xlink:href="#DejaVuSans-30"/>
       <use xlink:href="#DejaVuSans-2e" x="63.623047"/>
       <use xlink:href="#DejaVuSans-30" x="95.410156"/>
      </g>
     </g>
    </g>
    <g id="ytick_2">
     <g id="line2d_8">
      <path d="M 144 411.847096 
L 1036.8 411.847096 
" clip-path="url(#pb647630257)" style="fill: none; stroke: #ffffff; stroke-linecap: round"/>
     </g>
     <g id="text_9">
      <!-- 0.2 -->
      <g style="fill: #262626" transform="translate(117.006563 416.026237) scale(0.11 -0.11)">
       <use xlink:href="#DejaVuSans-30"/>
       <use xlink:href="#DejaVuSans-2e" x="63.623047"/>
       <use xlink:href="#DejaVuSans-32" x="95.410156"/>
      </g>
     </g>
    </g>
    <g id="ytick_3">
     <g id="line2d_9">
      <path d="M 144 331.205322 
L 1036.8 331.205322 
" clip-path="url(#pb647630257)" style="fill: none; stroke: #ffffff; stroke-linecap: round"/>
     </g>
     <g id="text_10">
      <!-- 0.4 -->
      <g style="fill: #262626" transform="translate(117.006563 335.384463) scale(0.11 -0.11)">
       <use xlink:href="#DejaVuSans-30"/>
       <use xlink:href="#DejaVuSans-2e" x="63.623047"/>
       <use xlink:href="#DejaVuSans-34" x="95.410156"/>
      </g>
     </g>
    </g>
    <g id="ytick_4">
     <g id="line2d_10">
      <path d="M 144 250.563548 
L 1036.8 250.563548 
" clip-path="url(#pb647630257)" style="fill: none; stroke: #ffffff; stroke-linecap: round"/>
     </g>
     <g id="text_11">
      <!-- 0.6 -->
      <g style="fill: #262626" transform="translate(117.006563 254.742689) scale(0.11 -0.11)">
       <defs>
        <path id="DejaVuSans-36" d="M 2113 2584 
Q 1688 2584 1439 2293 
Q 1191 2003 1191 1497 
Q 1191 994 1439 701 
Q 1688 409 2113 409 
Q 2538 409 2786 701 
Q 3034 994 3034 1497 
Q 3034 2003 2786 2293 
Q 2538 2584 2113 2584 
z
M 3366 4563 
L 3366 3988 
Q 3128 4100 2886 4159 
Q 2644 4219 2406 4219 
Q 1781 4219 1451 3797 
Q 1122 3375 1075 2522 
Q 1259 2794 1537 2939 
Q 1816 3084 2150 3084 
Q 2853 3084 3261 2657 
Q 3669 2231 3669 1497 
Q 3669 778 3244 343 
Q 2819 -91 2113 -91 
Q 1303 -91 875 529 
Q 447 1150 447 2328 
Q 447 3434 972 4092 
Q 1497 4750 2381 4750 
Q 2619 4750 2861 4703 
Q 3103 4656 3366 4563 
z
" transform="scale(0.015625)"/>
       </defs>
       <use xlink:href="#DejaVuSans-30"/>
       <use xlink:href="#DejaVuSans-2e" x="63.623047"/>
       <use xlink:href="#DejaVuSans-36" x="95.410156"/>
      </g>
     </g>
    </g>
    <g id="ytick_5">
     <g id="line2d_11">
      <path d="M 144 169.921774 
L 1036.8 169.921774 
" clip-path="url(#pb647630257)" style="fill: none; stroke: #ffffff; stroke-linecap: round"/>
     </g>
     <g id="text_12">
      <!-- 0.8 -->
      <g style="fill: #262626" transform="translate(117.006563 174.100915) scale(0.11 -0.11)">
       <defs>
        <path id="DejaVuSans-38" d="M 2034 2216 
Q 1584 2216 1326 1975 
Q 1069 1734 1069 1313 
Q 1069 891 1326 650 
Q 1584 409 2034 409 
Q 2484 409 2743 651 
Q 3003 894 3003 1313 
Q 3003 1734 2745 1975 
Q 2488 2216 2034 2216 
z
M 1403 2484 
Q 997 2584 770 2862 
Q 544 3141 544 3541 
Q 544 4100 942 4425 
Q 1341 4750 2034 4750 
Q 2731 4750 3128 4425 
Q 3525 4100 3525 3541 
Q 3525 3141 3298 2862 
Q 3072 2584 2669 2484 
Q 3125 2378 3379 2068 
Q 3634 1759 3634 1313 
Q 3634 634 3220 271 
Q 2806 -91 2034 -91 
Q 1263 -91 848 271 
Q 434 634 434 1313 
Q 434 1759 690 2068 
Q 947 2378 1403 2484 
z
M 1172 3481 
Q 1172 3119 1398 2916 
Q 1625 2713 2034 2713 
Q 2441 2713 2670 2916 
Q 2900 3119 2900 3481 
Q 2900 3844 2670 4047 
Q 2441 4250 2034 4250 
Q 1625 4250 1398 4047 
Q 1172 3844 1172 3481 
z
" transform="scale(0.015625)"/>
       </defs>
       <use xlink:href="#DejaVuSans-30"/>
       <use xlink:href="#DejaVuSans-2e" x="63.623047"/>
       <use xlink:href="#DejaVuSans-38" x="95.410156"/>
      </g>
     </g>
    </g>
    <g id="ytick_6">
     <g id="line2d_12">
      <path d="M 144 89.28 
L 1036.8 89.28 
" clip-path="url(#pb647630257)" style="fill: none; stroke: #ffffff; stroke-linecap: round"/>
     </g>
     <g id="text_13">
      <!-- 1.0 -->
      <g style="fill: #262626" transform="translate(117.006563 93.459141) scale(0.11 -0.11)">
       <use xlink:href="#DejaVuSans-31"/>
       <use xlink:href="#DejaVuSans-2e" x="63.623047"/>
       <use xlink:href="#DejaVuSans-30" x="95.410156"/>
      </g>
     </g>
    </g>
    <g id="text_14">
     <!-- Value -->
     <g style="fill: #262626" transform="translate(110.510937 307.3575) rotate(-90) scale(0.12 -0.12)">
      <defs>
       <path id="DejaVuSans-56" d="M 1831 0 
L 50 4666 
L 709 4666 
L 2188 738 
L 3669 4666 
L 4325 4666 
L 2547 0 
L 1831 0 
z
" transform="scale(0.015625)"/>
       <path id="DejaVuSans-61" d="M 2194 1759 
Q 1497 1759 1228 1600 
Q 959 1441 959 1056 
Q 959 750 1161 570 
Q 1363 391 1709 391 
Q 2188 391 2477 730 
Q 2766 1069 2766 1631 
L 2766 1759 
L 2194 1759 
z
M 3341 1997 
L 3341 0 
L 2766 0 
L 2766 531 
Q 2569 213 2275 61 
Q 1981 -91 1556 -91 
Q 1019 -91 701 211 
Q 384 513 384 1019 
Q 384 1609 779 1909 
Q 1175 2209 1959 2209 
L 2766 2209 
L 2766 2266 
Q 2766 2663 2505 2880 
Q 2244 3097 1772 3097 
Q 1472 3097 1187 3025 
Q 903 2953 641 2809 
L 641 3341 
Q 956 3463 1253 3523 
Q 1550 3584 1831 3584 
Q 2591 3584 2966 3190 
Q 3341 2797 3341 1997 
z
" transform="scale(0.015625)"/>
       <path id="DejaVuSans-6c" d="M 603 4863 
L 1178 4863 
L 1178 0 
L 603 0 
L 603 4863 
z
" transform="scale(0.015625)"/>
       <path id="DejaVuSans-75" d="M 544 1381 
L 544 3500 
L 1119 3500 
L 1119 1403 
Q 1119 906 1312 657 
Q 1506 409 1894 409 
Q 2359 409 2629 706 
Q 2900 1003 2900 1516 
L 2900 3500 
L 3475 3500 
L 3475 0 
L 2900 0 
L 2900 538 
Q 2691 219 2414 64 
Q 2138 -91 1772 -91 
Q 1169 -91 856 284 
Q 544 659 544 1381 
z
M 1991 3584 
L 1991 3584 
z
" transform="scale(0.015625)"/>
      </defs>
      <use xlink:href="#DejaVuSans-56"/>
      <use xlink:href="#DejaVuSans-61" x="60.658203"/>
      <use xlink:href="#DejaVuSans-6c" x="121.9375"/>
      <use xlink:href="#DejaVuSans-75" x="149.720703"/>
      <use xlink:href="#DejaVuSans-65" x="213.099609"/>
     </g>
    </g>
   </g>
   <g id="PolyCollection_1"/>
   <g id="PolyCollection_2"/>
   <g id="line2d_13">
    <path d="M 184.581818 169.921774 
L 187.96371 411.847096 
L 191.33433 169.921774 
L 194.693713 411.847096 
L 198.041899 169.921774 
L 201.378924 411.847096 
L 204.704826 169.921774 
L 208.019642 411.847096 
L 211.323408 169.921774 
L 214.616161 411.847096 
L 217.897939 169.921774 
L 221.168777 411.847096 
L 224.428713 169.921774 
L 227.677782 411.847096 
L 230.916021 169.921774 
L 234.143466 411.847096 
L 237.360153 169.921774 
L 240.566117 411.847096 
L 243.761395 169.921774 
L 246.946022 411.847096 
L 250.120033 169.921774 
L 253.283465 411.847096 
L 256.436351 169.921774 
L 259.578728 411.847096 
L 262.710631 169.921774 
L 265.832094 411.847096 
L 268.943152 169.921774 
L 272.043839 411.847096 
L 275.134191 169.921774 
L 278.214242 411.847096 
L 281.284026 169.921774 
L 284.343578 411.847096 
L 287.392931 169.921774 
L 290.432119 411.847096 
L 293.461177 169.921774 
L 296.480138 411.847096 
L 299.489036 169.921774 
L 302.487904 411.847096 
L 305.476776 169.921774 
L 308.455685 411.847096 
L 311.424664 169.921774 
L 314.383747 411.847096 
L 317.332966 169.921774 
L 320.272354 411.847096 
L 323.201945 169.921774 
L 326.12177 411.847096 
L 329.031862 169.921774 
L 331.932254 411.847096 
L 334.822978 169.921774 
L 337.704066 411.847096 
L 340.575551 169.921774 
L 343.437464 411.847096 
L 346.289838 169.921774 
L 349.132703 411.847096 
L 351.966092 169.921774 
L 354.790037 411.847096 
L 357.604568 169.921774 
L 360.409718 411.847096 
L 363.205517 169.921774 
L 365.991997 411.847096 
L 368.769188 169.921774 
L 371.537123 411.847096 
L 374.295831 169.921774 
L 377.045343 411.847096 
L 379.78569 169.921774 
L 382.516902 411.847096 
L 385.239011 169.921774 
L 387.952046 411.847096 
L 390.656037 169.921774 
L 393.351015 411.847096 
L 396.03701 169.921774 
L 398.714052 411.847096 
L 401.38217 169.921774 
L 404.041394 411.847096 
L 406.691754 169.921774 
L 409.33328 411.847096 
L 411.966001 169.921774 
L 414.589945 411.847096 
L 417.205144 169.921774 
L 419.811625 411.847096 
L 422.409418 169.921774 
L 424.998551 411.847096 
L 427.579054 169.921774 
L 430.150956 411.847096 
L 432.714284 169.921774 
L 435.269068 411.847096 
L 437.815336 169.921774 
L 440.353116 411.847096 
L 442.882438 169.921774 
L 445.403328 411.847096 
L 447.915815 169.921774 
L 450.419927 411.847096 
L 452.915692 169.921774 
L 455.403138 411.847096 
L 457.882293 169.921774 
L 460.353183 411.847096 
L 462.815837 169.921774 
L 465.270283 411.847096 
L 467.716547 169.921774 
L 470.154657 411.847096 
L 472.584639 169.921774 
L 475.006522 411.847096 
L 477.420332 169.921774 
L 479.826096 411.847096 
L 482.22384 169.921774 
L 484.613592 411.847096 
L 486.995379 169.921774 
L 489.369225 411.847096 
L 491.73516 169.921774 
L 494.093207 411.847096 
L 496.443395 169.921774 
L 498.785748 411.847096 
L 501.120294 169.921774 
L 503.447058 411.847096 
L 505.766066 169.921774 
L 508.077344 411.847096 
L 510.380918 169.921774 
L 512.676813 411.847096 
L 514.965055 169.921774 
L 517.24567 411.847096 
L 519.518683 169.921774 
L 521.784119 411.847096 
L 524.042003 169.921774 
L 526.292361 411.847096 
L 528.535218 169.921774 
L 530.770599 411.847096 
L 532.998529 169.921774 
L 535.219032 411.847096 
L 537.432133 169.921774 
L 539.637858 411.847096 
L 541.83623 169.921774 
L 544.027274 411.847096 
L 546.211014 169.921774 
L 548.387476 411.847096 
L 550.556683 169.921774 
L 552.718659 411.847096 
L 554.873428 169.921774 
L 557.021015 411.847096 
L 559.161443 169.921774 
L 561.294736 411.847096 
L 563.420919 169.921774 
L 565.540014 411.847096 
L 567.652045 169.921774 
L 569.757037 411.847096 
L 571.855012 169.921774 
L 573.945993 411.847096 
L 576.030005 169.921774 
L 578.10707 411.847096 
L 580.177211 169.921774 
L 582.240452 411.847096 
L 584.296815 169.921774 
L 586.346324 411.847096 
L 588.389001 169.921774 
L 590.424869 411.847096 
L 592.453951 169.921774 
L 594.47627 411.847096 
L 596.491847 169.921774 
L 598.500706 411.847096 
L 600.502868 169.921774 
L 602.498357 411.847096 
L 604.487194 169.921774 
L 606.469402 411.847096 
L 608.445002 169.921774 
L 610.414017 411.847096 
L 612.376468 169.921774 
L 614.332378 411.847096 
L 616.281769 169.921774 
L 618.224661 411.847096 
L 620.161077 169.921774 
L 622.091038 411.847096 
L 624.014566 169.921774 
L 625.931683 411.847096 
L 627.842409 169.921774 
L 629.746766 411.847096 
L 631.644775 169.921774 
L 633.536457 411.847096 
L 635.421834 169.921774 
L 637.300926 411.847096 
L 639.173754 169.921774 
L 641.04034 411.847096 
L 642.900704 169.921774 
L 644.754866 411.847096 
L 646.602848 169.921774 
L 648.44467 411.847096 
L 650.280353 169.921774 
L 652.109917 411.847096 
L 653.933382 169.921774 
L 655.750769 411.847096 
L 657.562098 169.921774 
L 659.367389 411.847096 
L 661.166663 169.921774 
L 662.959939 411.847096 
L 664.747237 169.921774 
L 666.528578 411.847096 
L 668.303981 169.921774 
L 670.073466 411.847096 
L 671.837052 169.921774 
L 673.59476 411.847096 
L 675.346609 169.921774 
L 677.092619 411.847096 
L 678.832808 169.921774 
L 680.567197 411.847096 
L 682.295805 169.921774 
L 684.01865 411.847096 
L 685.735753 169.921774 
L 687.447132 411.847096 
L 689.152807 169.921774 
L 690.852796 411.847096 
L 692.547118 169.921774 
L 694.235792 411.847096 
L 695.918838 169.921774 
L 697.596273 411.847096 
L 699.268117 169.921774 
L 700.934388 411.847096 
L 702.595105 169.921774 
L 704.250287 411.847096 
L 705.899951 169.921774 
L 707.544116 411.847096 
L 709.1828 169.921774 
L 710.816022 411.847096 
L 712.4438 169.921774 
L 714.066153 411.847096 
L 715.683097 169.921774 
L 717.294652 411.847096 
L 718.900834 169.921774 
L 720.501663 411.847096 
L 722.097156 169.921774 
L 723.68733 411.847096 
L 725.272204 169.921774 
L 726.851795 411.847096 
L 728.42612 169.921774 
L 729.995198 411.847096 
L 731.559046 169.921774 
L 733.117681 411.847096 
L 734.67112 169.921774 
L 736.219381 411.847096 
L 737.762481 169.921774 
L 739.300438 411.847096 
L 740.833268 169.921774 
L 742.360989 411.847096 
L 743.883617 169.921774 
L 745.40117 411.847096 
L 746.913664 169.921774 
L 748.421117 411.847096 
L 749.923545 169.921774 
L 751.420964 411.847096 
L 752.913393 169.921774 
L 754.400846 411.847096 
L 755.883342 169.921774 
L 757.360896 411.847096 
L 758.833524 169.921774 
L 760.301244 411.847096 
L 761.764071 169.921774 
L 763.222023 411.847096 
L 764.675114 169.921774 
L 766.123362 411.847096 
L 767.566782 169.921774 
L 769.005391 411.847096 
L 770.439205 169.921774 
L 771.868239 411.847096 
L 773.29251 169.921774 
L 774.712033 411.847096 
L 776.126824 169.921774 
L 777.5369 411.847096 
L 778.942275 169.921774 
L 780.342966 411.847096 
L 781.738987 169.921774 
L 783.130356 411.847096 
L 784.517086 169.921774 
L 785.899194 411.847096 
L 787.276695 169.921774 
L 788.649604 411.847096 
L 790.017937 169.921774 
L 791.381709 411.847096 
L 792.740935 169.921774 
L 794.09563 411.847096 
L 795.445809 169.921774 
L 796.791488 411.847096 
L 798.132681 169.921774 
L 799.469404 411.847096 
L 800.801671 169.921774 
L 802.129497 411.847096 
L 803.452897 169.921774 
L 804.771885 411.847096 
L 806.086477 169.921774 
L 807.396687 411.847096 
L 808.70253 169.921774 
L 810.00402 411.847096 
L 811.301171 169.921774 
L 812.593999 411.847096 
L 813.882517 169.921774 
L 815.16674 411.847096 
L 816.446683 169.921774 
L 817.722359 411.847096 
L 818.993782 169.921774 
L 820.260968 411.847096 
L 821.52393 169.921774 
L 822.782681 411.847096 
L 824.037237 169.921774 
L 825.287611 411.847096 
L 826.533818 169.921774 
L 827.77587 411.847096 
L 829.013782 169.921774 
L 830.247567 411.847096 
L 831.47724 169.921774 
L 832.702815 411.847096 
L 833.924303 169.921774 
L 835.141721 411.847096 
L 836.35508 169.921774 
L 837.564394 411.847096 
L 838.769678 169.921774 
L 839.970944 411.847096 
L 841.168206 169.921774 
L 842.361477 411.847096 
L 843.55077 169.921774 
L 844.736099 411.847096 
L 845.917477 169.921774 
L 847.094917 411.847096 
L 848.268432 169.921774 
L 849.438035 411.847096 
L 850.60374 169.921774 
L 851.765559 411.847096 
L 852.923506 169.921774 
L 854.077592 411.847096 
L 855.227832 169.921774 
L 856.374237 411.847096 
L 857.516821 169.921774 
L 858.655597 411.847096 
L 859.790576 169.921774 
L 860.921773 411.847096 
L 862.049198 169.921774 
L 863.172866 411.847096 
L 864.292788 169.921774 
L 865.408977 411.847096 
L 866.521445 169.921774 
L 867.630205 411.847096 
L 868.735269 169.921774 
L 869.83665 411.847096 
L 870.934359 169.921774 
L 872.02841 411.847096 
L 873.118813 169.921774 
L 874.205582 411.847096 
L 875.288728 169.921774 
L 876.368264 411.847096 
L 877.444202 169.921774 
L 878.516552 411.847096 
L 879.585329 169.921774 
L 880.650543 411.847096 
L 881.712206 169.921774 
L 882.77033 411.847096 
L 883.824927 169.921774 
L 884.876009 411.847096 
L 885.923587 169.921774 
L 886.967673 411.847096 
L 888.008279 169.921774 
L 889.045417 411.847096 
L 890.079097 169.921774 
L 891.109331 411.847096 
L 892.136132 169.921774 
L 893.15951 411.847096 
L 894.179476 169.921774 
L 895.196043 411.847096 
L 896.209221 169.921774 
L 897.219022 411.847096 
L 898.225457 169.921774 
L 899.228537 411.847096 
L 900.228273 169.921774 
L 901.224677 411.847096 
L 902.21776 169.921774 
L 903.207532 411.847096 
L 904.194005 169.921774 
L 905.17719 411.847096 
L 906.157098 169.921774 
L 907.133739 411.847096 
L 908.107125 169.921774 
L 909.077266 411.847096 
L 910.044173 169.921774 
L 911.007857 411.847096 
L 911.968329 169.921774 
L 912.9256 411.847096 
L 913.879679 169.921774 
L 914.830579 411.847096 
L 915.778308 169.921774 
L 916.722879 411.847096 
L 917.664301 169.921774 
L 918.602585 411.847096 
L 919.537741 169.921774 
L 920.46978 411.847096 
L 921.398712 169.921774 
L 922.324548 411.847096 
L 923.247298 169.921774 
L 924.166972 411.847096 
L 925.08358 169.921774 
L 925.997133 411.847096 
L 926.907641 169.921774 
L 927.815114 411.847096 
L 928.719562 169.921774 
L 929.620995 411.847096 
L 930.519423 169.921774 
L 931.414856 411.847096 
L 932.307305 169.921774 
L 933.196779 411.847096 
L 934.083288 169.921774 
L 934.966842 411.847096 
L 935.847451 169.921774 
L 936.725124 411.847096 
L 937.599872 169.921774 
L 938.471704 411.847096 
L 939.34063 169.921774 
L 940.206659 411.847096 
L 941.069802 169.921774 
L 941.930067 411.847096 
L 942.787465 169.921774 
L 943.642005 411.847096 
L 944.493697 169.921774 
L 945.342549 411.847096 
L 946.188572 169.921774 
L 947.031775 411.847096 
L 947.872168 169.921774 
L 948.709759 411.847096 
L 949.544558 169.921774 
L 950.376574 411.847096 
L 951.205817 169.921774 
L 952.032296 411.847096 
L 952.85602 169.921774 
L 953.676998 411.847096 
L 954.49524 169.921774 
L 955.310754 411.847096 
L 956.123549 169.921774 
L 956.933636 411.847096 
L 957.741022 169.921774 
L 958.545717 411.847096 
L 959.347729 169.921774 
L 960.147068 411.847096 
L 960.943743 169.921774 
L 961.737762 411.847096 
L 962.529134 169.921774 
L 963.317869 411.847096 
L 964.103974 169.921774 
L 964.887459 411.847096 
L 965.668333 169.921774 
L 966.446603 411.847096 
L 967.222279 169.921774 
L 967.99537 411.847096 
L 968.765884 169.921774 
L 969.533829 411.847096 
L 970.299214 169.921774 
L 971.062048 411.847096 
L 971.82234 169.921774 
L 972.580097 411.847096 
L 973.335328 169.921774 
L 974.088042 411.847096 
L 974.838247 169.921774 
L 975.585951 411.847096 
L 976.331163 169.921774 
L 977.07389 411.847096 
L 977.814142 169.921774 
L 978.551927 411.847096 
L 979.287252 169.921774 
L 980.020126 411.847096 
L 980.750557 169.921774 
L 981.478553 411.847096 
L 982.204123 169.921774 
L 982.927274 411.847096 
L 983.648015 169.921774 
L 984.366353 411.847096 
L 985.082297 169.921774 
L 985.795854 411.847096 
L 986.507033 169.921774 
L 987.215841 411.847096 
L 987.922286 169.921774 
L 988.626377 411.847096 
L 989.32812 169.921774 
L 990.027525 411.847096 
L 990.724598 169.921774 
L 991.419348 411.847096 
L 992.111781 169.921774 
L 992.801907 411.847096 
L 993.489732 169.921774 
L 994.175265 411.847096 
L 994.858512 169.921774 
L 995.539482 411.847096 
L 996.218182 169.921774 
L 996.218182 169.921774 
" clip-path="url(#pb647630257)" style="fill: none; stroke: #4c72b0; stroke-width: 1.5; stroke-linecap: round"/>
   </g>
   <g id="line2d_14">
    <path d="M 184.581818 89.28 
L 996.218182 492.48 
L 996.218182 492.48 
" clip-path="url(#pb647630257)" style="fill: none; stroke: #dd8452; stroke-width: 1.5; stroke-linecap: round"/>
   </g>
   <g id="line2d_15"/>
   <g id="line2d_16"/>
   <g id="patch_3">
    <path d="M 144 512.64 
L 144 69.12 
" style="fill: none; stroke: #ffffff; stroke-width: 1.25; stroke-linejoin: miter; stroke-linecap: square"/>
   </g>
   <g id="patch_4">
    <path d="M 1036.8 512.64 
L 1036.8 69.12 
" style="fill: none; stroke: #ffffff; stroke-width: 1.25; stroke-linejoin: miter; stroke-linecap: square"/>
   </g>
   <g id="patch_5">
    <path d="M 144 512.64 
L 1036.8 512.64 
" style="fill: none; stroke: #ffffff; stroke-width: 1.25; stroke-linejoin: miter; stroke-linecap: square"/>
   </g>
   <g id="patch_6">
    <path d="M 144 69.12 
L 1036.8 69.12 
" style="fill: none; stroke: #ffffff; stroke-width: 1.25; stroke-linejoin: miter; stroke-linecap: square"/>
   </g>
   <g id="legend_1">
    <g id="patch_7">
     <path d="M 965.418125 127.325625 
L 1029.1 127.325625 
Q 1031.3 127.325625 1031.3 125.125625 
L 1031.3 76.82 
Q 1031.3 74.62 1029.1 74.62 
L 965.418125 74.62 
Q 963.218125 74.62 963.218125 76.82 
L 963.218125 125.125625 
Q 963.218125 127.325625 965.418125 127.325625 
z
" style="fill: #eaeaf2; opacity: 0.8; stroke: #cccccc; stroke-linejoin: miter"/>
    </g>
    <g id="text_15">
     <!-- SoC - SoH -->
     <g style="fill: #262626" transform="translate(967.618125 88.138125) scale(0.12 -0.12)">
      <defs>
       <path id="DejaVuSans-53" d="M 3425 4513 
L 3425 3897 
Q 3066 4069 2747 4153 
Q 2428 4238 2131 4238 
Q 1616 4238 1336 4038 
Q 1056 3838 1056 3469 
Q 1056 3159 1242 3001 
Q 1428 2844 1947 2747 
L 2328 2669 
Q 3034 2534 3370 2195 
Q 3706 1856 3706 1288 
Q 3706 609 3251 259 
Q 2797 -91 1919 -91 
Q 1588 -91 1214 -16 
Q 841 59 441 206 
L 441 856 
Q 825 641 1194 531 
Q 1563 422 1919 422 
Q 2459 422 2753 634 
Q 3047 847 3047 1241 
Q 3047 1584 2836 1778 
Q 2625 1972 2144 2069 
L 1759 2144 
Q 1053 2284 737 2584 
Q 422 2884 422 3419 
Q 422 4038 858 4394 
Q 1294 4750 2059 4750 
Q 2388 4750 2728 4690 
Q 3069 4631 3425 4513 
z
" transform="scale(0.015625)"/>
       <path id="DejaVuSans-6f" d="M 1959 3097 
Q 1497 3097 1228 2736 
Q 959 2375 959 1747 
Q 959 1119 1226 758 
Q 1494 397 1959 397 
Q 2419 397 2687 759 
Q 2956 1122 2956 1747 
Q 2956 2369 2687 2733 
Q 2419 3097 1959 3097 
z
M 1959 3584 
Q 2709 3584 3137 3096 
Q 3566 2609 3566 1747 
Q 3566 888 3137 398 
Q 2709 -91 1959 -91 
Q 1206 -91 779 398 
Q 353 888 353 1747 
Q 353 2609 779 3096 
Q 1206 3584 1959 3584 
z
" transform="scale(0.015625)"/>
       <path id="DejaVuSans-43" d="M 4122 4306 
L 4122 3641 
Q 3803 3938 3442 4084 
Q 3081 4231 2675 4231 
Q 1875 4231 1450 3742 
Q 1025 3253 1025 2328 
Q 1025 1406 1450 917 
Q 1875 428 2675 428 
Q 3081 428 3442 575 
Q 3803 722 4122 1019 
L 4122 359 
Q 3791 134 3420 21 
Q 3050 -91 2638 -91 
Q 1578 -91 968 557 
Q 359 1206 359 2328 
Q 359 3453 968 4101 
Q 1578 4750 2638 4750 
Q 3056 4750 3426 4639 
Q 3797 4528 4122 4306 
z
" transform="scale(0.015625)"/>
       <path id="DejaVuSans-20" transform="scale(0.015625)"/>
       <path id="DejaVuSans-2d" d="M 313 2009 
L 1997 2009 
L 1997 1497 
L 313 1497 
L 313 2009 
z
" transform="scale(0.015625)"/>
       <path id="DejaVuSans-48" d="M 628 4666 
L 1259 4666 
L 1259 2753 
L 3553 2753 
L 3553 4666 
L 4184 4666 
L 4184 0 
L 3553 0 
L 3553 2222 
L 1259 2222 
L 1259 0 
L 628 0 
L 628 4666 
z
" transform="scale(0.015625)"/>
      </defs>
      <use xlink:href="#DejaVuSans-53"/>
      <use xlink:href="#DejaVuSans-6f" x="63.476562"/>
      <use xlink:href="#DejaVuSans-43" x="124.658203"/>
      <use xlink:href="#DejaVuSans-20" x="194.482422"/>
      <use xlink:href="#DejaVuSans-2d" x="226.269531"/>
      <use xlink:href="#DejaVuSans-20" x="262.353516"/>
      <use xlink:href="#DejaVuSans-53" x="294.140625"/>
      <use xlink:href="#DejaVuSans-6f" x="357.617188"/>
      <use xlink:href="#DejaVuSans-48" x="418.798828"/>
     </g>
    </g>
    <g id="line2d_17">
     <path d="M 970.865937 100.642031 
L 981.865937 100.642031 
L 992.865937 100.642031 
" style="fill: none; stroke: #4c72b0; stroke-width: 1.5; stroke-linecap: round"/>
    </g>
    <g id="text_16">
     <!-- SoC -->
     <g style="fill: #262626" transform="translate(1001.665937 104.492031) scale(0.11 -0.11)">
      <use xlink:href="#DejaVuSans-53"/>
      <use xlink:href="#DejaVuSans-6f" x="63.476562"/>
      <use xlink:href="#DejaVuSans-43" x="124.658203"/>
     </g>
    </g>
    <g id="line2d_18">
     <path d="M 970.865937 116.787969 
L 981.865937 116.787969 
L 992.865937 116.787969 
" style="fill: none; stroke: #dd8452; stroke-width: 1.5; stroke-linecap: round"/>
    </g>
    <g id="text_17">
     <!-- SoH -->
     <g style="fill: #262626" transform="translate(1001.665937 120.637969) scale(0.11 -0.11)">
      <use xlink:href="#DejaVuSans-53"/>
      <use xlink:href="#DejaVuSans-6f" x="63.476562"/>
      <use xlink:href="#DejaVuSans-48" x="124.658203"/>
     </g>
    </g>
   </g>
  </g>
 </g>
 <defs>
  <clipPath id="pb647630257">
   <rect x="144" y="69.12" width="892.8" height="443.52"/>
  </clipPath>
 </defs>
</svg>
