<?xml version="1.0" encoding="utf-8" standalone="no"?>
<!DOCTYPE svg PUBLIC "-//W3C//DTD SVG 1.1//EN"
  "http://www.w3.org/Graphics/SVG/1.1/DTD/svg11.dtd">
<svg xmlns:xlink="http://www.w3.org/1999/xlink" width="1152pt" height="576pt" viewBox="0 0 1152 576" xmlns="http://www.w3.org/2000/svg" version="1.1">
 <metadata>
  <rdf:RDF xmlns:dc="http://purl.org/dc/elements/1.1/" xmlns:cc="http://creativecommons.org/ns#" xmlns:rdf="http://www.w3.org/1999/02/22-rdf-syntax-ns#">
   <cc:Work>
    <dc:type rdf:resource="http://purl.org/dc/dcmitype/StillImage"/>
    <dc:date>2023-07-13T14:07:53.987014</dc:date>
    <dc:format>image/svg+xml</dc:format>
    <dc:creator>
     <cc:Agent>
      <dc:title>Matplotlib v3.7.1, https://matplotlib.org/</dc:title>
     </cc:Agent>
    </dc:creator>
   </cc:Work>
  </rdf:RDF>
 </metadata>
 <defs>
  <style type="text/css">*{stroke-linejoin: round; stroke-linecap: butt}</style>
 </defs>
 <g id="figure_1">
  <g id="patch_1">
   <path d="M 0 576 
L 1152 576 
L 1152 0 
L 0 0 
z
" style="fill: #ffffff"/>
  </g>
  <g id="axes_1">
   <g id="patch_2">
    <path d="M 144 512.64 
L 1036.8 512.64 
L 1036.8 69.12 
L 144 69.12 
z
" style="fill: #eaeaf2"/>
   </g>
   <g id="matplotlib.axis_1">
    <g id="xtick_1">
     <g id="line2d_1">
      <path d="M 182.150041 512.64 
L 182.150041 69.12 
" clip-path="url(#pc407524690)" style="fill: none; stroke: #ffffff; stroke-linecap: round"/>
     </g>
     <g id="text_1">
      <!-- 0 -->
      <g style="fill: #262626" transform="translate(178.650666 530.498281) scale(0.11 -0.11)">
       <defs>
        <path id="DejaVuSans-30" d="M 2034 4250 
Q 1547 4250 1301 3770 
Q 1056 3291 1056 2328 
Q 1056 1369 1301 889 
Q 1547 409 2034 409 
Q 2525 409 2770 889 
Q 3016 1369 3016 2328 
Q 3016 3291 2770 3770 
Q 2525 4250 2034 4250 
z
M 2034 4750 
Q 2819 4750 3233 4129 
Q 3647 3509 3647 2328 
Q 3647 1150 3233 529 
Q 2819 -91 2034 -91 
Q 1250 -91 836 529 
Q 422 1150 422 2328 
Q 422 3509 836 4129 
Q 1250 4750 2034 4750 
z
" transform="scale(0.015625)"/>
       </defs>
       <use xlink:href="#DejaVuSans-30"/>
      </g>
     </g>
    </g>
    <g id="xtick_2">
     <g id="line2d_2">
      <path d="M 307.116388 512.64 
L 307.116388 69.12 
" clip-path="url(#pc407524690)" style="fill: none; stroke: #ffffff; stroke-linecap: round"/>
     </g>
     <g id="text_2">
      <!-- 10000 -->
      <g style="fill: #262626" transform="translate(289.619513 530.498281) scale(0.11 -0.11)">
       <defs>
        <path id="DejaVuSans-31" d="M 794 531 
L 1825 531 
L 1825 4091 
L 703 3866 
L 703 4441 
L 1819 4666 
L 2450 4666 
L 2450 531 
L 3481 531 
L 3481 0 
L 794 0 
L 794 531 
z
" transform="scale(0.015625)"/>
       </defs>
       <use xlink:href="#DejaVuSans-31"/>
       <use xlink:href="#DejaVuSans-30" x="63.623047"/>
       <use xlink:href="#DejaVuSans-30" x="127.246094"/>
       <use xlink:href="#DejaVuSans-30" x="190.869141"/>
       <use xlink:href="#DejaVuSans-30" x="254.492188"/>
      </g>
     </g>
    </g>
    <g id="xtick_3">
     <g id="line2d_3">
      <path d="M 432.082736 512.64 
L 432.082736 69.12 
" clip-path="url(#pc407524690)" style="fill: none; stroke: #ffffff; stroke-linecap: round"/>
     </g>
     <g id="text_3">
      <!-- 20000 -->
      <g style="fill: #262626" transform="translate(414.585861 530.498281) scale(0.11 -0.11)">
       <defs>
        <path id="DejaVuSans-32" d="M 1228 531 
L 3431 531 
L 3431 0 
L 469 0 
L 469 531 
Q 828 903 1448 1529 
Q 2069 2156 2228 2338 
Q 2531 2678 2651 2914 
Q 2772 3150 2772 3378 
Q 2772 3750 2511 3984 
Q 2250 4219 1831 4219 
Q 1534 4219 1204 4116 
Q 875 4013 500 3803 
L 500 4441 
Q 881 4594 1212 4672 
Q 1544 4750 1819 4750 
Q 2544 4750 2975 4387 
Q 3406 4025 3406 3419 
Q 3406 3131 3298 2873 
Q 3191 2616 2906 2266 
Q 2828 2175 2409 1742 
Q 1991 1309 1228 531 
z
" transform="scale(0.015625)"/>
       </defs>
       <use xlink:href="#DejaVuSans-32"/>
       <use xlink:href="#DejaVuSans-30" x="63.623047"/>
       <use xlink:href="#DejaVuSans-30" x="127.246094"/>
       <use xlink:href="#DejaVuSans-30" x="190.869141"/>
       <use xlink:href="#DejaVuSans-30" x="254.492188"/>
      </g>
     </g>
    </g>
    <g id="xtick_4">
     <g id="line2d_4">
      <path d="M 557.049084 512.64 
L 557.049084 69.12 
" clip-path="url(#pc407524690)" style="fill: none; stroke: #ffffff; stroke-linecap: round"/>
     </g>
     <g id="text_4">
      <!-- 30000 -->
      <g style="fill: #262626" transform="translate(539.552209 530.498281) scale(0.11 -0.11)">
       <defs>
        <path id="DejaVuSans-33" d="M 2597 2516 
Q 3050 2419 3304 2112 
Q 3559 1806 3559 1356 
Q 3559 666 3084 287 
Q 2609 -91 1734 -91 
Q 1441 -91 1130 -33 
Q 819 25 488 141 
L 488 750 
Q 750 597 1062 519 
Q 1375 441 1716 441 
Q 2309 441 2620 675 
Q 2931 909 2931 1356 
Q 2931 1769 2642 2001 
Q 2353 2234 1838 2234 
L 1294 2234 
L 1294 2753 
L 1863 2753 
Q 2328 2753 2575 2939 
Q 2822 3125 2822 3475 
Q 2822 3834 2567 4026 
Q 2313 4219 1838 4219 
Q 1578 4219 1281 4162 
Q 984 4106 628 3988 
L 628 4550 
Q 988 4650 1302 4700 
Q 1616 4750 1894 4750 
Q 2613 4750 3031 4423 
Q 3450 4097 3450 3541 
Q 3450 3153 3228 2886 
Q 3006 2619 2597 2516 
z
" transform="scale(0.015625)"/>
       </defs>
       <use xlink:href="#DejaVuSans-33"/>
       <use xlink:href="#DejaVuSans-30" x="63.623047"/>
       <use xlink:href="#DejaVuSans-30" x="127.246094"/>
       <use xlink:href="#DejaVuSans-30" x="190.869141"/>
       <use xlink:href="#DejaVuSans-30" x="254.492188"/>
      </g>
     </g>
    </g>
    <g id="xtick_5">
     <g id="line2d_5">
      <path d="M 682.015432 512.64 
L 682.015432 69.12 
" clip-path="url(#pc407524690)" style="fill: none; stroke: #ffffff; stroke-linecap: round"/>
     </g>
     <g id="text_5">
      <!-- 40000 -->
      <g style="fill: #262626" transform="translate(664.518557 530.498281) scale(0.11 -0.11)">
       <defs>
        <path id="DejaVuSans-34" d="M 2419 4116 
L 825 1625 
L 2419 1625 
L 2419 4116 
z
M 2253 4666 
L 3047 4666 
L 3047 1625 
L 3713 1625 
L 3713 1100 
L 3047 1100 
L 3047 0 
L 2419 0 
L 2419 1100 
L 313 1100 
L 313 1709 
L 2253 4666 
z
" transform="scale(0.015625)"/>
       </defs>
       <use xlink:href="#DejaVuSans-34"/>
       <use xlink:href="#DejaVuSans-30" x="63.623047"/>
       <use xlink:href="#DejaVuSans-30" x="127.246094"/>
       <use xlink:href="#DejaVuSans-30" x="190.869141"/>
       <use xlink:href="#DejaVuSans-30" x="254.492188"/>
      </g>
     </g>
    </g>
    <g id="xtick_6">
     <g id="line2d_6">
      <path d="M 806.98178 512.64 
L 806.98178 69.12 
" clip-path="url(#pc407524690)" style="fill: none; stroke: #ffffff; stroke-linecap: round"/>
     </g>
     <g id="text_6">
      <!-- 50000 -->
      <g style="fill: #262626" transform="translate(789.484905 530.498281) scale(0.11 -0.11)">
       <defs>
        <path id="DejaVuSans-35" d="M 691 4666 
L 3169 4666 
L 3169 4134 
L 1269 4134 
L 1269 2991 
Q 1406 3038 1543 3061 
Q 1681 3084 1819 3084 
Q 2600 3084 3056 2656 
Q 3513 2228 3513 1497 
Q 3513 744 3044 326 
Q 2575 -91 1722 -91 
Q 1428 -91 1123 -41 
Q 819 9 494 109 
L 494 744 
Q 775 591 1075 516 
Q 1375 441 1709 441 
Q 2250 441 2565 725 
Q 2881 1009 2881 1497 
Q 2881 1984 2565 2268 
Q 2250 2553 1709 2553 
Q 1456 2553 1204 2497 
Q 953 2441 691 2322 
L 691 4666 
z
" transform="scale(0.015625)"/>
       </defs>
       <use xlink:href="#DejaVuSans-35"/>
       <use xlink:href="#DejaVuSans-30" x="63.623047"/>
       <use xlink:href="#DejaVuSans-30" x="127.246094"/>
       <use xlink:href="#DejaVuSans-30" x="190.869141"/>
       <use xlink:href="#DejaVuSans-30" x="254.492188"/>
      </g>
     </g>
    </g>
    <g id="xtick_7">
     <g id="line2d_7">
      <path d="M 931.948127 512.64 
L 931.948127 69.12 
" clip-path="url(#pc407524690)" style="fill: none; stroke: #ffffff; stroke-linecap: round"/>
     </g>
     <g id="text_7">
      <!-- 60000 -->
      <g style="fill: #262626" transform="translate(914.451252 530.498281) scale(0.11 -0.11)">
       <defs>
        <path id="DejaVuSans-36" d="M 2113 2584 
Q 1688 2584 1439 2293 
Q 1191 2003 1191 1497 
Q 1191 994 1439 701 
Q 1688 409 2113 409 
Q 2538 409 2786 701 
Q 3034 994 3034 1497 
Q 3034 2003 2786 2293 
Q 2538 2584 2113 2584 
z
M 3366 4563 
L 3366 3988 
Q 3128 4100 2886 4159 
Q 2644 4219 2406 4219 
Q 1781 4219 1451 3797 
Q 1122 3375 1075 2522 
Q 1259 2794 1537 2939 
Q 1816 3084 2150 3084 
Q 2853 3084 3261 2657 
Q 3669 2231 3669 1497 
Q 3669 778 3244 343 
Q 2819 -91 2113 -91 
Q 1303 -91 875 529 
Q 447 1150 447 2328 
Q 447 3434 972 4092 
Q 1497 4750 2381 4750 
Q 2619 4750 2861 4703 
Q 3103 4656 3366 4563 
z
" transform="scale(0.015625)"/>
       </defs>
       <use xlink:href="#DejaVuSans-36"/>
       <use xlink:href="#DejaVuSans-30" x="63.623047"/>
       <use xlink:href="#DejaVuSans-30" x="127.246094"/>
       <use xlink:href="#DejaVuSans-30" x="190.869141"/>
       <use xlink:href="#DejaVuSans-30" x="254.492188"/>
      </g>
     </g>
    </g>
    <g id="text_8">
     <!-- Time -->
     <g style="fill: #262626" transform="translate(575.719687 545.904063) scale(0.12 -0.12)">
      <defs>
       <path id="DejaVuSans-54" d="M -19 4666 
L 3928 4666 
L 3928 4134 
L 2272 4134 
L 2272 0 
L 1638 0 
L 1638 4134 
L -19 4134 
L -19 4666 
z
" transform="scale(0.015625)"/>
       <path id="DejaVuSans-69" d="M 603 3500 
L 1178 3500 
L 1178 0 
L 603 0 
L 603 3500 
z
M 603 4863 
L 1178 4863 
L 1178 4134 
L 603 4134 
L 603 4863 
z
" transform="scale(0.015625)"/>
       <path id="DejaVuSans-6d" d="M 3328 2828 
Q 3544 3216 3844 3400 
Q 4144 3584 4550 3584 
Q 5097 3584 5394 3201 
Q 5691 2819 5691 2113 
L 5691 0 
L 5113 0 
L 5113 2094 
Q 5113 2597 4934 2840 
Q 4756 3084 4391 3084 
Q 3944 3084 3684 2787 
Q 3425 2491 3425 1978 
L 3425 0 
L 2847 0 
L 2847 2094 
Q 2847 2600 2669 2842 
Q 2491 3084 2119 3084 
Q 1678 3084 1418 2786 
Q 1159 2488 1159 1978 
L 1159 0 
L 581 0 
L 581 3500 
L 1159 3500 
L 1159 2956 
Q 1356 3278 1631 3431 
Q 1906 3584 2284 3584 
Q 2666 3584 2933 3390 
Q 3200 3197 3328 2828 
z
" transform="scale(0.015625)"/>
       <path id="DejaVuSans-65" d="M 3597 1894 
L 3597 1613 
L 953 1613 
Q 991 1019 1311 708 
Q 1631 397 2203 397 
Q 2534 397 2845 478 
Q 3156 559 3463 722 
L 3463 178 
Q 3153 47 2828 -22 
Q 2503 -91 2169 -91 
Q 1331 -91 842 396 
Q 353 884 353 1716 
Q 353 2575 817 3079 
Q 1281 3584 2069 3584 
Q 2775 3584 3186 3129 
Q 3597 2675 3597 1894 
z
M 3022 2063 
Q 3016 2534 2758 2815 
Q 2500 3097 2075 3097 
Q 1594 3097 1305 2825 
Q 1016 2553 972 2059 
L 3022 2063 
z
" transform="scale(0.015625)"/>
      </defs>
      <use xlink:href="#DejaVuSans-54"/>
      <use xlink:href="#DejaVuSans-69" x="57.958984"/>
      <use xlink:href="#DejaVuSans-6d" x="85.742188"/>
      <use xlink:href="#DejaVuSans-65" x="183.154297"/>
     </g>
    </g>
   </g>
   <g id="matplotlib.axis_2">
    <g id="ytick_1">
     <g id="line2d_8">
      <path d="M 144 447.472913 
L 1036.8 447.472913 
" clip-path="url(#pc407524690)" style="fill: none; stroke: #ffffff; stroke-linecap: round"/>
     </g>
     <g id="text_9">
      <!-- 0.2 -->
      <g style="fill: #262626" transform="translate(117.006563 451.652054) scale(0.11 -0.11)">
       <defs>
        <path id="DejaVuSans-2e" d="M 684 794 
L 1344 794 
L 1344 0 
L 684 0 
L 684 794 
z
" transform="scale(0.015625)"/>
       </defs>
       <use xlink:href="#DejaVuSans-30"/>
       <use xlink:href="#DejaVuSans-2e" x="63.623047"/>
       <use xlink:href="#DejaVuSans-32" x="95.410156"/>
      </g>
     </g>
    </g>
    <g id="ytick_2">
     <g id="line2d_9">
      <path d="M 144 357.587277 
L 1036.8 357.587277 
" clip-path="url(#pc407524690)" style="fill: none; stroke: #ffffff; stroke-linecap: round"/>
     </g>
     <g id="text_10">
      <!-- 0.4 -->
      <g style="fill: #262626" transform="translate(117.006563 361.766418) scale(0.11 -0.11)">
       <use xlink:href="#DejaVuSans-30"/>
       <use xlink:href="#DejaVuSans-2e" x="63.623047"/>
       <use xlink:href="#DejaVuSans-34" x="95.410156"/>
      </g>
     </g>
    </g>
    <g id="ytick_3">
     <g id="line2d_10">
      <path d="M 144 267.70164 
L 1036.8 267.70164 
" clip-path="url(#pc407524690)" style="fill: none; stroke: #ffffff; stroke-linecap: round"/>
     </g>
     <g id="text_11">
      <!-- 0.6 -->
      <g style="fill: #262626" transform="translate(117.006563 271.880781) scale(0.11 -0.11)">
       <use xlink:href="#DejaVuSans-30"/>
       <use xlink:href="#DejaVuSans-2e" x="63.623047"/>
       <use xlink:href="#DejaVuSans-36" x="95.410156"/>
      </g>
     </g>
    </g>
    <g id="ytick_4">
     <g id="line2d_11">
      <path d="M 144 177.816004 
L 1036.8 177.816004 
" clip-path="url(#pc407524690)" style="fill: none; stroke: #ffffff; stroke-linecap: round"/>
     </g>
     <g id="text_12">
      <!-- 0.8 -->
      <g style="fill: #262626" transform="translate(117.006563 181.995144) scale(0.11 -0.11)">
       <defs>
        <path id="DejaVuSans-38" d="M 2034 2216 
Q 1584 2216 1326 1975 
Q 1069 1734 1069 1313 
Q 1069 891 1326 650 
Q 1584 409 2034 409 
Q 2484 409 2743 651 
Q 3003 894 3003 1313 
Q 3003 1734 2745 1975 
Q 2488 2216 2034 2216 
z
M 1403 2484 
Q 997 2584 770 2862 
Q 544 3141 544 3541 
Q 544 4100 942 4425 
Q 1341 4750 2034 4750 
Q 2731 4750 3128 4425 
Q 3525 4100 3525 3541 
Q 3525 3141 3298 2862 
Q 3072 2584 2669 2484 
Q 3125 2378 3379 2068 
Q 3634 1759 3634 1313 
Q 3634 634 3220 271 
Q 2806 -91 2034 -91 
Q 1263 -91 848 271 
Q 434 634 434 1313 
Q 434 1759 690 2068 
Q 947 2378 1403 2484 
z
M 1172 3481 
Q 1172 3119 1398 2916 
Q 1625 2713 2034 2713 
Q 2441 2713 2670 2916 
Q 2900 3119 2900 3481 
Q 2900 3844 2670 4047 
Q 2441 4250 2034 4250 
Q 1625 4250 1398 4047 
Q 1172 3844 1172 3481 
z
" transform="scale(0.015625)"/>
       </defs>
       <use xlink:href="#DejaVuSans-30"/>
       <use xlink:href="#DejaVuSans-2e" x="63.623047"/>
       <use xlink:href="#DejaVuSans-38" x="95.410156"/>
      </g>
     </g>
    </g>
    <g id="ytick_5">
     <g id="line2d_12">
      <path d="M 144 87.930367 
L 1036.8 87.930367 
" clip-path="url(#pc407524690)" style="fill: none; stroke: #ffffff; stroke-linecap: round"/>
     </g>
     <g id="text_13">
      <!-- 1.0 -->
      <g style="fill: #262626" transform="translate(117.006563 92.109508) scale(0.11 -0.11)">
       <use xlink:href="#DejaVuSans-31"/>
       <use xlink:href="#DejaVuSans-2e" x="63.623047"/>
       <use xlink:href="#DejaVuSans-30" x="95.410156"/>
      </g>
     </g>
    </g>
    <g id="text_14">
     <!-- Value -->
     <g style="fill: #262626" transform="translate(110.510937 307.3575) rotate(-90) scale(0.12 -0.12)">
      <defs>
       <path id="DejaVuSans-56" d="M 1831 0 
L 50 4666 
L 709 4666 
L 2188 738 
L 3669 4666 
L 4325 4666 
L 2547 0 
L 1831 0 
z
" transform="scale(0.015625)"/>
       <path id="DejaVuSans-61" d="M 2194 1759 
Q 1497 1759 1228 1600 
Q 959 1441 959 1056 
Q 959 750 1161 570 
Q 1363 391 1709 391 
Q 2188 391 2477 730 
Q 2766 1069 2766 1631 
L 2766 1759 
L 2194 1759 
z
M 3341 1997 
L 3341 0 
L 2766 0 
L 2766 531 
Q 2569 213 2275 61 
Q 1981 -91 1556 -91 
Q 1019 -91 701 211 
Q 384 513 384 1019 
Q 384 1609 779 1909 
Q 1175 2209 1959 2209 
L 2766 2209 
L 2766 2266 
Q 2766 2663 2505 2880 
Q 2244 3097 1772 3097 
Q 1472 3097 1187 3025 
Q 903 2953 641 2809 
L 641 3341 
Q 956 3463 1253 3523 
Q 1550 3584 1831 3584 
Q 2591 3584 2966 3190 
Q 3341 2797 3341 1997 
z
" transform="scale(0.015625)"/>
       <path id="DejaVuSans-6c" d="M 603 4863 
L 1178 4863 
L 1178 0 
L 603 0 
L 603 4863 
z
" transform="scale(0.015625)"/>
       <path id="DejaVuSans-75" d="M 544 1381 
L 544 3500 
L 1119 3500 
L 1119 1403 
Q 1119 906 1312 657 
Q 1506 409 1894 409 
Q 2359 409 2629 706 
Q 2900 1003 2900 1516 
L 2900 3500 
L 3475 3500 
L 3475 0 
L 2900 0 
L 2900 538 
Q 2691 219 2414 64 
Q 2138 -91 1772 -91 
Q 1169 -91 856 284 
Q 544 659 544 1381 
z
M 1991 3584 
L 1991 3584 
z
" transform="scale(0.015625)"/>
      </defs>
      <use xlink:href="#DejaVuSans-56"/>
      <use xlink:href="#DejaVuSans-61" x="60.658203"/>
      <use xlink:href="#DejaVuSans-6c" x="121.9375"/>
      <use xlink:href="#DejaVuSans-75" x="149.720703"/>
      <use xlink:href="#DejaVuSans-65" x="213.099609"/>
     </g>
    </g>
   </g>
   <g id="PolyCollection_1"/>
   <g id="PolyCollection_2"/>
   <g id="line2d_13">
    <path d="M 184.581818 447.472913 
L 187.560091 177.816004 
L 189.977321 447.472913 
L 192.937778 177.816004 
L 195.340548 447.472913 
L 198.283295 177.816004 
L 200.671692 447.472913 
L 203.596835 177.816004 
L 205.970944 447.472913 
L 208.878589 177.816004 
L 211.238496 447.472913 
L 214.128747 177.816004 
L 216.474537 447.472913 
L 219.347498 177.816004 
L 221.679255 447.472913 
L 224.53503 177.816004 
L 226.852839 447.472913 
L 229.69153 177.816004 
L 231.995473 447.472913 
L 234.817183 177.816004 
L 237.107344 447.472913 
L 239.912175 177.816004 
L 242.188636 447.472913 
L 244.976687 177.816004 
L 247.23953 447.472913 
L 250.010904 177.816004 
L 252.26021 447.472913 
L 255.015005 177.816004 
L 257.250856 447.472913 
L 259.989171 177.816004 
L 262.211647 447.472913 
L 264.933582 177.816004 
L 267.142763 447.472913 
L 269.848415 177.816004 
L 272.04438 447.472913 
L 274.733846 177.816004 
L 276.916675 447.472913 
L 279.590053 177.816004 
L 281.759824 447.472913 
L 284.41721 177.816004 
L 286.574001 447.472913 
L 289.21549 177.816004 
L 291.359379 447.472913 
L 293.985066 177.816004 
L 296.11613 447.472913 
L 298.726111 177.816004 
L 300.844427 447.472913 
L 303.438794 177.816004 
L 305.544438 447.472913 
L 308.123285 177.816004 
L 310.216333 447.472913 
L 312.779754 177.816004 
L 314.860281 447.472913 
L 317.408367 177.816004 
L 319.476448 447.472913 
L 322.009291 177.816004 
L 324.065001 447.472913 
L 326.582693 177.816004 
L 328.626105 447.472913 
L 331.128736 177.816004 
L 333.159924 447.472913 
L 335.647584 177.816004 
L 337.666622 447.472913 
L 340.1394 177.816004 
L 342.14636 447.472913 
L 344.604345 177.816004 
L 346.5993 447.472913 
L 349.042581 177.816004 
L 351.025602 447.472913 
L 353.454267 177.816004 
L 355.425425 447.472913 
L 357.839562 177.816004 
L 359.798929 447.472913 
L 362.198624 177.816004 
L 364.146269 447.472913 
L 366.53161 177.816004 
L 368.467604 447.472913 
L 370.838675 177.816004 
L 372.763088 447.472913 
L 375.119976 177.816004 
L 377.032876 447.472913 
L 379.375665 177.816004 
L 381.277122 447.472913 
L 383.605896 177.816004 
L 385.495979 447.472913 
L 387.810822 177.816004 
L 389.689598 447.472913 
L 391.990593 177.816004 
L 393.85813 447.472913 
L 396.145361 177.816004 
L 398.001726 447.472913 
L 400.275274 177.816004 
L 402.120535 447.472913 
L 404.380483 177.816004 
L 406.214705 447.472913 
L 408.461133 177.816004 
L 410.284383 447.472913 
L 412.517373 177.816004 
L 414.329716 447.472913 
L 416.549348 177.816004 
L 418.350849 447.472913 
L 420.557203 177.816004 
L 422.347928 447.472913 
L 424.541083 177.816004 
L 426.321096 447.472913 
L 428.501131 177.816004 
L 430.270496 447.472913 
L 432.43749 177.816004 
L 434.19627 447.472913 
L 436.350302 177.816004 
L 438.09856 447.472913 
L 440.239706 177.816004 
L 441.977506 447.472913 
L 444.105844 177.816004 
L 445.833249 447.472913 
L 447.948854 177.816004 
L 449.665925 447.472913 
L 451.768875 177.816004 
L 453.475675 447.472913 
L 455.566045 177.816004 
L 457.262634 447.472913 
L 459.340499 177.816004 
L 461.026939 447.472913 
L 463.092375 177.816004 
L 464.768726 447.472913 
L 466.821806 177.816004 
L 468.48813 447.472913 
L 470.528928 177.816004 
L 472.185283 447.472913 
L 474.213873 177.816004 
L 475.86032 447.472913 
L 477.876775 177.816004 
L 479.513373 447.472913 
L 481.517765 177.816004 
L 483.144572 447.472913 
L 485.136974 177.816004 
L 486.75405 447.472913 
L 488.734533 177.816004 
L 490.341935 447.472913 
L 492.310571 177.816004 
L 493.908358 447.472913 
L 495.865217 177.816004 
L 497.453446 447.472913 
L 499.398598 177.816004 
L 500.977326 447.472913 
L 502.910843 177.816004 
L 504.480127 447.472913 
L 506.402077 177.816004 
L 507.961974 447.472913 
L 509.872427 177.816004 
L 511.422992 447.472913 
L 513.322016 177.816004 
L 514.863305 447.472913 
L 516.75097 177.816004 
L 518.283039 447.472913 
L 520.159411 177.816004 
L 521.682316 447.472913 
L 523.547463 177.816004 
L 525.061257 447.472913 
L 526.915248 177.816004 
L 528.419986 447.472913 
L 530.262886 177.816004 
L 531.758623 447.472913 
L 533.590498 177.816004 
L 535.077287 447.472913 
L 536.898204 177.816004 
L 538.376099 447.472913 
L 540.186123 177.816004 
L 541.655178 447.472913 
L 543.454374 177.816004 
L 544.91464 447.472913 
L 546.703073 177.816004 
L 548.154604 447.472913 
L 549.932339 177.816004 
L 551.375187 447.472913 
L 553.142287 177.816004 
L 554.576504 447.472913 
L 556.333033 177.816004 
L 557.75867 447.472913 
L 559.504691 177.816004 
L 560.9218 447.472913 
L 562.657377 177.816004 
L 564.066008 447.472913 
L 565.791203 177.816004 
L 567.191408 447.472913 
L 568.906282 177.816004 
L 570.29811 447.472913 
L 572.002726 177.816004 
L 573.386229 447.472913 
L 575.080647 177.816004 
L 576.455874 447.472913 
L 578.140156 177.816004 
L 579.507156 447.472913 
L 581.181363 177.816004 
L 582.540185 447.472913 
L 584.204376 177.816004 
L 585.55507 447.472913 
L 587.209306 177.816004 
L 588.55192 447.472913 
L 590.196261 177.816004 
L 591.530843 447.472913 
L 593.165347 177.816004 
L 594.491945 447.472913 
L 596.116672 177.816004 
L 597.435334 447.472913 
L 599.050341 177.816004 
L 600.361116 447.472913 
L 601.966461 177.816004 
L 603.269395 447.472913 
L 604.865137 177.816004 
L 606.160276 447.472913 
L 607.746473 177.816004 
L 609.033864 447.472913 
L 610.610572 177.816004 
L 611.890263 447.472913 
L 613.457538 177.816004 
L 614.729573 447.472913 
L 616.287474 177.816004 
L 617.551899 447.472913 
L 619.10048 177.816004 
L 620.357342 447.472913 
L 621.896659 177.816004 
L 623.146002 447.472913 
L 624.676111 177.816004 
L 625.91798 447.472913 
L 627.438936 177.816004 
L 628.673376 447.472913 
L 630.185233 177.816004 
L 631.412289 447.472913 
L 632.915102 177.816004 
L 634.134818 447.472913 
L 635.628641 177.816004 
L 636.84106 447.472913 
L 638.325947 177.816004 
L 639.531113 447.472913 
L 641.007117 177.816004 
L 642.205074 447.472913 
L 643.672249 177.816004 
L 644.863039 447.472913 
L 646.321437 177.816004 
L 647.505105 447.472913 
L 648.954778 177.816004 
L 650.131365 447.472913 
L 651.572366 177.816004 
L 652.741914 447.472913 
L 654.174296 177.816004 
L 655.336847 447.472913 
L 656.76066 177.816004 
L 657.916257 447.472913 
L 659.331553 177.816004 
L 660.480237 447.472913 
L 661.887066 177.816004 
L 663.028879 447.472913 
L 664.427292 177.816004 
L 665.562275 447.472913 
L 666.952323 177.816004 
L 668.080515 447.472913 
L 669.462248 177.816004 
L 670.583692 447.472913 
L 671.957159 177.816004 
L 673.071894 447.472913 
L 674.437145 177.816004 
L 675.545212 447.472913 
L 676.902295 177.816004 
L 678.003734 447.472913 
L 679.352699 177.816004 
L 680.447549 447.472913 
L 681.788444 177.816004 
L 682.876744 447.472913 
L 684.209619 177.816004 
L 685.291409 447.472913 
L 686.61631 177.816004 
L 687.691628 447.472913 
L 689.008604 177.816004 
L 690.077489 447.472913 
L 691.386586 177.816004 
L 692.449078 447.472913 
L 693.750344 177.816004 
L 694.80648 447.472913 
L 696.099962 177.816004 
L 697.149779 447.472913 
L 698.435524 177.816004 
L 699.479061 447.472913 
L 700.757114 177.816004 
L 701.794409 447.472913 
L 703.064816 177.816004 
L 704.095906 447.472913 
L 705.358714 177.816004 
L 706.383636 447.472913 
L 707.638889 177.816004 
L 708.65768 447.472913 
L 709.905424 177.816004 
L 710.918121 447.472913 
L 712.158401 177.816004 
L 713.165039 447.472913 
L 714.3979 177.816004 
L 715.398516 447.472913 
L 716.624002 177.816004 
L 717.618633 447.472913 
L 718.836788 177.816004 
L 719.825468 447.472913 
L 721.036336 177.816004 
L 722.019102 447.472913 
L 723.222727 177.816004 
L 724.199614 447.472913 
L 725.396038 177.816004 
L 726.367082 447.472913 
L 727.556349 177.816004 
L 728.521583 447.472913 
L 729.703736 177.816004 
L 730.663197 447.472913 
L 731.838277 177.816004 
L 732.791998 447.472913 
L 733.96005 177.816004 
L 734.908066 447.472913 
L 736.06913 177.816004 
L 737.011475 447.472913 
L 738.165593 177.816004 
L 739.102301 447.472913 
L 740.249515 177.816004 
L 741.180619 447.472913 
L 742.320971 177.816004 
L 743.246505 447.472913 
L 744.380035 177.816004 
L 745.300033 447.472913 
L 746.426782 177.816004 
L 747.341276 447.472913 
L 748.461285 177.816004 
L 749.370308 447.472913 
L 750.483617 177.816004 
L 751.387203 447.472913 
L 752.493852 177.816004 
L 753.392032 447.472913 
L 754.492061 177.816004 
L 755.384868 447.472913 
L 756.478317 177.816004 
L 757.365783 447.472913 
L 758.452691 177.816004 
L 759.334848 447.472913 
L 760.415254 177.816004 
L 761.292134 447.472913 
L 762.366077 177.816004 
L 763.237711 447.472913 
L 764.305229 177.816004 
L 765.17165 447.472913 
L 766.232782 177.816004 
L 767.09402 447.472913 
L 768.148804 177.816004 
L 769.00489 447.472913 
L 770.053364 177.816004 
L 770.904329 447.472913 
L 771.946531 177.816004 
L 772.792405 447.472913 
L 773.828373 177.816004 
L 774.669187 447.472913 
L 775.698957 177.816004 
L 776.534741 447.472913 
L 777.558352 177.816004 
L 778.389136 447.472913 
L 779.406623 177.816004 
L 780.232438 447.472913 
L 781.243838 177.816004 
L 782.064713 447.472913 
L 783.070063 177.816004 
L 783.886027 447.472913 
L 784.885363 177.816004 
L 785.696446 447.472913 
L 786.689804 177.816004 
L 787.496034 447.472913 
L 788.48345 177.816004 
L 789.284858 447.472913 
L 790.266367 177.816004 
L 791.062981 447.472913 
L 792.038618 177.816004 
L 792.830466 447.472913 
L 793.800267 177.816004 
L 794.587379 447.472913 
L 795.551378 177.816004 
L 796.333781 447.472913 
L 797.292014 177.816004 
L 798.069737 447.472913 
L 799.022237 177.816004 
L 799.795307 447.472913 
L 800.74211 177.816004 
L 801.510556 447.472913 
L 802.451695 177.816004 
L 803.215543 447.472913 
L 804.151052 177.816004 
L 804.910331 447.472913 
L 805.840244 177.816004 
L 806.594981 447.472913 
L 807.519331 177.816004 
L 808.269553 447.472913 
L 809.188374 177.816004 
L 809.934108 447.472913 
L 810.847432 177.816004 
L 811.588705 447.472913 
L 812.496565 177.816004 
L 813.233404 447.472913 
L 814.135834 177.816004 
L 814.868265 447.472913 
L 815.765296 177.816004 
L 816.493346 447.472913 
L 817.385011 177.816004 
L 818.108705 447.472913 
L 818.995036 177.816004 
L 819.714401 447.472913 
L 820.59543 177.816004 
L 821.310492 447.472913 
L 822.18625 177.816004 
L 822.897035 447.472913 
L 823.767554 177.816004 
L 824.474087 447.472913 
L 825.339399 177.816004 
L 826.041704 447.472913 
L 826.90184 177.816004 
L 827.599945 447.472913 
L 828.454935 177.816004 
L 829.148864 447.472913 
L 829.998739 177.816004 
L 830.688517 447.472913 
L 831.533308 177.816004 
L 832.218959 447.472913 
L 833.058697 177.816004 
L 833.740247 447.472913 
L 834.574961 177.816004 
L 835.252434 447.472913 
L 836.082155 177.816004 
L 836.755575 447.472913 
L 837.580333 177.816004 
L 838.249724 447.472913 
L 839.069548 177.816004 
L 839.734935 447.472913 
L 840.549855 177.816004 
L 841.211261 447.472913 
L 842.021306 177.816004 
L 842.678756 447.472913 
L 843.483955 177.816004 
L 844.137472 447.472913 
L 844.937854 177.816004 
L 845.587462 447.472913 
L 846.383056 177.816004 
L 847.028778 447.472913 
L 847.819613 177.816004 
L 848.461472 447.472913 
L 849.247576 177.816004 
L 849.885596 447.472913 
L 850.666997 177.816004 
L 851.3012 447.472913 
L 852.077927 177.816004 
L 852.708336 447.472913 
L 853.480417 177.816004 
L 854.107054 447.472913 
L 854.874517 177.816004 
L 855.497406 447.472913 
L 856.260277 177.816004 
L 856.87944 447.472913 
L 857.637747 177.816004 
L 858.253206 447.472913 
L 859.006978 177.816004 
L 859.618755 447.472913 
L 860.368017 177.816004 
L 860.976134 447.472913 
L 861.720915 177.816004 
L 862.325394 447.472913 
L 863.065719 177.816004 
L 863.666583 447.472913 
L 864.402479 177.816004 
L 864.999748 447.472913 
L 865.731242 177.816004 
L 866.324938 447.472913 
L 867.052056 177.816004 
L 867.642201 447.472913 
L 868.36497 177.816004 
L 868.951584 447.472913 
L 869.670029 177.816004 
L 870.253134 447.472913 
L 870.967281 177.816004 
L 871.546898 447.472913 
L 872.256773 177.816004 
L 872.832923 447.472913 
L 873.538551 177.816004 
L 874.111254 447.472913 
L 874.812662 177.816004 
L 875.381939 447.472913 
L 876.07915 177.816004 
L 876.645022 447.472913 
L 877.338063 177.816004 
L 877.900549 447.472913 
L 878.589444 177.816004 
L 879.148566 447.472913 
L 879.83334 177.816004 
L 880.389117 447.472913 
L 881.069794 177.816004 
L 881.622247 447.472913 
L 882.298852 177.816004 
L 882.848 447.472913 
L 883.520558 177.816004 
L 884.066421 447.472913 
L 884.734955 177.816004 
L 885.277553 447.472913 
L 885.942088 177.816004 
L 886.481439 447.472913 
L 887.142 177.816004 
L 887.678125 447.472913 
L 888.334733 177.816004 
L 888.867651 447.472913 
L 889.520332 177.816004 
L 890.050062 447.472913 
L 890.698838 177.816004 
L 891.225399 447.472913 
L 891.870294 177.816004 
L 892.393705 447.472913 
L 893.034743 177.816004 
L 893.555023 447.472913 
L 894.192226 177.816004 
L 894.709393 447.472913 
L 895.342784 177.816004 
L 895.856858 447.472913 
L 896.48646 177.816004 
L 896.997459 447.472913 
L 897.623294 177.816004 
L 898.131236 447.472913 
L 898.753328 177.816004 
L 899.258231 447.472913 
L 899.876602 177.816004 
L 900.378484 447.472913 
L 900.993156 177.816004 
L 901.492036 447.472913 
L 902.103031 177.816004 
L 902.598927 447.472913 
L 903.206266 177.816004 
L 903.699196 447.472913 
L 904.302902 177.816004 
L 904.792883 447.472913 
L 905.392978 177.816004 
L 905.880028 447.472913 
L 906.476533 177.816004 
L 906.960669 447.472913 
L 907.553606 177.816004 
L 908.034846 447.472913 
L 908.624235 177.816004 
L 909.102597 447.472913 
L 909.68846 177.816004 
L 910.16396 447.472913 
L 910.746319 177.816004 
L 911.218975 447.472913 
L 911.79785 177.816004 
L 912.267678 447.472913 
L 912.84309 177.816004 
L 913.310108 447.472913 
L 913.882078 177.816004 
L 914.346302 447.472913 
L 914.91485 177.816004 
L 915.376297 447.472913 
L 915.941445 177.816004 
L 916.400131 447.472913 
L 916.961898 177.816004 
L 917.41784 447.472913 
L 917.976246 177.816004 
L 918.429461 447.472913 
L 918.984527 177.816004 
L 919.435031 447.472913 
L 919.986776 177.816004 
L 920.434585 447.472913 
L 920.98303 177.816004 
L 921.42816 447.472913 
L 921.973324 177.816004 
L 922.415791 447.472913 
L 922.957694 177.816004 
L 923.397514 447.472913 
L 923.936175 177.816004 
L 924.373364 447.472913 
L 924.908803 177.816004 
L 925.343377 447.472913 
L 925.875612 177.816004 
L 926.307587 447.472913 
L 926.836639 177.816004 
L 927.266029 447.472913 
L 927.791916 177.816004 
L 928.218737 447.472913 
L 928.741478 177.816004 
L 929.165746 447.472913 
L 929.685361 177.816004 
L 930.107091 447.472913 
L 930.623597 177.816004 
L 931.042804 447.472913 
L 931.55622 177.816004 
L 931.972919 447.472913 
L 932.483264 177.816004 
L 932.897471 447.472913 
L 933.404763 177.816004 
L 933.816492 447.472913 
L 934.320749 177.816004 
L 934.730015 447.472913 
L 935.231255 177.816004 
L 935.638073 447.472913 
L 936.136315 177.816004 
L 936.540699 447.472913 
L 937.035961 177.816004 
L 937.437926 447.472913 
L 937.930225 177.816004 
L 938.329786 447.472913 
L 938.81914 177.816004 
L 939.21631 447.472913 
L 939.702737 177.816004 
L 940.097531 447.472913 
L 940.581048 177.816004 
L 940.97348 447.472913 
L 941.454105 177.816004 
L 941.84419 447.472913 
L 942.321939 177.816004 
L 942.709691 447.472913 
L 943.184582 177.816004 
L 943.570014 447.472913 
L 944.042064 177.816004 
L 944.425191 447.472913 
L 944.894417 177.816004 
L 945.275252 447.472913 
L 945.741672 177.816004 
L 946.120228 447.472913 
L 946.583857 177.816004 
L 946.960149 447.472913 
L 947.421005 177.816004 
L 947.795046 447.472913 
L 948.253145 177.816004 
L 948.624948 447.472913 
L 949.080307 177.816004 
L 949.449886 447.472913 
L 949.902521 177.816004 
L 950.269889 447.472913 
L 950.719816 177.816004 
L 951.084987 447.472913 
L 951.532222 177.816004 
L 951.895208 447.472913 
L 952.339768 177.816004 
L 952.700583 447.472913 
L 953.142484 177.816004 
L 953.50114 447.472913 
L 953.940397 177.816004 
L 954.296908 447.472913 
L 954.733538 177.816004 
L 955.087916 447.472913 
L 955.521934 177.816004 
L 955.874192 447.472913 
L 956.305613 177.816004 
L 956.655764 447.472913 
L 957.084605 177.816004 
L 957.432661 447.472913 
L 957.858936 177.816004 
L 958.20491 447.472913 
L 958.628635 177.816004 
L 958.97254 447.472913 
L 959.39373 177.816004 
L 959.735578 447.472913 
L 960.154248 177.816004 
L 960.494051 447.472913 
L 960.910217 177.816004 
L 961.247987 447.472913 
L 961.661663 177.816004 
L 961.997413 447.472913 
L 962.408615 177.816004 
L 962.742355 447.472913 
L 963.151097 177.816004 
L 963.482842 447.472913 
L 963.889139 177.816004 
L 964.218898 447.472913 
L 964.622765 177.816004 
L 964.950552 447.472913 
L 965.352003 177.816004 
L 965.677829 447.472913 
L 966.076878 177.816004 
L 966.400755 447.472913 
L 966.797417 177.816004 
L 967.119356 447.472913 
L 967.513646 177.816004 
L 967.833659 447.472913 
L 968.22559 177.816004 
L 968.543689 447.472913 
L 968.933275 177.816004 
L 969.249471 447.472913 
L 969.636727 177.816004 
L 969.951032 447.472913 
L 970.33597 177.816004 
L 970.648395 447.472913 
L 971.031031 177.816004 
L 971.341587 447.472913 
L 971.721934 177.816004 
L 972.030632 447.472913 
L 972.408704 177.816004 
L 972.715555 447.472913 
L 973.091365 177.816004 
L 973.396381 447.472913 
L 973.769943 177.816004 
L 974.073134 447.472913 
L 974.444462 177.816004 
L 974.745839 447.472913 
L 975.114945 177.816004 
L 975.41452 447.472913 
L 975.781418 177.816004 
L 976.0792 447.472913 
L 976.443903 177.816004 
L 976.739905 447.472913 
L 977.102426 177.816004 
L 977.396657 447.472913 
L 977.757009 177.816004 
L 978.04948 447.472913 
L 978.407677 177.816004 
L 978.698398 447.472913 
L 979.054452 177.816004 
L 979.343434 447.472913 
L 979.697358 177.816004 
L 979.984611 447.472913 
L 980.336419 177.816004 
L 980.621953 447.472913 
L 980.971656 177.816004 
L 981.255482 447.472913 
L 981.603093 177.816004 
L 981.885222 447.472913 
L 982.230753 177.816004 
L 982.511194 447.472913 
L 982.854658 177.816004 
L 983.133422 447.472913 
L 983.474831 177.816004 
L 983.751927 447.472913 
L 984.091295 177.816004 
L 984.366733 447.472913 
L 984.70407 177.816004 
L 984.97786 447.472913 
L 985.31318 177.816004 
L 985.585332 447.472913 
L 985.918646 177.816004 
L 986.18917 447.472913 
L 986.52049 177.816004 
L 986.789396 447.472913 
L 987.118733 177.816004 
L 987.386031 447.472913 
L 987.713398 177.816004 
L 987.979097 447.472913 
L 988.304506 177.816004 
L 988.568615 447.472913 
L 988.892078 177.816004 
L 989.154607 447.472913 
L 989.476134 177.816004 
L 989.737093 447.472913 
L 990.056697 177.816004 
L 990.316095 447.472913 
L 990.633787 177.816004 
L 990.891633 447.472913 
L 991.207425 177.816004 
L 991.463728 447.472913 
L 991.777631 177.816004 
L 992.032401 447.472913 
L 992.344426 177.816004 
L 992.597672 447.472913 
L 992.90783 177.816004 
L 993.159562 447.472913 
L 993.467865 177.816004 
L 993.71809 447.472913 
L 994.024548 177.816004 
L 994.273277 447.472913 
L 994.577902 177.816004 
L 994.825143 447.472913 
L 995.127946 177.816004 
L 995.373708 447.472913 
L 995.674699 177.816004 
L 995.918991 447.472913 
L 996.218182 177.816004 
L 996.218182 177.816004 
" clip-path="url(#pc407524690)" style="fill: none; stroke: #4c72b0; stroke-width: 1.5; stroke-linecap: round"/>
   </g>
   <g id="line2d_14">
    <path d="M 184.581818 89.28 
L 187.560091 90.618847 
L 189.977321 91.96039 
L 192.937778 93.291147 
L 195.340548 94.625049 
L 198.283295 95.947717 
L 200.671692 97.27353 
L 203.596835 98.588107 
L 205.970944 99.905831 
L 208.878589 101.213217 
L 211.238496 102.522851 
L 214.128747 103.822148 
L 216.474537 105.124141 
L 219.347498 106.415798 
L 221.679255 107.709701 
L 224.53503 108.993718 
L 226.852839 110.279981 
L 229.69153 111.555908 
L 231.995473 112.834531 
L 234.817183 114.103267 
L 237.107344 115.37425 
L 239.912175 116.635345 
L 242.188636 117.898688 
L 244.976687 119.152143 
L 247.23953 120.407845 
L 250.010904 121.65366 
L 252.26021 122.902172 
L 255.015005 124.140346 
L 257.250856 125.381218 
L 259.989171 126.612201 
L 262.211647 127.845882 
L 264.933582 129.069675 
L 267.142763 130.295715 
L 269.848415 131.511867 
L 272.04438 132.730717 
L 274.733846 133.939679 
L 276.916675 135.151337 
L 279.590053 136.353108 
L 281.759824 137.557126 
L 284.41721 138.751706 
L 286.574001 139.948983 
L 289.21549 141.136372 
L 291.359379 142.326008 
L 293.985066 143.506656 
L 296.11613 144.689102 
L 298.726111 145.862559 
L 300.844427 147.038263 
L 303.438794 148.204529 
L 305.544438 149.373042 
L 308.123285 150.532567 
L 310.216333 151.694339 
L 312.779754 152.846673 
L 314.860281 154.001254 
L 317.408367 155.146846 
L 319.476448 156.294686 
L 322.009291 157.433087 
L 324.065001 158.574186 
L 326.582693 159.705846 
L 328.626105 160.840202 
L 331.128736 161.965121 
L 333.159924 163.092287 
L 335.647584 164.210464 
L 337.666622 165.331338 
L 340.1394 166.442774 
L 342.14636 167.556907 
L 344.604345 168.661601 
L 346.5993 169.768992 
L 349.042581 170.867395 
L 351.025602 171.968044 
L 353.454267 173.059705 
L 355.425425 174.153613 
L 357.839562 175.238983 
L 359.798929 176.326599 
L 362.198624 177.405226 
L 364.146269 178.486101 
L 366.53161 179.558437 
L 368.467604 180.63302 
L 370.838675 181.698614 
L 372.763088 182.766905 
L 375.119976 183.826207 
L 377.032876 184.888206 
L 379.375665 185.941216 
L 381.277122 186.996473 
L 383.605896 188.043641 
L 385.495979 189.092606 
L 387.810822 190.133033 
L 389.689598 191.175706 
L 391.990593 192.21029 
L 393.85813 193.246671 
L 396.145361 194.274963 
L 398.001726 195.305052 
L 400.275274 196.327501 
L 402.120535 197.351299 
L 404.380483 198.367456 
L 406.214705 199.385411 
L 408.461133 200.395276 
L 410.284383 201.406938 
L 412.517373 202.410961 
L 414.329716 203.416781 
L 416.549348 204.414512 
L 418.350849 205.41449 
L 420.557203 206.406378 
L 422.347928 207.400063 
L 424.541083 208.386109 
L 426.321096 209.373952 
L 428.501131 210.354155 
L 430.270496 211.336155 
L 432.43749 212.310066 
L 434.19627 213.286224 
L 436.350302 214.254742 
L 438.09856 215.225057 
L 440.239706 216.187733 
L 441.977506 217.152205 
L 444.105844 218.108589 
L 445.833249 219.067668 
L 447.948854 220.018658 
L 449.665925 220.971446 
L 451.768875 221.917043 
L 453.475675 222.863988 
L 455.566045 223.803743 
L 457.262634 224.745744 
L 459.340499 225.679656 
L 461.026939 226.615815 
L 463.092375 227.544333 
L 464.768726 228.47465 
L 466.821806 229.397326 
L 468.48813 230.322249 
L 470.528928 231.239532 
L 472.185283 232.159062 
L 474.213873 233.070952 
L 475.86032 233.984639 
L 477.876775 234.891136 
L 479.513373 235.79943 
L 481.517765 236.700534 
L 483.144572 237.603435 
L 485.136974 238.499145 
L 486.75405 239.396653 
L 488.734533 240.286971 
L 490.341935 241.179086 
L 492.310571 242.06401 
L 493.908358 242.950731 
L 495.865217 243.830712 
L 497.453446 244.71204 
L 499.398598 245.586628 
L 500.977326 246.462563 
L 502.910843 247.331757 
L 504.480127 248.202749 
L 506.402077 249.067 
L 507.961974 249.932598 
L 509.872427 250.791456 
L 511.422992 251.65211 
L 513.322016 252.505575 
L 514.863305 253.361286 
L 516.75097 254.209806 
L 518.283039 255.060124 
L 520.159411 255.903701 
L 521.682316 256.748626 
L 523.547463 257.587259 
L 525.061257 258.42724 
L 526.915248 259.26093 
L 528.419986 260.095967 
L 530.262886 260.924263 
L 531.758623 261.754357 
L 533.590498 262.578159 
L 535.077287 263.403309 
L 536.898204 264.221718 
L 538.376099 265.041924 
L 540.186123 265.855839 
L 541.655178 266.671102 
L 543.454374 267.480072 
L 544.91464 268.290391 
L 546.703073 269.094418 
L 548.154604 269.899794 
L 549.932339 270.698877 
L 551.375187 271.499758 
L 553.142287 272.294347 
L 554.576504 273.090284 
L 556.333033 273.87993 
L 557.75867 274.670923 
L 559.504691 275.456074 
L 560.9218 276.242574 
L 562.657377 277.022781 
L 564.066008 277.804786 
L 565.791203 278.580049 
L 567.191408 279.357111 
L 568.906282 280.12833 
L 570.29811 280.900447 
L 572.002726 281.666722 
L 573.386229 282.434795 
L 575.080647 283.196576 
L 576.455874 283.959705 
L 578.140156 284.716991 
L 579.507156 285.475626 
L 581.181363 286.228418 
L 582.540185 286.982559 
L 584.204376 287.730407 
L 585.55507 288.480054 
L 587.209306 289.223857 
L 588.55192 289.969009 
L 590.196261 290.708318 
L 591.530843 291.448976 
L 593.165347 292.183791 
L 594.491945 292.919955 
L 596.116672 293.650275 
L 597.435334 294.381944 
L 599.050341 295.10822 
L 600.361116 295.835845 
L 601.966461 296.557177 
L 603.269395 297.280307 
L 604.865137 297.998044 
L 606.160276 298.716679 
L 607.746473 299.429922 
L 609.033864 300.144063 
L 610.610572 300.852811 
L 611.890263 301.563357 
L 613.457538 302.267611 
L 614.729573 302.973663 
L 616.287474 303.674322 
L 617.551899 304.375879 
L 619.10048 305.072043 
L 620.357342 305.769556 
L 621.896659 306.461675 
L 623.146002 307.155143 
L 624.676111 307.842768 
L 625.91798 308.532191 
L 627.438936 309.215771 
L 628.673376 309.901149 
L 630.185233 310.580684 
L 631.412289 311.261568 
L 632.915102 311.937059 
L 634.134818 312.614347 
L 635.628641 313.285793 
L 636.84106 313.958587 
L 638.325947 314.625987 
L 639.531113 315.295186 
L 641.007117 315.958542 
L 642.205074 316.623246 
L 643.672249 317.283007 
L 644.863039 317.943666 
L 646.321437 318.599382 
L 647.505105 319.256446 
L 648.954778 319.908117 
L 650.131365 320.561136 
L 651.572366 321.208762 
L 652.741914 321.858186 
L 654.174296 322.501767 
L 655.336847 323.147146 
L 656.76066 323.787132 
L 657.916257 324.428466 
L 661.887066 326.33494 
L 663.028879 326.968634 
L 666.952323 328.851738 
L 668.080515 329.478241 
L 671.957159 331.338873 
L 673.071894 331.957736 
L 676.902295 333.796347 
L 678.003734 334.408018 
L 681.788444 336.224607 
L 682.876744 336.828639 
L 686.61631 338.624104 
L 687.691628 339.220945 
L 691.386586 340.994388 
L 692.449078 341.584038 
L 696.099962 343.336808 
L 697.149779 343.919267 
L 700.757114 345.651363 
L 701.794409 346.227081 
L 705.358714 347.938054 
L 706.383636 348.50658 
L 709.905424 350.197329 
L 710.918121 350.759564 
L 714.3979 352.430089 
L 715.398516 352.985132 
L 718.836788 354.635882 
L 719.825468 355.184634 
L 723.222727 356.815609 
L 726.367082 358.434449 
L 729.703736 360.036211 
L 732.791998 361.626288 
L 736.06913 363.199287 
L 739.102301 364.76105 
L 742.320971 366.306184 
L 745.300033 367.840082 
L 748.461285 369.357801 
L 751.387203 370.864284 
L 754.492061 372.354588 
L 757.365783 373.834106 
L 760.415254 375.298343 
L 763.237711 376.751344 
L 766.232782 378.189065 
L 769.00489 379.616449 
L 771.946531 381.028552 
L 774.669187 382.430319 
L 777.558352 383.817254 
L 780.232438 385.194302 
L 783.070063 386.556519 
L 785.696446 387.908848 
L 788.48345 389.246796 
L 791.062981 390.574856 
L 793.800267 391.888984 
L 796.333781 393.193225 
L 799.022237 394.483982 
L 801.510556 395.764853 
L 804.151052 397.03269 
L 806.594981 398.291089 
L 809.188374 399.536005 
L 811.588705 400.771932 
L 814.135834 401.994377 
L 816.493346 403.208282 
L 818.995036 404.409154 
L 821.310492 405.601487 
L 823.767554 406.780787 
L 826.041704 407.951997 
L 828.454935 409.110173 
L 830.688517 410.26026 
L 833.058697 411.398212 
L 835.252434 412.527625 
L 837.580333 413.645353 
L 839.734935 414.754542 
L 842.021306 415.852045 
L 844.137472 416.941909 
L 846.383056 418.019638 
L 848.461472 419.089726 
L 850.666997 420.148579 
L 852.708336 421.199791 
L 854.874517 422.239319 
L 856.87944 423.271655 
L 859.006978 424.293206 
L 860.976134 425.307116 
L 863.065719 426.310239 
L 864.999748 427.305723 
L 867.052056 428.291319 
L 868.951584 429.269274 
L 870.967281 430.236893 
L 872.832923 431.197321 
L 876.07915 432.777061 
L 877.900549 433.715018 
L 881.069794 435.257006 
L 882.848 436.172941 
L 885.942088 437.678525 
L 887.678125 438.572438 
L 890.698838 440.042517 
L 892.393705 440.914857 
L 895.342784 442.350331 
L 896.997459 443.201997 
L 899.876602 444.603315 
L 901.492036 445.434757 
L 904.302902 446.802816 
L 906.960669 448.15155 
L 909.68846 449.479161 
L 912.267678 450.788345 
L 914.91485 452.076406 
L 917.41784 453.34694 
L 919.986776 454.5968 
L 922.415791 455.829581 
L 924.908803 457.043037 
L 927.266029 458.239415 
L 929.685361 459.416467 
L 931.972919 460.57779 
L 934.320749 461.720236 
L 936.540699 462.846953 
L 938.81914 463.955692 
L 940.97348 465.049151 
L 943.184582 466.125082 
L 945.275252 467.186182 
L 948.253145 468.643677 
L 950.269889 469.667475 
L 953.142484 471.073736 
L 955.087916 472.061129 
L 957.858936 473.417504 
L 959.735578 474.369842 
L 962.408615 475.678577 
L 964.218898 476.597208 
L 966.797417 477.859202 
L 969.249471 479.096478 
L 971.721934 480.306788 
L 974.073134 481.492829 
L 976.443903 482.653253 
L 978.698398 483.790306 
L 981.603093 485.217241 
L 983.751927 486.300812 
L 986.52049 487.660782 
L 988.568615 488.694017 
L 991.207425 489.989718 
L 993.159562 490.974416 
L 995.674699 492.209894 
L 996.218182 492.48 
L 996.218182 492.48 
" clip-path="url(#pc407524690)" style="fill: none; stroke: #dd8452; stroke-width: 1.5; stroke-linecap: round"/>
   </g>
   <g id="line2d_15"/>
   <g id="line2d_16"/>
   <g id="patch_3">
    <path d="M 144 512.64 
L 144 69.12 
" style="fill: none; stroke: #ffffff; stroke-width: 1.25; stroke-linejoin: miter; stroke-linecap: square"/>
   </g>
   <g id="patch_4">
    <path d="M 1036.8 512.64 
L 1036.8 69.12 
" style="fill: none; stroke: #ffffff; stroke-width: 1.25; stroke-linejoin: miter; stroke-linecap: square"/>
   </g>
   <g id="patch_5">
    <path d="M 144 512.64 
L 1036.8 512.64 
" style="fill: none; stroke: #ffffff; stroke-width: 1.25; stroke-linejoin: miter; stroke-linecap: square"/>
   </g>
   <g id="patch_6">
    <path d="M 144 69.12 
L 1036.8 69.12 
" style="fill: none; stroke: #ffffff; stroke-width: 1.25; stroke-linejoin: miter; stroke-linecap: square"/>
   </g>
   <g id="legend_1">
    <g id="patch_7">
     <path d="M 965.418125 127.325625 
L 1029.1 127.325625 
Q 1031.3 127.325625 1031.3 125.125625 
L 1031.3 76.82 
Q 1031.3 74.62 1029.1 74.62 
L 965.418125 74.62 
Q 963.218125 74.62 963.218125 76.82 
L 963.218125 125.125625 
Q 963.218125 127.325625 965.418125 127.325625 
z
" style="fill: #eaeaf2; opacity: 0.8; stroke: #cccccc; stroke-linejoin: miter"/>
    </g>
    <g id="text_15">
     <!-- SoC - SoH -->
     <g style="fill: #262626" transform="translate(967.618125 88.138125) scale(0.12 -0.12)">
      <defs>
       <path id="DejaVuSans-53" d="M 3425 4513 
L 3425 3897 
Q 3066 4069 2747 4153 
Q 2428 4238 2131 4238 
Q 1616 4238 1336 4038 
Q 1056 3838 1056 3469 
Q 1056 3159 1242 3001 
Q 1428 2844 1947 2747 
L 2328 2669 
Q 3034 2534 3370 2195 
Q 3706 1856 3706 1288 
Q 3706 609 3251 259 
Q 2797 -91 1919 -91 
Q 1588 -91 1214 -16 
Q 841 59 441 206 
L 441 856 
Q 825 641 1194 531 
Q 1563 422 1919 422 
Q 2459 422 2753 634 
Q 3047 847 3047 1241 
Q 3047 1584 2836 1778 
Q 2625 1972 2144 2069 
L 1759 2144 
Q 1053 2284 737 2584 
Q 422 2884 422 3419 
Q 422 4038 858 4394 
Q 1294 4750 2059 4750 
Q 2388 4750 2728 4690 
Q 3069 4631 3425 4513 
z
" transform="scale(0.015625)"/>
       <path id="DejaVuSans-6f" d="M 1959 3097 
Q 1497 3097 1228 2736 
Q 959 2375 959 1747 
Q 959 1119 1226 758 
Q 1494 397 1959 397 
Q 2419 397 2687 759 
Q 2956 1122 2956 1747 
Q 2956 2369 2687 2733 
Q 2419 3097 1959 3097 
z
M 1959 3584 
Q 2709 3584 3137 3096 
Q 3566 2609 3566 1747 
Q 3566 888 3137 398 
Q 2709 -91 1959 -91 
Q 1206 -91 779 398 
Q 353 888 353 1747 
Q 353 2609 779 3096 
Q 1206 3584 1959 3584 
z
" transform="scale(0.015625)"/>
       <path id="DejaVuSans-43" d="M 4122 4306 
L 4122 3641 
Q 3803 3938 3442 4084 
Q 3081 4231 2675 4231 
Q 1875 4231 1450 3742 
Q 1025 3253 1025 2328 
Q 1025 1406 1450 917 
Q 1875 428 2675 428 
Q 3081 428 3442 575 
Q 3803 722 4122 1019 
L 4122 359 
Q 3791 134 3420 21 
Q 3050 -91 2638 -91 
Q 1578 -91 968 557 
Q 359 1206 359 2328 
Q 359 3453 968 4101 
Q 1578 4750 2638 4750 
Q 3056 4750 3426 4639 
Q 3797 4528 4122 4306 
z
" transform="scale(0.015625)"/>
       <path id="DejaVuSans-20" transform="scale(0.015625)"/>
       <path id="DejaVuSans-2d" d="M 313 2009 
L 1997 2009 
L 1997 1497 
L 313 1497 
L 313 2009 
z
" transform="scale(0.015625)"/>
       <path id="DejaVuSans-48" d="M 628 4666 
L 1259 4666 
L 1259 2753 
L 3553 2753 
L 3553 4666 
L 4184 4666 
L 4184 0 
L 3553 0 
L 3553 2222 
L 1259 2222 
L 1259 0 
L 628 0 
L 628 4666 
z
" transform="scale(0.015625)"/>
      </defs>
      <use xlink:href="#DejaVuSans-53"/>
      <use xlink:href="#DejaVuSans-6f" x="63.476562"/>
      <use xlink:href="#DejaVuSans-43" x="124.658203"/>
      <use xlink:href="#DejaVuSans-20" x="194.482422"/>
      <use xlink:href="#DejaVuSans-2d" x="226.269531"/>
      <use xlink:href="#DejaVuSans-20" x="262.353516"/>
      <use xlink:href="#DejaVuSans-53" x="294.140625"/>
      <use xlink:href="#DejaVuSans-6f" x="357.617188"/>
      <use xlink:href="#DejaVuSans-48" x="418.798828"/>
     </g>
    </g>
    <g id="line2d_17">
     <path d="M 970.865937 100.642031 
L 981.865937 100.642031 
L 992.865937 100.642031 
" style="fill: none; stroke: #4c72b0; stroke-width: 1.5; stroke-linecap: round"/>
    </g>
    <g id="text_16">
     <!-- SoC -->
     <g style="fill: #262626" transform="translate(1001.665937 104.492031) scale(0.11 -0.11)">
      <use xlink:href="#DejaVuSans-53"/>
      <use xlink:href="#DejaVuSans-6f" x="63.476562"/>
      <use xlink:href="#DejaVuSans-43" x="124.658203"/>
     </g>
    </g>
    <g id="line2d_18">
     <path d="M 970.865937 116.787969 
L 981.865937 116.787969 
L 992.865937 116.787969 
" style="fill: none; stroke: #dd8452; stroke-width: 1.5; stroke-linecap: round"/>
    </g>
    <g id="text_17">
     <!-- SoH -->
     <g style="fill: #262626" transform="translate(1001.665937 120.637969) scale(0.11 -0.11)">
      <use xlink:href="#DejaVuSans-53"/>
      <use xlink:href="#DejaVuSans-6f" x="63.476562"/>
      <use xlink:href="#DejaVuSans-48" x="124.658203"/>
     </g>
    </g>
   </g>
  </g>
 </g>
 <defs>
  <clipPath id="pc407524690">
   <rect x="144" y="69.12" width="892.8" height="443.52"/>
  </clipPath>
 </defs>
</svg>
