<?xml version="1.0" encoding="UTF-8" standalone="no"?>
<!-- Created with Inkscape (http://www.inkscape.org/) -->
<svg
   xmlns:dc="http://purl.org/dc/elements/1.1/"
   xmlns:cc="http://creativecommons.org/ns#"
   xmlns:rdf="http://www.w3.org/1999/02/22-rdf-syntax-ns#"
   xmlns:svg="http://www.w3.org/2000/svg"
   xmlns="http://www.w3.org/2000/svg"
   xmlns:sodipodi="http://sodipodi.sourceforge.net/DTD/sodipodi-0.dtd"
   xmlns:inkscape="http://www.inkscape.org/namespaces/inkscape"
   width="130.858"
   height="29.843372"
   id="svg2926"
   sodipodi:version="0.32"
   inkscape:version="0.46"
   version="1.0"
   sodipodi:docname="Université Nancy 2.svg"
   inkscape:output_extension="org.inkscape.output.svg.inkscape">
  <defs
     id="defs2928">
    <inkscape:perspective
       sodipodi:type="inkscape:persp3d"
       inkscape:vp_x="0 : 526.18109 : 1"
       inkscape:vp_y="0 : 1000 : 0"
       inkscape:vp_z="744.09448 : 526.18109 : 1"
       inkscape:persp3d-origin="372.04724 : 350.78739 : 1"
       id="perspective2934" />
  </defs>
  <sodipodi:namedview
     id="base"
     pagecolor="#ffffff"
     bordercolor="#666666"
     borderopacity="1.0"
     inkscape:pageopacity="0.0"
     inkscape:pageshadow="2"
     inkscape:zoom="7.0916566"
     inkscape:cx="65.429"
     inkscape:cy="14.921686"
     inkscape:document-units="px"
     inkscape:current-layer="layer1"
     showgrid="false"
     inkscape:window-width="1024"
     inkscape:window-height="712"
     inkscape:window-x="-4"
     inkscape:window-y="-4" />
  <metadata
     id="metadata2931">
    <rdf:RDF>
      <cc:Work
         rdf:about="">
        <dc:format>image/svg+xml</dc:format>
        <dc:type
           rdf:resource="http://purl.org/dc/dcmitype/StillImage" />
      </cc:Work>
    </rdf:RDF>
  </metadata>
  <g
     inkscape:label="Calque 1"
     inkscape:groupmode="layer"
     id="layer1"
     transform="translate(-294.571,-388.86907)">
    <path
       d="M 338.70841,404.74605 C 338.70841,404.74605 339.15816,403.80666 339.15816,403.80666 C 339.15816,403.80666 409.91326,403.82465 410.82883,403.84081 C 412.35723,403.87124 414.84165,404.53589 414.13206,406.01859 C 413.1633,408.04014 410.56355,405.32368 408.62531,405.13224 C 406.67807,404.93689 343.29149,405.0485 343.29149,405.0485 C 343.29149,405.0485 350.92772,412.80104 350.92772,412.80104 C 350.92772,412.80104 353.08259,414.88237 352.1008,416.93445 C 350.95456,419.3278 348.61633,418.94402 346.39443,417.88 C 346.68168,417.28199 346.68168,417.28199 346.68168,417.28199 C 346.68168,417.28199 349.1604,418.46932 349.77419,417.18718 C 350.96031,414.71009 338.70841,404.74605 338.70841,404.74605 z"
       style="fill:#c5112e;fill-opacity:1;fill-rule:nonzero;stroke:none"
       id="path277" />
    <path
       d="M 301.75185,400.80649 C 301.75185,400.80649 300.93156,400.80649 300.93156,400.80649 L 300.76325,400.71324 L 295.76499,391.5176 L 295.72722,391.5176 C 295.72722,391.5176 295.82063,400.62043 295.82063,400.62043 C 295.82063,400.75038 295.76499,400.80649 295.63397,400.80649 C 295.63397,400.80649 294.75765,400.80649 294.75765,400.80649 C 294.6271,400.80649 294.571,400.75038 294.571,400.62043 C 294.571,400.62043 294.571,389.26117 294.571,389.26117 C 294.571,389.1301 294.6271,389.0745 294.75765,389.0745 C 294.75765,389.0745 295.5596,389.0745 295.5596,389.0745 L 295.72722,389.16778 L 300.7449,398.41898 L 300.78213,398.41898 C 300.78213,398.41898 300.67053,389.26117 300.67053,389.26117 C 300.67053,389.1301 300.72656,389.0745 300.85657,389.0745 C 300.85657,389.0745 301.75185,389.0745 301.75185,389.0745 C 301.88285,389.0745 301.9385,389.1301 301.9385,389.26117 C 301.9385,389.26117 301.9385,400.62043 301.9385,400.62043 C 301.9385,400.75038 301.88285,400.80649 301.75185,400.80649 z"
       style="fill:#231f20;fill-opacity:1;fill-rule:nonzero;stroke:none"
       id="path279" />
    <path
       d="M 308.93262,397.41213 C 308.93262,397.29992 308.85816,397.22553 308.74612,397.22553 C 308.74612,397.22553 306.28462,397.22553 306.28462,397.22553 C 305.66887,397.22553 305.18388,397.71036 305.18388,398.32573 C 305.18388,398.32573 305.18388,398.62452 305.18388,398.62452 C 305.18388,399.23981 305.68715,399.74359 306.28462,399.74359 C 306.28462,399.74359 307.03001,399.74359 307.03001,399.74359 C 307.7764,399.74359 308.41058,399.20259 308.91427,398.13909 C 308.91427,398.13909 308.93262,397.74759 308.93262,397.74759 C 308.93262,397.74759 308.93262,397.41213 308.93262,397.41213 z M 310.01445,400.80649 C 310.01445,400.80649 309.32471,400.80649 309.32471,400.80649 C 309.19372,400.80649 309.13806,400.75038 309.13806,400.62043 C 309.13806,400.62043 309.13806,399.81795 309.13806,399.81795 C 309.13806,399.68741 309.0637,399.59417 308.9888,399.59417 C 308.80266,399.59417 308.48502,400.0046 307.88852,400.48944 C 307.64592,400.67601 307.27323,400.80649 307.03001,400.80649 C 307.03001,400.80649 306.28462,400.80649 306.28462,400.80649 C 304.8852,400.80649 303.93442,399.87406 303.93442,398.62452 C 303.93442,398.62452 303.93442,398.51231 303.93442,398.51231 C 303.93442,397.26277 304.8852,396.3486 306.28462,396.3486 C 306.28462,396.3486 308.74612,396.3486 308.74612,396.3486 C 308.87712,396.3486 308.93262,396.29259 308.93262,396.16203 C 308.93262,396.16203 308.91427,395.41617 308.91427,395.41617 C 308.89591,394.316 308.07515,393.47631 306.9367,393.47631 C 306.47074,393.47631 306.02314,393.64407 305.68715,393.96111 C 305.29616,394.316 305.1651,394.59537 305.03455,394.59537 C 305.01621,394.59537 304.97846,394.59537 304.94123,394.57648 C 304.94123,394.57648 304.15771,394.16663 304.15771,394.16663 C 304.08317,394.12942 304.04602,394.09167 304.04602,394.03617 C 304.04602,393.45801 305.1651,392.41333 306.9367,392.41333 C 308.93262,392.41333 310.20111,393.60684 310.20111,395.41617 C 310.20111,395.41617 310.20111,400.62043 310.20111,400.62043 C 310.20111,400.75038 310.14555,400.80649 310.01445,400.80649 z"
       style="fill:#231f20;fill-opacity:1;fill-rule:nonzero;stroke:none"
       id="path281" />
    <path
       d="M 319.34065,400.80649 C 319.34065,400.80649 318.44545,400.80649 318.44545,400.80649 C 318.31484,400.80649 318.2588,400.75038 318.2588,400.62043 C 318.2588,400.62043 318.2588,395.60275 318.2588,395.60275 C 318.2588,394.53935 317.38187,393.62572 316.2634,393.62572 C 315.12493,393.62572 314.28576,394.50213 314.28576,395.60275 C 314.28576,395.60275 314.28576,400.62043 314.28576,400.62043 C 314.28576,400.75038 314.22975,400.80649 314.0997,400.80649 C 314.0997,400.80649 313.20391,400.80649 313.20391,400.80649 C 313.07343,400.80649 313.01777,400.75038 313.01777,400.62043 C 313.01777,400.62043 313.01777,392.7488 313.01777,392.7488 C 313.01777,392.61832 313.07343,392.56221 313.20391,392.56221 C 313.20391,392.56221 313.89419,392.56221 313.89419,392.56221 C 314.02482,392.56221 314.08084,392.61832 314.08084,392.7488 C 314.08084,392.7488 314.08084,393.49517 314.08084,393.49517 C 314.08084,393.60684 314.15522,393.70009 314.22975,393.70009 C 314.36074,393.70009 314.50955,393.51352 314.78945,393.27138 C 315.21819,392.91703 315.53584,392.56221 316.43109,392.56221 C 318.1654,392.56221 319.52723,393.81238 319.52723,395.60275 C 319.52723,395.60275 319.52723,400.62043 319.52723,400.62043 C 319.52723,400.75038 319.47104,400.80649 319.34065,400.80649 z"
       style="fill:#231f20;fill-opacity:1;fill-rule:nonzero;stroke:none"
       id="path283" />
    <path
       d="M 328.18142,399.35149 C 328.18142,399.94844 327.044,400.99307 325.29022,400.99307 C 323.3131,400.99307 322.06355,399.78074 322.06355,397.93417 C 322.06355,397.93417 322.06355,395.41617 322.06355,395.41617 C 322.06355,393.56961 323.3131,392.37564 325.29022,392.37564 C 327.02511,392.37564 328.20029,393.36409 328.20029,393.97999 C 328.20029,394.03617 328.1442,394.09167 328.06974,394.12942 C 328.06974,394.12942 327.28614,394.521 327.28614,394.521 C 327.24899,394.53935 327.23065,394.53935 327.21175,394.53935 C 327.15565,394.53935 327.11836,394.521 327.06235,394.46491 C 326.50307,393.94277 326.12992,393.43914 325.29022,393.43914 C 324.15279,393.43914 323.3131,394.316 323.3131,395.41617 C 323.3131,395.41617 323.3131,397.93417 323.3131,397.93417 C 323.3131,399.016 324.17117,399.93009 325.29022,399.93009 C 325.73782,399.93009 326.18542,399.74359 326.52135,399.42639 C 326.913,399.05323 327.08068,398.79221 327.19289,398.79221 C 327.21175,398.79221 327.24899,398.79221 327.28614,398.8111 C 327.28614,398.8111 328.06974,399.20259 328.06974,399.20259 C 328.16255,399.23981 328.18142,399.27705 328.18142,399.35149 z"
       style="fill:#231f20;fill-opacity:1;fill-rule:nonzero;stroke:none"
       id="path285" />
    <path
       d="M 333.34686,405.19005 C 331.61241,405.19005 330.47401,404.14535 330.47401,403.54841 C 330.47401,403.47395 330.4929,403.43666 330.58622,403.3995 C 330.58622,403.3995 331.36975,403.00792 331.36975,403.00792 C 331.40704,402.9886 331.44426,402.9886 331.46308,402.9886 C 331.51916,402.9886 331.53751,403.02637 331.59369,403.08223 C 332.11568,403.66045 332.52604,404.12648 333.34686,404.12648 C 334.50316,404.12648 335.36121,403.23127 335.36121,402.13048 C 335.36121,402.13048 335.36121,399.91127 335.36121,399.91127 C 335.36121,399.78074 335.28669,399.7063 335.21232,399.7063 C 335.08122,399.7063 334.95127,399.89241 334.6713,400.13509 C 334.26042,400.48944 333.96225,400.80649 333.14202,400.80649 C 331.48143,400.80649 330.11975,399.55695 330.11975,397.74759 C 330.11975,397.74759 330.11975,392.7488 330.11975,392.7488 C 330.11975,392.61832 330.1763,392.56221 330.30632,392.56221 C 330.30632,392.56221 331.18325,392.56221 331.18325,392.56221 C 331.31365,392.56221 331.36975,392.61832 331.36975,392.7488 C 331.36975,392.7488 331.36975,397.74759 331.36975,397.74759 C 331.36975,398.82937 332.24667,399.74359 333.34686,399.74359 C 334.50316,399.74359 335.36121,398.84831 335.36121,397.74759 C 335.36121,397.74759 335.36121,392.7488 335.36121,392.7488 C 335.36121,392.61832 335.4173,392.56221 335.54771,392.56221 C 335.54771,392.56221 336.42412,392.56221 336.42412,392.56221 C 336.55519,392.56221 336.61068,392.61832 336.61068,392.7488 C 336.61068,392.7488 336.61068,401.92563 336.61068,401.92563 C 336.61068,403.9587 335.38001,405.19005 333.34686,405.19005 z"
       style="fill:#231f20;fill-opacity:1;fill-rule:nonzero;stroke:none"
       id="path287" />
    <path
       d="M 341.70648,397.31885 C 341.70648,397.31885 339.05802,397.31885 339.05802,397.31885 C 338.92739,397.31885 338.87139,397.26277 338.87139,397.13228 C 338.87139,397.13228 338.87139,396.237 338.87139,396.237 C 338.87139,396.10646 338.92739,396.05045 339.05802,396.05045 C 339.05802,396.05045 341.70648,396.05045 341.70648,396.05045 C 341.81867,396.05045 341.89305,396.10646 341.89305,396.237 C 341.89305,396.237 341.89305,397.13228 341.89305,397.13228 C 341.89305,397.26277 341.83702,397.31885 341.70648,397.31885 z"
       style="fill:#231f20;fill-opacity:1;fill-rule:nonzero;stroke:none"
       id="path289" />
    <path
       d="M 348.04815,400.99307 C 348.04815,400.99307 347.46999,400.99307 347.46999,400.99307 C 345.49294,400.99307 344.22444,399.76245 344.22444,397.93417 C 344.22444,397.93417 344.22444,389.26117 344.22444,389.26117 C 344.22444,389.1301 344.28001,389.0745 344.41103,389.0745 C 344.41103,389.0745 345.30631,389.0745 345.30631,389.0745 C 345.43684,389.0745 345.49294,389.1301 345.49294,389.26117 C 345.49294,389.26117 345.49294,397.93417 345.49294,397.93417 C 345.49294,399.05323 346.36927,399.93009 347.46999,399.93009 C 347.46999,399.93009 348.04815,399.93009 348.04815,399.93009 C 349.12998,399.93009 350.04362,399.03435 350.04362,397.93417 C 350.04362,397.93417 350.04362,389.26117 350.04362,389.26117 C 350.04362,389.1301 350.09965,389.0745 350.23018,389.0745 C 350.23018,389.0745 351.12537,389.0745 351.12537,389.0745 C 351.25645,389.0745 351.31196,389.1301 351.31196,389.26117 C 351.31196,389.26117 351.31196,397.93417 351.31196,397.93417 C 351.31196,399.76245 350.02526,400.99307 348.04815,400.99307 z"
       style="fill:#231f20;fill-opacity:1;fill-rule:nonzero;stroke:none"
       id="path291" />
    <path
       d="M 360.02076,400.80649 C 360.02076,400.80649 359.12555,400.80649 359.12555,400.80649 C 358.99493,400.80649 358.9389,400.75038 358.9389,400.62043 C 358.9389,400.62043 358.9389,395.60275 358.9389,395.60275 C 358.9389,394.53935 358.06197,393.62572 356.94342,393.62572 C 355.80556,393.62572 354.96631,394.50213 354.96631,395.60275 C 354.96631,395.60275 354.96631,400.62043 354.96631,400.62043 C 354.96631,400.75038 354.90976,400.80649 354.77973,400.80649 C 354.77973,400.80649 353.88454,400.80649 353.88454,400.80649 C 353.75354,400.80649 353.69788,400.75038 353.69788,400.62043 C 353.69788,400.62043 353.69788,392.7488 353.69788,392.7488 C 353.69788,392.61832 353.75354,392.56221 353.88454,392.56221 C 353.88454,392.56221 354.5742,392.56221 354.5742,392.56221 C 354.7053,392.56221 354.76086,392.61832 354.76086,392.7488 C 354.76086,392.7488 354.76086,393.49517 354.76086,393.49517 C 354.76086,393.60684 354.83532,393.70009 354.90976,393.70009 C 355.04084,393.70009 355.18959,393.51352 355.46955,393.27138 C 355.8989,392.91703 356.21594,392.56221 357.1112,392.56221 C 358.84541,392.56221 360.20726,393.81238 360.20726,395.60275 C 360.20726,395.60275 360.20726,400.62043 360.20726,400.62043 C 360.20726,400.75038 360.15108,400.80649 360.02076,400.80649 z"
       style="fill:#231f20;fill-opacity:1;fill-rule:nonzero;stroke:none"
       id="path293" />
    <path
       d="M 364.10533,400.80649 C 364.10533,400.80649 363.21012,400.80649 363.21012,400.80649 C 363.07965,400.80649 363.02362,400.75038 363.02362,400.62043 C 363.02362,400.62043 363.02362,392.7488 363.02362,392.7488 C 363.02362,392.61832 363.07965,392.56221 363.21012,392.56221 C 363.21012,392.56221 364.10533,392.56221 364.10533,392.56221 C 364.23581,392.56221 364.29198,392.61832 364.29198,392.7488 C 364.29198,392.7488 364.29198,400.62043 364.29198,400.62043 C 364.29198,400.75038 364.23581,400.80649 364.10533,400.80649 z M 363.63886,390.5296 C 363.19125,390.5296 362.83683,390.17473 362.83683,389.68989 C 362.83683,389.2423 363.21012,388.86907 363.63886,388.86907 C 364.12419,388.86907 364.47848,389.22343 364.47848,389.68989 C 364.47848,390.1375 364.10533,390.5296 363.63886,390.5296 z"
       style="fill:#231f20;fill-opacity:1;fill-rule:nonzero;stroke:none"
       id="path295" />
    <path
       d="M 379.73551,395.41617 C 379.73551,394.3527 378.85903,393.43914 377.73944,393.43914 C 376.60216,393.43914 375.76239,394.316 375.76239,395.41617 C 375.76239,395.41617 375.76239,395.67721 375.76239,395.67721 C 375.76239,395.80777 375.81842,395.8638 375.94905,395.8638 C 375.94905,395.8638 379.54885,395.8638 379.54885,395.8638 C 379.67934,395.8638 379.73551,395.80777 379.73551,395.67721 C 379.73551,395.67721 379.73551,395.41617 379.73551,395.41617 z M 380.81723,396.74019 C 380.81723,396.74019 375.94905,396.74019 375.94905,396.74019 C 375.81842,396.74019 375.76239,396.79628 375.76239,396.92677 C 375.76239,396.92677 375.76239,397.93417 375.76239,397.93417 C 375.76239,399.016 376.62089,399.93009 377.73944,399.93009 C 378.18763,399.93009 378.63523,399.74359 378.97077,399.42639 C 379.36222,399.05323 379.53042,398.79221 379.64202,398.79221 C 379.66104,398.79221 379.6982,398.79221 379.73551,398.8111 C 379.73551,398.8111 380.5191,399.20259 380.5191,399.20259 C 380.61228,399.23981 380.6307,399.27705 380.6307,399.35149 C 380.6307,399.94844 379.49328,400.99307 377.73944,400.99307 C 375.76239,400.99307 374.51274,399.78074 374.51274,397.93417 C 374.51274,397.93417 374.51274,395.41617 374.51274,395.41617 C 374.51274,394.72591 374.83047,393.96111 375.38923,393.36409 C 376.00506,392.71164 376.78866,392.37564 377.73944,392.37564 C 379.54885,392.37564 381.00385,393.81238 381.00385,395.41617 C 381.00385,395.41617 381.00385,396.55406 381.00385,396.55406 C 381.00385,396.6847 380.94766,396.74019 380.81723,396.74019 z"
       style="fill:#231f20;fill-opacity:1;fill-rule:nonzero;stroke:none"
       id="path297" />
    <path
       d="M 387.06188,393.88674 C 386.91269,393.88674 386.66987,393.83064 386.35274,393.83064 C 385.21485,393.83064 384.37567,394.6887 384.37567,395.78881 C 384.37567,395.78881 384.37567,400.62043 384.37567,400.62043 C 384.37567,400.75038 384.31951,400.80649 384.18902,400.80649 C 384.18902,400.80649 383.29385,400.80649 383.29385,400.80649 C 383.16336,400.80649 383.10732,400.75038 383.10732,400.62043 C 383.10732,400.62043 383.10732,392.7488 383.10732,392.7488 C 383.10732,392.61832 383.16336,392.56221 383.29385,392.56221 C 383.29385,392.56221 383.98412,392.56221 383.98412,392.56221 C 384.11474,392.56221 384.17077,392.61832 384.17077,392.7488 C 384.17077,392.7488 384.17077,393.68182 384.17077,393.68182 C 384.17077,393.81238 384.24521,393.88674 384.31951,393.88674 C 384.52502,393.88674 384.82343,393.42027 385.49469,392.87928 C 385.70022,392.71164 386.09178,392.56221 386.35274,392.56221 C 386.35274,392.56221 387.04302,392.56221 387.04302,392.56221 C 387.17348,392.56221 387.22966,392.61832 387.22966,392.7488 C 387.22966,392.7488 387.22966,393.70009 387.22966,393.70009 C 387.22966,393.84952 387.19205,393.88674 387.06188,393.88674 z"
       style="fill:#231f20;fill-opacity:1;fill-rule:nonzero;stroke:none"
       id="path299" />
    <path
       d="M 389.59783,394.59537 C 389.59783,395.36016 390.17575,395.71445 391.46327,395.99435 C 393.60855,396.46081 394.80201,396.74019 394.80201,398.30738 C 394.80201,399.89241 393.64569,400.99307 391.83643,400.99307 C 391.83643,400.99307 391.25821,400.99307 391.25821,400.99307 C 389.52323,400.99307 388.38534,399.94844 388.38534,399.37037 C 388.38534,399.31434 388.42309,399.27705 388.51641,399.23981 C 388.51641,399.23981 389.2434,398.88553 389.2434,398.88553 C 389.28115,398.86666 389.31784,398.86666 389.33673,398.86666 C 389.3929,398.86666 389.43005,398.90442 389.48608,398.95991 C 389.97098,399.50085 390.34413,400.0046 391.25821,400.0046 C 391.25821,400.0046 391.83643,400.0046 391.83643,400.0046 C 392.88098,400.0046 393.55251,399.40759 393.55251,398.64287 C 393.55251,397.95252 392.97384,397.54267 391.72408,397.28157 C 389.56069,396.83344 388.38534,396.60965 388.38534,394.9686 C 388.38534,393.43914 389.52323,392.37564 391.25821,392.37564 C 391.25821,392.37564 391.83643,392.37564 391.83643,392.37564 C 393.53363,392.37564 394.68994,393.40141 394.68994,393.96111 C 394.68994,394.01728 394.63377,394.05444 394.55933,394.09167 C 394.55933,394.09167 393.85063,394.44595 393.85063,394.44595 C 393.81348,394.46491 393.79459,394.46491 393.77633,394.46491 C 393.72029,394.46491 393.68284,394.4276 393.62683,394.37157 C 393.10491,393.81238 392.67545,393.36409 391.83643,393.36409 C 391.83643,393.36409 391.25821,393.36409 391.25821,393.36409 C 390.17575,393.36409 389.59783,393.83064 389.59783,394.59537 z"
       style="fill:#231f20;fill-opacity:1;fill-rule:nonzero;stroke:none"
       id="path301" />
    <path
       d="M 398.28962,400.80649 C 398.28962,400.80649 397.39443,400.80649 397.39443,400.80649 C 397.26409,400.80649 397.20793,400.75038 397.20793,400.62043 C 397.20793,400.62043 397.20793,392.7488 397.20793,392.7488 C 397.20793,392.61832 397.26409,392.56221 397.39443,392.56221 C 397.39443,392.56221 398.28962,392.56221 398.28962,392.56221 C 398.42008,392.56221 398.47627,392.61832 398.47627,392.7488 C 398.47627,392.7488 398.47627,400.62043 398.47627,400.62043 C 398.47627,400.75038 398.42008,400.80649 398.28962,400.80649 z M 397.82314,390.5296 C 397.37569,390.5296 397.02126,390.17473 397.02126,389.68989 C 397.02126,389.2423 397.39443,388.86907 397.82314,388.86907 C 398.30848,388.86907 398.66276,389.22343 398.66276,389.68989 C 398.66276,390.1375 398.28962,390.5296 397.82314,390.5296 z"
       style="fill:#231f20;fill-opacity:1;fill-rule:nonzero;stroke:none"
       id="path303" />
    <path
       d="M 404.25911,400.97473 C 402.86029,400.97473 401.4613,399.72462 401.4613,397.93417 C 401.4613,397.93417 401.4613,393.81238 401.4613,393.81238 C 401.4613,393.68182 401.40513,393.62572 401.27466,393.62572 C 401.27466,393.62572 400.19297,393.62572 400.19297,393.62572 C 400.06235,393.62572 400.00618,393.56961 400.00618,393.43914 C 400.00618,393.43914 400.00618,393.0848 400.00618,393.0848 L 402.11383,390.865 L 402.2443,390.80898 C 402.2443,390.80898 402.54315,390.80898 402.54315,390.80898 C 402.65477,390.80898 402.72981,390.865 402.72981,390.99554 C 402.72981,390.99554 402.72981,392.37564 402.72981,392.37564 C 402.72981,392.50671 402.78523,392.56221 402.91586,392.56221 C 402.91586,392.56221 404.27768,392.56221 404.27768,392.56221 C 404.408,392.56221 404.46419,392.61832 404.46419,392.7488 C 404.46419,392.7488 404.46419,393.43914 404.46419,393.43914 C 404.46419,393.56961 404.408,393.62572 404.27768,393.62572 C 404.27768,393.62572 402.91586,393.62572 402.91586,393.62572 C 402.78523,393.62572 402.72981,393.68182 402.72981,393.81238 C 402.72981,393.81238 402.72981,397.93417 402.72981,397.93417 C 402.72981,398.38175 402.86029,398.77335 403.13966,399.16542 C 403.34518,399.44525 403.77376,399.59417 404.31483,399.87406 C 404.408,399.91127 404.46419,399.94844 404.46419,400.06064 C 404.46419,400.06064 404.46419,400.78813 404.46419,400.78813 C 404.46419,400.91815 404.408,400.97473 404.25911,400.97473 z"
       style="fill:#231f20;fill-opacity:1;fill-rule:nonzero;stroke:none"
       id="path305" />
    <path
       d="M 409.92886,391.46202 C 409.92886,391.46202 409.4441,391.49925 409.4441,391.49925 C 409.31364,391.49925 409.23919,391.44316 409.23919,391.3687 C 409.23919,391.31267 409.25746,391.25656 409.29521,391.20046 C 409.29521,391.20046 410.60084,389.26117 410.60084,389.26117 L 410.74975,389.18613 C 410.74975,389.18613 412.01808,389.18613 412.01808,389.18613 C 412.14858,389.18613 412.24192,389.26117 412.24192,389.33556 C 412.24192,389.39164 412.20475,389.44723 412.14858,389.50332 C 412.14858,389.50332 409.92886,391.46202 409.92886,391.46202 z M 411.9438,395.41617 C 411.9438,394.3527 411.06672,393.43914 409.94773,393.43914 C 408.80971,393.43914 407.97066,394.316 407.97066,395.41617 C 407.97066,395.41617 407.97066,395.67721 407.97066,395.67721 C 407.97066,395.80777 408.02683,395.8638 408.15718,395.8638 C 408.15718,395.8638 411.75715,395.8638 411.75715,395.8638 C 411.88762,395.8638 411.9438,395.80777 411.9438,395.67721 C 411.9438,395.67721 411.9438,395.41617 411.9438,395.41617 z M 413.02551,396.74019 C 413.02551,396.74019 408.15718,396.74019 408.15718,396.74019 C 408.02683,396.74019 407.97066,396.79628 407.97066,396.92677 C 407.97066,396.92677 407.97066,397.93417 407.97066,397.93417 C 407.97066,399.016 408.82872,399.93009 409.94773,399.93009 C 410.39533,399.93009 410.84308,399.74359 411.17893,399.42639 C 411.57064,399.05323 411.73828,398.79221 411.85047,398.79221 C 411.86875,398.79221 411.9059,398.79221 411.9438,398.8111 C 411.9438,398.8111 412.72665,399.20259 412.72665,399.20259 C 412.82014,399.23981 412.839,399.27705 412.839,399.35149 C 412.839,399.94844 411.70097,400.99307 409.94773,400.99307 C 407.97066,400.99307 406.72122,399.78074 406.72122,397.93417 C 406.72122,397.93417 406.72122,395.41617 406.72122,395.41617 C 406.72122,394.72591 407.03818,393.96111 407.59753,393.36409 C 408.21336,392.71164 408.9965,392.37564 409.94773,392.37564 C 411.75715,392.37564 413.212,393.81238 413.212,395.41617 C 413.212,395.41617 413.212,396.55406 413.212,396.55406 C 413.212,396.6847 413.15612,396.74019 413.02551,396.74019 z"
       style="fill:#231f20;fill-opacity:1;fill-rule:nonzero;stroke:none"
       id="path307" />
    <path
       d="M 369.37675,400.75196 C 369.37675,400.75196 369.86584,400.75196 369.86584,400.75196 C 369.86584,400.75196 372.75741,394.68975 372.93628,394.29816 C 373.23288,393.64511 373.45668,392.45743 372.68355,392.45743 C 371.63107,392.45743 372.31446,393.88298 372.00334,394.7421 C 371.69086,395.60756 370.17699,398.74868 370.17699,398.74868 C 370.17699,398.74868 368.44215,393.94179 368.44215,393.94179 C 368.44215,393.94179 367.99711,392.60724 366.92843,392.60724 C 365.68314,392.60724 365.37112,393.67606 365.37112,394.83227 C 365.68314,394.83227 365.68314,394.83227 365.68314,394.83227 C 365.68314,394.83227 365.68314,393.54184 366.34977,393.54184 C 367.63969,393.54184 369.37675,400.75196 369.37675,400.75196 z"
       style="fill:#c5112e;fill-opacity:1;fill-rule:nonzero;stroke:none"
       id="path309" />
    <path
       d="M 423.24142,411.05933 C 423.27022,410.42319 423.62127,409.88215 424.23742,409.88215 C 424.67487,409.88215 425.06584,410.13354 425.06584,410.669 C 425.06584,411.43687 424.40975,411.79578 423.74203,412.19886 C 423.08005,412.60162 422.40105,413.05494 422.35506,413.99304 C 422.35506,413.99304 424.9624,413.99304 424.9624,413.99304 L 425.02591,413.62774 C 425.02591,413.62774 422.77547,413.62774 422.77547,413.62774 C 422.99429,412.97933 423.66186,412.63942 424.26606,412.26188 C 424.87632,411.89037 425.429,411.47468 425.429,410.68162 C 425.429,409.9445 424.90497,409.5483 424.27163,409.5483 C 423.47741,409.5483 422.91344,410.19015 422.87908,411.05933 C 422.87908,411.05933 423.24142,411.05933 423.24142,411.05933 z M 414.95833,415.16413 C 415.06207,415.17034 415.17157,415.19554 415.27516,415.19554 C 415.58612,415.19554 415.84484,415.05054 415.99442,414.76137 C 415.99442,414.76137 418.10688,410.74447 418.10688,410.74447 L 417.71575,410.74447 L 416.34595,413.50221 L 416.33386,413.50221 L 415.90849,410.74447 L 415.52834,410.74447 L 416.07511,413.99304 C 416.07511,413.99304 415.80491,414.50953 415.80491,414.50953 C 415.71259,414.67954 415.55697,414.8617 415.33818,414.8617 C 415.23439,414.8617 415.1313,414.85533 415.02787,414.84272 C 415.02787,414.84272 414.95833,415.16413 414.95833,415.16413 z M 413.65186,411.75797 C 413.6746,411.0027 413.1856,410.65003 412.5408,410.65003 C 411.52203,410.65003 410.92929,411.73276 410.92929,412.74646 C 410.92929,413.54624 411.33762,414.08745 412.07471,414.08745 C 412.79397,414.08745 413.24289,413.68436 413.46169,412.9417 C 413.46169,412.9417 413.09919,412.9417 413.09919,412.9417 C 412.94405,413.414 412.59873,413.75359 412.12055,413.75359 C 411.55643,413.75359 411.29196,413.32595 411.29196,412.74646 C 411.29196,411.90297 411.70649,410.98372 412.57518,410.98372 C 413.00115,410.98372 413.31782,411.27289 413.2892,411.75797 C 413.2892,411.75797 413.65186,411.75797 413.65186,411.75797 z M 406.25513,413.99304 L 406.61812,413.99304 C 406.61812,413.99304 406.94624,412.32488 406.94624,412.32488 C 407.10711,411.49972 407.58532,410.98372 408.1087,410.98372 C 408.43107,410.98372 408.73056,411.14065 408.73056,411.56911 C 408.73056,411.67614 408.71339,411.79578 408.69,411.89661 C 408.69,411.89661 408.27595,413.99304 408.27595,413.99304 L 408.63829,413.99304 C 408.63829,413.99304 409.04725,411.90919 409.04725,411.90919 C 409.07572,411.75797 409.09292,411.62574 409.09292,411.52493 C 409.09292,410.90188 408.71339,410.65003 408.19507,410.65003 C 407.75192,410.65003 407.36028,410.95229 407.13576,411.33592 C 407.13576,411.33592 407.12429,411.33592 407.12429,411.33592 L 407.22789,410.74447 L 406.89405,410.74447 L 406.25513,413.99304 z M 402.61198,411.71393 C 402.68629,411.17224 403.08398,410.98372 403.54417,410.98372 C 403.8201,410.98372 404.17178,411.06572 404.17178,411.44948 C 404.17178,411.87778 404.05101,412.02261 403.81453,412.08561 C 403.58428,412.14862 403.25042,412.11703 402.87073,412.18003 C 402.34114,412.28086 401.84051,412.50065 401.84051,413.18732 C 401.84051,413.8228 402.24884,414.08745 402.79005,414.08745 C 403.20476,414.08745 403.61357,413.86699 403.8201,413.4896 C 403.8201,413.4896 403.83221,413.50221 403.83221,413.50221 C 403.82647,413.55835 403.8201,413.62136 403.8201,413.67797 C 403.82647,413.89236 403.93531,414.03081 404.13693,414.03081 C 404.2348,414.03081 404.35575,414.01821 404.43642,413.99939 C 404.43642,413.99939 404.48846,413.68436 404.48846,413.68436 C 404.43642,413.69059 404.39633,413.69697 404.34411,413.69697 C 404.25771,413.69697 404.15412,413.67797 404.15412,413.56521 C 404.15412,413.36997 404.21761,413.19994 404.34985,412.46923 C 404.40777,412.18003 404.53429,411.68876 404.53429,411.37387 C 404.53429,410.80124 403.90666,410.65003 403.50407,410.65003 C 402.86499,410.65003 402.34687,410.9775 402.24884,411.71393 C 402.24884,411.71393 402.61198,411.71393 402.61198,411.71393 z M 403.92973,412.80307 C 403.81453,413.36997 403.44629,413.75359 402.86499,413.75359 C 402.51985,413.75359 402.20318,413.58354 402.20318,413.16852 C 402.20318,412.48803 402.93373,412.46283 403.37706,412.42503 C 403.56152,412.4126 403.9183,412.4 404.03317,412.24306 C 404.03317,412.24306 404.04526,412.25566 404.04526,412.25566 C 404.04526,412.25566 403.92973,412.80307 403.92973,412.80307 z M 396.40077,413.99304 L 396.77521,413.99304 L 397.5408,409.97591 L 397.55225,409.97591 L 399.19292,413.99304 L 399.62461,413.99304 L 400.52259,409.4979 L 400.14226,409.4979 L 399.38224,413.5148 L 399.37097,413.5148 L 397.7303,409.4979 L 397.28713,409.4979 L 396.40077,413.99304 z M 389.44199,412.14223 C 389.56865,411.53752 389.9768,410.98372 390.57594,410.98372 C 391.07639,410.98372 391.38736,411.34868 391.38736,411.89037 C 391.38736,411.97221 391.38161,412.05402 391.38161,412.14223 C 391.38161,412.14223 389.44199,412.14223 389.44199,412.14223 z M 391.72105,412.47545 C 391.74396,412.28086 391.74985,412.09821 391.74985,411.91558 C 391.74985,411.15964 391.33563,410.65003 390.62161,410.65003 C 389.60303,410.65003 389.01615,411.68237 389.01615,412.70866 C 389.01615,413.5526 389.44199,414.08745 390.22474,414.08745 C 390.92684,414.08745 391.38161,413.67177 391.57752,412.9479 C 391.57752,412.9479 391.21486,412.9479 391.21486,412.9479 C 391.07639,413.42039 390.71393,413.75359 390.24193,413.75359 C 389.65505,413.75359 389.37848,413.31336 389.37848,412.72746 C 389.37848,412.63942 389.38439,412.55106 389.39565,412.47545 C 389.39565,412.47545 391.72105,412.47545 391.72105,412.47545 z M 390.38004,410.30978 L 390.68528,410.30978 L 391.51385,409.40346 L 391.04759,409.40346 L 390.38004,410.30978 z M 385.97068,411.0783 L 386.50632,411.0783 C 386.50632,411.0783 386.09734,413.23152 386.09734,413.23152 C 386.06872,413.3762 386.05727,413.496 386.05727,413.56521 C 386.05727,413.95521 386.33382,414.03081 386.60402,414.03081 C 386.72498,414.03081 386.85148,414.01821 386.97224,414.0056 C 386.97224,414.0056 387.03592,413.65917 387.03592,413.65917 C 386.89207,413.68436 386.75343,413.69697 386.60976,413.69697 C 386.47179,413.69697 386.41974,413.58354 386.41974,413.47077 C 386.41974,413.36997 386.43121,413.31336 386.46033,413.16214 C 386.46033,413.16214 386.86864,411.0783 386.86864,411.0783 L 387.47335,411.0783 L 387.53062,410.74447 L 386.93788,410.74447 L 387.12806,409.76235 L 386.76554,409.76235 L 386.57556,410.74447 L 386.03989,410.74447 L 385.97068,411.0783 z M 383.98487,410.13354 L 384.34789,410.13354 L 384.47455,409.4979 L 384.11206,409.4979 L 383.98487,410.13354 z M 383.22552,413.99304 L 383.5882,413.99304 L 384.22711,410.74447 L 383.8641,410.74447 L 383.22552,413.99304 z M 379.07523,412.93531 C 379.04086,413.74736 379.62215,414.08745 380.19185,414.08745 C 380.7558,414.08745 381.38915,413.8228 381.38915,413.09274 C 381.38915,412.49442 380.83076,412.3123 380.42194,412.13601 C 380.08874,411.99117 379.7945,411.83996 379.7945,411.53752 C 379.7945,411.09107 380.21459,410.98372 380.53126,410.98372 C 380.94006,410.98372 381.25691,411.19744 381.22826,411.69498 C 381.22826,411.69498 381.59077,411.69498 381.59077,411.69498 C 381.60208,410.94607 381.15316,410.65003 380.53126,410.65003 C 380.0537,410.65003 379.43247,410.90827 379.43247,411.53752 C 379.43247,412.07301 379.82919,412.26825 380.22605,412.43762 C 380.61782,412.60162 381.02664,412.73386 381.02664,413.15591 C 381.02664,413.57095 380.60065,413.75359 380.27825,413.75359 C 379.85782,413.75359 379.43247,413.56521 379.43822,412.93531 C 379.43822,412.93531 379.07523,412.93531 379.07523,412.93531 z M 375.76547,413.99304 L 376.12845,413.99304 C 376.12845,413.99304 376.46166,412.29347 376.46166,412.29347 C 376.58291,411.68237 376.92839,411.10992 377.57827,411.0973 C 377.64814,411.0973 377.71689,411.10288 377.78563,411.10288 C 377.78563,411.10288 377.86695,410.70664 377.86695,410.70664 C 377.80279,410.70044 377.73405,410.70044 377.67108,410.70044 C 377.14148,410.69405 376.8248,411.02789 376.59454,411.49351 C 376.59454,411.49351 376.58291,411.49351 376.58291,411.49351 L 376.7325,410.74447 L 376.40437,410.74447 L 375.76547,413.99304 z M 371.90941,412.14223 C 372.03526,411.53752 372.44406,410.98372 373.0432,410.98372 C 373.5435,410.98372 373.85444,411.34868 373.85444,411.89037 C 373.85444,411.97221 373.84887,412.05402 373.84887,412.14223 C 373.84887,412.14223 371.90941,412.14223 371.90941,412.14223 z M 374.18831,412.47545 C 374.21123,412.28086 374.21696,412.09821 374.21696,411.91558 C 374.21696,411.15964 373.8024,410.65003 373.08886,410.65003 C 372.07012,410.65003 371.4831,411.68237 371.4831,412.70866 C 371.4831,413.5526 371.90941,414.08745 372.69153,414.08745 C 373.39408,414.08745 373.84887,413.67177 374.04462,412.9479 C 374.04462,412.9479 373.68213,412.9479 373.68213,412.9479 C 373.5435,413.42039 373.181,413.75359 372.70869,413.75359 C 372.12234,413.75359 371.84575,413.31336 371.84575,412.72746 C 371.84575,412.63942 371.8513,412.55106 371.86294,412.47545 C 371.86294,412.47545 374.18831,412.47545 374.18831,412.47545 z M 367.96612,413.99304 L 368.35793,413.99304 L 370.03227,410.74447 L 369.63543,410.74447 L 368.24222,413.54624 L 368.2306,413.54624 L 367.87972,410.74447 L 367.50005,410.74447 L 367.96612,413.99304 z M 365.49117,410.13354 L 365.85368,410.13354 L 365.98033,409.4979 L 365.61718,409.4979 L 365.49117,410.13354 z M 364.73084,413.99304 L 365.09383,413.99304 L 365.7329,410.74447 L 365.36989,410.74447 L 364.73084,413.99304 z M 360.20118,413.99304 L 360.56366,413.99304 C 360.56366,413.99304 360.89194,412.32488 360.89194,412.32488 C 361.05333,411.49972 361.53087,410.98372 362.05439,410.98372 C 362.37729,410.98372 362.67612,411.14065 362.67612,411.56911 C 362.67612,411.67614 362.65911,411.79578 362.63605,411.89661 C 362.63605,411.89661 362.22148,413.99304 362.22148,413.99304 L 362.58465,413.99304 C 362.58465,413.99304 362.99297,411.90919 362.99297,411.90919 C 363.0221,411.75797 363.03928,411.62574 363.03928,411.52493 C 363.03928,410.90188 362.65911,410.65003 362.14129,410.65003 C 361.69813,410.65003 361.30633,410.95229 361.08195,411.33592 C 361.08195,411.33592 361.07052,411.33592 361.07052,411.33592 L 361.1736,410.74447 L 360.8404,410.74447 L 360.20118,413.99304 z M 355.08423,412.43141 C 355.06133,412.57625 355.04987,412.70227 355.04987,412.79687 C 355.04357,413.73476 355.79204,414.08745 356.51123,414.08745 C 357.44979,414.08745 358.07692,413.62774 358.27837,412.56988 C 358.27837,412.56988 358.86575,409.4979 358.86575,409.4979 L 358.47427,409.4979 C 358.47427,409.4979 357.89297,412.53845 357.89297,412.53845 C 357.74929,413.29437 357.30038,413.72215 356.56335,413.72215 C 355.88419,413.72215 355.41759,413.40141 355.44091,412.74646 C 355.44091,412.60783 355.45245,412.48803 355.48101,412.3558 C 355.48101,412.3558 356.02794,409.4979 356.02794,409.4979 L 355.63632,409.4979 C 355.63632,409.4979 355.08423,412.43141 355.08423,412.43141 z"
       style="fill:#231f20;fill-opacity:1;fill-rule:nonzero;stroke:none"
       id="path313" />
  </g>
</svg>
